<svg width="36" height="36" viewBox="0 0 36 36" fill="none" xmlns="http://www.w3.org/2000/svg">
<rect width="36" height="36" rx="6" fill="#3C0061"/>
<path d="M17.0626 25.684L10.2825 18.7313C10.1798 18.626 10.1068 18.5119 10.0637 18.389C10.0212 18.2661 10 18.1344 10 17.9939C10 17.8535 10.0212 17.7218 10.0637 17.5989C10.1068 17.476 10.1798 17.3619 10.2825 17.2565L17.0626 10.3039C17.2509 10.1107 17.4862 10.0096 17.7683 10.0005C18.0512 9.99206 18.2953 10.0932 18.5008 10.3039C18.7063 10.497 18.8134 10.7382 18.8223 11.0276C18.8306 11.3176 18.7319 11.568 18.5265 11.7787L13.4928 16.9405H24.9727C25.2638 16.9405 25.5079 17.0413 25.7052 17.2428C25.9017 17.4451 26 17.6955 26 17.9939C26 18.2924 25.9017 18.5424 25.7052 18.744C25.5079 18.9462 25.2638 19.0474 24.9727 19.0474H13.4928L18.5265 24.2092C18.7148 24.4023 18.8134 24.6481 18.8223 24.9466C18.8306 25.245 18.7319 25.4908 18.5265 25.684C18.3381 25.8947 18.0984 26 17.8074 26C17.5163 26 17.2681 25.8947 17.0626 25.684V25.684Z" fill="white"/>
</svg>
