<svg width="32" height="32" viewBox="0 0 32 32" fill="none" xmlns="http://www.w3.org/2000/svg">
<path d="M12.4994 10.1206C12.4994 10.5161 12.3821 10.9028 12.1623 11.2317C11.9426 11.5606 11.6302 11.8169 11.2648 11.9683C10.8993 12.1197 10.4972 12.1593 10.1092 12.0821C9.72125 12.005 9.36489 11.8145 9.08518 11.5348C8.80548 11.2551 8.615 10.8987 8.53782 10.5107C8.46065 10.1228 8.50026 9.72064 8.65164 9.35518C8.80301 8.98973 9.05936 8.67738 9.38826 8.45761C9.71715 8.23785 10.1038 8.12055 10.4994 8.12055C11.0298 8.12055 11.5385 8.33127 11.9136 8.70634C12.2887 9.08141 12.4994 9.59012 12.4994 10.1206Z" fill="#FD5201"/>
<path fill-rule="evenodd" clip-rule="evenodd" d="M30.3494 15.1206L17.2994 2.07055C17.0089 1.77722 16.65 1.56079 16.2551 1.44077C15.8601 1.32075 15.4415 1.30091 15.0369 1.38305L4.9619 3.39555C4.66946 3.45553 4.40105 3.60002 4.18996 3.81112C3.97887 4.02221 3.83438 4.29061 3.7744 4.58305L1.7619 14.6581C1.67976 15.0626 1.69959 15.4812 1.81961 15.8762C1.93963 16.2712 2.15607 16.6301 2.4494 16.9206L4.2363 18.7075C3.8582 19.2101 3.53926 19.7626 3.27947 20.365C2.87088 21.3113 2.66659 22.3224 2.66659 23.3983C2.66659 24.4743 2.87088 25.4854 3.27947 26.4317C3.68755 27.378 4.24158 28.2011 4.94158 28.9011C5.64158 29.6011 6.46473 30.1551 7.41102 30.5632C8.35732 30.9718 9.36843 31.1761 10.4444 31.1761C11.5203 31.1761 12.5314 30.9718 13.4777 30.5632C14.0801 30.3034 14.6326 29.9845 15.1352 29.6064L15.4994 29.9706C15.7307 30.2045 16.0062 30.3902 16.3098 30.517C16.6134 30.6437 16.9391 30.709 17.2681 30.709C17.5972 30.709 17.9229 30.6437 18.2265 30.517C18.5301 30.3902 18.8056 30.2045 19.0369 29.9706L30.3494 18.6581C30.5833 18.4267 30.7691 18.1513 30.8958 17.8477C31.0226 17.544 31.0878 17.2183 31.0878 16.8893C31.0878 16.5603 31.0226 16.2346 30.8958 15.9309C30.7691 15.6273 30.5833 15.3519 30.3494 15.1206ZM17.1389 27.3601L17.2744 27.4956L27.8744 16.8956L15.3619 4.38305L6.5244 6.14555L4.7619 14.9831L6.4824 16.7036C6.77751 16.5295 7.08705 16.3726 7.41102 16.2327C8.35732 15.8246 9.36843 15.6206 10.4444 15.6206C11.5203 15.6206 12.5314 15.8246 13.4777 16.2327C14.424 16.6413 15.2471 17.1956 15.9471 17.8956C16.6471 18.5956 17.2012 19.4187 17.6092 20.365C18.0178 21.3113 18.2221 22.3224 18.2221 23.3983C18.2221 24.4743 18.0178 25.4854 17.6092 26.4317C17.4696 26.7556 17.3128 27.065 17.1389 27.3601ZM11.2221 27.2872H9.66658V24.1761H6.55547V22.6206H9.66658V19.5094H11.2221V22.6206H14.3332V24.1761H11.2221V27.2872Z" fill="#FD5201"/>
</svg>
