<svg width="16" height="18" viewBox="0 0 16 18" fill="none" xmlns="http://www.w3.org/2000/svg">
<path d="M0.31603 8.03873L7.26868 1.08608C7.37402 0.980737 7.48814 0.905943 7.61104 0.861699C7.73394 0.818157 7.86562 0.796386 8.00608 0.796386C8.14653 0.796386 8.27821 0.818157 8.40111 0.861699C8.52401 0.905943 8.63814 0.980737 8.74348 1.08608L15.6961 8.03873C15.8893 8.23186 15.9904 8.47309 15.9995 8.76243C16.0079 9.05248 15.9068 9.30284 15.6961 9.51353C15.503 9.72422 15.2618 9.83413 14.9724 9.84325C14.6824 9.85168 14.432 9.75055 14.2213 9.53987L9.05951 4.37805L9.05951 16.1501C9.05951 16.4486 8.95873 16.699 8.75717 16.9012C8.55491 17.1028 8.30455 17.2036 8.00608 17.2036C7.7076 17.2036 7.45759 17.1028 7.25603 16.9012C7.05378 16.699 6.95265 16.4486 6.95265 16.1501L6.95265 4.37805L1.79083 9.53987C1.5977 9.733 1.3519 9.83412 1.05343 9.84325C0.754959 9.85168 0.509159 9.75055 0.31603 9.53987C0.105343 9.34674 -3.63003e-07 9.10094 -3.49957e-07 8.80246C-3.3691e-07 8.50399 0.105343 8.24941 0.31603 8.03873Z" fill="#3C0061"/>
</svg>
