<svg width="111" height="48" viewBox="0 0 111 48" fill="none" xmlns="http://www.w3.org/2000/svg">
<g filter="url(#filter0_d_1890_4313)">
<rect x="6" y="4" width="99" height="36" rx="6" fill="#F6F5FB" shape-rendering="crispEdges"/>
<rect x="6" y="4" width="36" height="36" rx="6" fill="#3C0061"/>
<path d="M23.0626 29.684L16.2825 22.7313C16.1798 22.626 16.1068 22.5119 16.0637 22.389C16.0212 22.2661 16 22.1344 16 21.9939C16 21.8535 16.0212 21.7218 16.0637 21.5989C16.1068 21.476 16.1798 21.3619 16.2825 21.2565L23.0626 14.3039C23.2509 14.1107 23.4862 14.0096 23.7683 14.0005C24.0512 13.9921 24.2953 14.0932 24.5008 14.3039C24.7063 14.497 24.8134 14.7382 24.8223 15.0276C24.8306 15.3176 24.7319 15.568 24.5265 15.7787L19.4928 20.9405H30.9727C31.2638 20.9405 31.5079 21.0413 31.7052 21.2428C31.9017 21.4451 32 21.6955 32 21.9939C32 22.2924 31.9017 22.5424 31.7052 22.744C31.5079 22.9462 31.2638 23.0474 30.9727 23.0474H19.4928L24.5265 28.2092C24.7148 28.4023 24.8134 28.6481 24.8223 28.9466C24.8306 29.245 24.7319 29.4908 24.5265 29.684C24.3381 29.8947 24.0984 30 23.8074 30C23.5163 30 23.2681 29.8947 23.0626 29.684Z" fill="white"/>
<path d="M53.42 27.5V17.276C53.42 17.132 53.456 17.06 53.564 17.06C53.654 17.06 53.69 17.132 53.726 17.276L58.784 26.78C59.126 27.428 59.72 27.716 60.404 27.716C61.232 27.716 62.006 27.104 62.006 26.006V15.44H60.26V25.718C60.26 25.826 60.242 25.862 60.17 25.862C60.062 25.862 60.026 25.79 59.972 25.628L54.896 16.142C54.554 15.512 54.05 15.224 53.312 15.224C52.394 15.224 51.674 15.854 51.674 16.952V27.5H53.42ZM69.1118 27.716C71.7578 27.716 73.7918 25.628 73.7918 23.072C73.7918 20.552 71.7758 18.464 69.1118 18.464C66.4658 18.464 64.3958 20.534 64.3958 23.072C64.3958 25.628 66.4478 27.716 69.1118 27.716ZM69.1118 26.024C67.4558 26.024 66.1778 24.692 66.1778 23.09C66.1778 21.47 67.4558 20.138 69.1118 20.138C70.7498 20.138 72.0098 21.47 72.0098 23.09C72.0098 24.692 70.7498 26.024 69.1118 26.024ZM79.7959 27.734C80.4439 27.734 81.1459 27.536 81.5959 27.23V25.592C81.1639 25.898 80.5339 26.114 79.9579 26.114C78.8959 26.114 78.2119 25.43 78.2119 24.278V20.228H81.5959V18.68H78.2119V16.394H76.4299V18.68H74.6839V20.228H76.4299V24.332C76.4299 26.348 77.5999 27.734 79.7959 27.734ZM87.8316 27.698C89.5596 27.698 90.9816 26.888 91.7556 25.376L90.3876 24.674C89.8656 25.646 88.8936 26.114 87.8136 26.114C86.2296 26.114 85.0776 25.052 84.8796 23.54H91.9356V22.82C91.9356 20.354 90.2796 18.428 87.6156 18.428C84.9696 18.428 83.1516 20.498 83.1516 23.036C83.1516 25.754 85.1496 27.698 87.8316 27.698ZM84.9516 22.388C85.1316 21.074 86.1036 20.03 87.5976 20.03C89.0556 20.03 90.0816 20.984 90.1536 22.388H84.9516Z" fill="#160323"/>
<rect x="6.5" y="4.5" width="98" height="35" rx="5.5" stroke="#C6BEE3" shape-rendering="crispEdges"/>
</g>
<defs>
<filter id="filter0_d_1890_4313" x="0" y="0" width="111" height="48" filterUnits="userSpaceOnUse" color-interpolation-filters="sRGB">
<feFlood flood-opacity="0" result="BackgroundImageFix"/>
<feColorMatrix in="SourceAlpha" type="matrix" values="0 0 0 0 0 0 0 0 0 0 0 0 0 0 0 0 0 0 127 0" result="hardAlpha"/>
<feOffset dy="2"/>
<feGaussianBlur stdDeviation="3"/>
<feComposite in2="hardAlpha" operator="out"/>
<feColorMatrix type="matrix" values="0 0 0 0 0.235294 0 0 0 0 0 0 0 0 0 0.380392 0 0 0 0.08 0"/>
<feBlend mode="normal" in2="BackgroundImageFix" result="effect1_dropShadow_1890_4313"/>
<feBlend mode="normal" in="SourceGraphic" in2="effect1_dropShadow_1890_4313" result="shape"/>
</filter>
</defs>
</svg>
