<svg width="120" height="120" viewBox="0 0 120 120" fill="none" xmlns="http://www.w3.org/2000/svg">
<path d="M43 48V53.8M57.5 51.886L54.6 56.9088M68.114 62.5L63.0912 65.4M72 77H66.2M68.114 91.5L63.0912 88.6M57.5 102.114L54.6 97.0912M43 106V100.2M28.5 102.114L31.4 97.0912M17.886 91.5L22.9088 88.6M14 77H19.8M17.886 62.5L22.9088 65.4M28.5 51.886L31.4 56.9088" stroke="#3C0061" stroke-width="4" stroke-linecap="round" stroke-linejoin="round"/>
<path fill-rule="evenodd" clip-rule="evenodd" d="M30 39.0525L30 26.25C30 23.2663 31.1853 20.4048 33.295 18.2951C35.4048 16.1853 38.2663 15 41.25 15L67.5 15V30C67.5 35.9674 69.8705 41.6903 74.0901 45.9099C78.3097 50.1295 84.0326 52.5 90 52.5H105V78.75C105 81.7337 103.815 84.5952 101.705 86.705C99.5952 88.8147 96.7337 90 93.75 90H80.9475C80.205 92.6175 79.215 95.1225 78 97.5H93.75C98.7228 97.5 103.492 95.5246 107.008 92.0083C110.525 88.492 112.5 83.7228 112.5 78.75L112.5 46.605C112.499 43.6234 111.315 40.764 109.207 38.655L81.345 10.8C79.2372 8.68961 76.3777 7.50263 73.395 7.5L41.25 7.5C36.2772 7.5 31.5081 9.47545 27.9917 12.9918C24.4754 16.5081 22.5 21.2772 22.5 26.25L22.5 42C24.8971 40.7736 27.4093 39.7863 30 39.0525ZM103.905 43.95C104.208 44.2552 104.457 44.6104 104.64 45H90C86.0218 45 82.2064 43.4196 79.3934 40.6066C76.5804 37.7936 75 33.9783 75 30V15.36C75.3869 15.5437 75.7395 15.7923 76.0425 16.095L103.905 43.95Z" fill="#3C0061"/>
</svg>
