<svg width="28" height="28" viewBox="0 0 28 28" fill="none" xmlns="http://www.w3.org/2000/svg">
<path d="M13.9999 25.6668C12.386 25.6668 10.8694 25.3603 9.44992 24.7474C8.03047 24.1353 6.79575 23.3043 5.74575 22.2543C4.69575 21.2043 3.8647 19.9695 3.25259 18.5501C2.6397 17.1307 2.33325 15.614 2.33325 14.0001C2.33325 12.3862 2.6397 10.8695 3.25259 9.4501C3.8647 8.03066 4.69575 6.79594 5.74575 5.74594C6.79575 4.69594 8.03047 3.86449 9.44992 3.2516C10.8694 2.63949 12.386 2.33344 13.9999 2.33344C15.6138 2.33344 17.1305 2.63949 18.5499 3.2516C19.9694 3.86449 21.2041 4.69594 22.2541 5.74594C23.3041 6.79594 24.1351 8.03066 24.7473 9.4501C25.3601 10.8695 25.6666 12.3862 25.6666 14.0001C25.6666 15.614 25.3601 17.1307 24.7473 18.5501C24.1351 19.9695 23.3041 21.2043 22.2541 22.2543C21.2041 23.3043 19.9694 24.1353 18.5499 24.7474C17.1305 25.3603 15.6138 25.6668 13.9999 25.6668ZM13.9999 23.3334C16.6055 23.3334 18.8124 22.4293 20.6208 20.6209C22.4291 18.8126 23.3333 16.6057 23.3333 14.0001C23.3333 12.9501 23.1629 11.939 22.8223 10.9668C22.4824 9.99455 21.9916 9.1001 21.3499 8.28343L8.28325 21.3501C9.09992 21.9918 9.99436 22.4825 10.9666 22.8224C11.9388 23.1631 12.9499 23.3334 13.9999 23.3334ZM6.64992 19.7168L19.7166 6.6501C18.8999 6.00843 18.0055 5.51766 17.0333 5.17777C16.061 4.8371 15.0499 4.66677 13.9999 4.66677C11.3944 4.66677 9.18742 5.57093 7.37909 7.37927C5.57075 9.1876 4.66659 11.3945 4.66659 14.0001C4.66659 15.0501 4.83692 16.0612 5.17759 17.0334C5.51747 18.0057 6.00825 18.9001 6.64992 19.7168Z" fill="#444444"/>
</svg>
