<svg width="36" height="36" viewBox="0 0 36 36" fill="none" xmlns="http://www.w3.org/2000/svg">
<path fill-rule="evenodd" clip-rule="evenodd" d="M9 11.7157L9 7.875C9 6.97989 9.35558 6.12145 9.98851 5.48851C10.6214 4.85558 11.4799 4.5 12.375 4.5L20.25 4.5L20.25 9C20.25 10.7902 20.9612 12.5071 22.227 13.773C23.4929 15.0388 25.2098 15.75 27 15.75L31.5 15.75L31.5 23.625C31.5 24.5201 31.1444 25.3785 30.5115 26.0115C29.8786 26.6444 29.0201 27 28.125 27L24.2842 27C24.0615 27.7852 23.7645 28.5367 23.4 29.25L28.125 29.25C29.6168 29.25 31.0476 28.6574 32.1025 27.6025C33.1574 26.5476 33.75 25.1168 33.75 23.625L33.75 13.9815C33.7498 13.087 33.3945 12.2292 32.7622 11.5965L24.4035 3.24C23.7712 2.60688 22.9133 2.25079 22.0185 2.25L12.375 2.25C10.8832 2.25 9.45242 2.84263 8.39752 3.89752C7.34263 4.95242 6.75 6.38316 6.75 7.875L6.75 12.6C7.46914 12.2321 8.22278 11.9359 9 11.7157ZM31.1715 13.185C31.2625 13.2766 31.3371 13.3831 31.392 13.5L27 13.5C25.8065 13.5 24.6619 13.0259 23.818 12.182C22.9741 11.3381 22.5 10.1935 22.5 9L22.5 4.608C22.6161 4.6631 22.7219 4.73768 22.8127 4.8285L31.1715 13.185Z" fill="#3C0061"/>
<path fill-rule="evenodd" clip-rule="evenodd" d="M12.375 13.5C15.0603 13.5 17.6356 14.5667 19.5345 16.4655C21.4333 18.3644 22.5 20.9397 22.5 23.625C22.5 26.3103 21.4333 28.8856 19.5345 30.7845C17.6356 32.6833 15.0603 33.75 12.375 33.75C9.68968 33.75 7.11435 32.6833 5.21554 30.7845C3.31674 28.8857 2.25 26.3103 2.25 23.625C2.25 20.9397 3.31674 18.3644 5.21554 16.4655C7.11435 14.5667 9.68968 13.5 12.375 13.5ZM7.0795 22.8295C7.29048 22.6185 7.57663 22.5 7.875 22.5L11.25 22.5L11.25 19.125C11.25 18.8266 11.3685 18.5405 11.5795 18.3295C11.7905 18.1185 12.0766 18 12.375 18C12.6734 18 12.9595 18.1185 13.1705 18.3295C13.3815 18.5405 13.5 18.8266 13.5 19.125L13.5 22.5L16.875 22.5C17.1734 22.5 17.4595 22.6185 17.6705 22.8295C17.8815 23.0405 18 23.3266 18 23.625C18 23.9234 17.8815 24.2095 17.6705 24.4205C17.4595 24.6315 17.1734 24.75 16.875 24.75L13.5 24.75L13.5 28.125C13.5 28.4234 13.3815 28.7095 13.1705 28.9205C12.9595 29.1315 12.6734 29.25 12.375 29.25C12.0766 29.25 11.7905 29.1315 11.5795 28.9205C11.3685 28.7095 11.25 28.4234 11.25 28.125L11.25 24.75L7.875 24.75C7.57663 24.75 7.29048 24.6315 7.0795 24.4205C6.86853 24.2095 6.75 23.9234 6.75 23.625C6.75 23.3266 6.86853 23.0405 7.0795 22.8295Z" fill="#FD5201"/>
</svg>
