<svg width="20" height="20" viewBox="0 0 20 20" fill="none" xmlns="http://www.w3.org/2000/svg">
<path d="M18.9686 9.68758L10.8123 1.53133C10.6308 1.348 10.4065 1.21273 10.1596 1.13772C9.91277 1.0627 9.65112 1.05031 9.39827 1.10164L3.1014 2.35946C2.91862 2.39694 2.75087 2.48725 2.61894 2.61918C2.48701 2.75112 2.3967 2.91887 2.35921 3.10164L1.1014 9.39852C1.05006 9.65136 1.06246 9.91301 1.13747 10.1599C1.21248 10.4067 1.34775 10.631 1.53109 10.8126L9.68734 18.9688C9.83192 19.115 10.0041 19.2311 10.1938 19.3103C10.3836 19.3896 10.5872 19.4304 10.7928 19.4304C10.9984 19.4304 11.202 19.3896 11.3918 19.3103C11.5815 19.2311 11.7537 19.115 11.8983 18.9688L18.9686 11.8985C19.1148 11.7539 19.2309 11.5818 19.3101 11.392C19.3893 11.2023 19.4301 10.9987 19.4301 10.793C19.4301 10.5874 19.3893 10.3838 19.3101 10.1941C19.2309 10.0043 19.1148 9.83217 18.9686 9.68758ZM10.7967 17.422L2.9764 9.60164L4.07796 4.07821L9.6014 2.97664L17.4217 10.797L10.7967 17.422ZM7.81234 6.56258C7.81234 6.80981 7.73903 7.05148 7.60167 7.25704C7.46432 7.4626 7.2691 7.62282 7.04069 7.71743C6.81228 7.81204 6.56095 7.83679 6.31847 7.78856C6.076 7.74033 5.85327 7.62128 5.67845 7.44646C5.50364 7.27165 5.38459 7.04892 5.33635 6.80644C5.28812 6.56397 5.31288 6.31263 5.40749 6.08423C5.5021 5.85582 5.66231 5.6606 5.86787 5.52324C6.07344 5.38589 6.31511 5.31258 6.56234 5.31258C6.89386 5.31258 7.2118 5.44428 7.44622 5.6787C7.68064 5.91312 7.81234 6.23106 7.81234 6.56258Z" fill="#3C0061"/>
</svg>
