<svg width="20" height="20" viewBox="0 0 20 20" fill="none" xmlns="http://www.w3.org/2000/svg">
<path d="M14.714 6.89429C15.086 6.52236 15.086 5.91935 14.714 5.54742C14.3421 5.17549 13.7391 5.17549 13.3672 5.54742L10 8.91459L6.63283 5.54742C6.2609 5.17549 5.65788 5.17549 5.28596 5.54742C4.91403 5.91935 4.91403 6.52236 5.28596 6.89429L8.65313 10.2615L5.28595 13.6286C4.91403 14.0006 4.91403 14.6036 5.28595 14.9755C5.65788 15.3474 6.2609 15.3474 6.63282 14.9755L10 11.6083L13.3672 14.9755C13.7391 15.3474 14.3421 15.3474 14.714 14.9755C15.086 14.6036 15.086 14.0006 14.714 13.6286L11.3469 10.2615L14.714 6.89429Z" fill="#3C0061"/>
</svg>
