<svg width="380" height="190" viewBox="0 0 380 190" fill="none" xmlns="http://www.w3.org/2000/svg">
<rect width="380" height="190" rx="12" fill="#3C0061"/>
<g clip-path="url(#clip0_779_6099)">
<path d="M156.7 81.023C155.6 80.5145 154.414 80.1194 153.14 79.8376C151.866 79.5573 150.681 79.2755 149.581 78.9937C148.481 78.7134 147.575 78.3443 146.86 77.8863C146.145 77.4299 145.788 76.779 145.788 75.9366C145.788 75.2336 145.997 74.6378 146.416 74.1447C146.834 73.653 147.385 73.2747 148.065 73.0113C148.745 72.7478 149.487 72.6161 150.29 72.6161C151.476 72.6161 152.558 72.8459 153.536 73.3007C154.512 73.7572 155.281 74.549 155.839 75.6717L159.816 73.4049C159.258 72.4216 158.534 71.5333 157.644 70.743C156.755 69.9527 155.69 69.3293 154.452 68.8714C153.212 68.415 151.79 68.1868 150.185 68.1868C148.335 68.1868 146.687 68.5298 145.238 69.2145C143.79 69.8991 142.656 70.8318 141.836 72.0081C141.016 73.1859 140.605 74.5291 140.605 76.0392C140.605 77.6566 140.963 78.9385 141.678 79.8866C142.393 80.8346 143.301 81.5729 144.399 82.0997C145.499 82.6266 146.683 83.0218 147.958 83.2852C149.231 83.5486 150.418 83.8121 151.517 84.0755C152.617 84.3389 153.524 84.7004 154.239 85.1568C154.954 85.6132 155.311 86.2994 155.311 87.2122C155.311 87.9504 155.084 88.583 154.631 89.1098C154.178 89.6367 153.566 90.0318 152.8 90.2953C152.032 90.5587 151.142 90.6904 150.13 90.6904C148.699 90.6904 147.468 90.427 146.44 89.9001C145.41 89.3733 144.565 88.4604 143.901 87.1586L139.924 89.3717C140.9 91.3046 142.288 92.7443 144.085 93.6939C145.882 94.6419 147.967 95.1167 150.34 95.1167C152.155 95.1167 153.839 94.7905 155.392 94.1411C156.945 93.4917 158.183 92.5605 159.108 91.3475C160.032 90.136 160.495 88.7208 160.495 87.105C160.495 85.4539 160.136 84.1536 159.422 83.204C158.708 82.2544 157.799 81.5269 156.701 81.0169L156.7 81.023Z" fill="white"/>
<path d="M181.851 69.9021C179.791 68.6906 177.472 68.0841 174.889 68.0841C172.306 68.0841 169.985 68.6906 167.927 69.9021C165.867 71.1136 164.228 72.7401 163.006 74.7772C161.785 76.8157 161.175 79.0825 161.175 81.5759C161.175 84.0693 161.785 86.3453 163.006 88.4007C164.228 90.456 165.867 92.0994 167.927 93.3293C169.985 94.5592 172.306 95.1733 174.889 95.1733C177.435 95.1733 179.747 94.5576 181.825 93.3293C183.901 92.0994 185.532 90.456 186.72 88.4007C187.906 86.3453 188.499 84.0708 188.499 81.5759C188.499 79.1162 187.906 76.8586 186.72 74.8032C185.533 72.7478 183.909 71.1136 181.851 69.9021ZM182.217 85.9241C181.484 87.2412 180.482 88.2873 179.207 89.0608C177.932 89.8342 176.494 90.2202 174.889 90.2202C173.284 90.2202 171.844 89.8342 170.57 89.0608C169.296 88.2888 168.275 87.2428 167.509 85.9241C166.74 84.6069 166.357 83.1749 166.357 81.628C166.357 80.0474 166.74 78.6061 167.509 77.3058C168.275 76.007 169.296 74.9609 170.57 74.1691C171.844 73.3788 173.283 72.9837 174.889 72.9837C176.495 72.9837 177.932 73.3788 179.207 74.1691C180.48 74.9594 181.484 76.0055 182.217 77.3058C182.95 78.6061 183.317 80.0474 183.317 81.628C183.317 83.1749 182.95 84.6054 182.217 85.9241Z" fill="white"/>
<path d="M210.194 69.8761C208.292 68.6814 205.928 68.0841 203.102 68.0841C200.344 68.0841 198.024 68.6814 196.14 69.8761C194.255 71.0707 192.824 72.6789 191.847 74.699C190.871 76.7207 190.381 78.9952 190.381 81.5238V94.5423H195.563V82.0507C195.563 80.4349 195.842 78.9584 196.401 77.6229C196.96 76.2888 197.796 75.1983 198.914 74.3544C200.031 73.5105 201.427 73.0893 203.102 73.0893C204.846 73.0893 206.285 73.5105 207.42 74.3544C208.553 75.1983 209.409 76.2965 209.984 77.6489C210.561 79.0013 210.848 80.4869 210.848 82.1028V94.5408H216.031V81.4702C216.031 78.9752 215.533 76.7192 214.539 74.6975C213.544 72.6773 212.096 71.0722 210.194 69.8761Z" fill="white"/>
<path d="M238.538 69.8486C236.479 68.6723 234.159 68.0826 231.576 68.0826C228.994 68.0826 226.672 68.6892 224.614 69.9006C222.555 71.1121 220.924 72.7463 219.72 74.8017C218.515 76.8571 217.914 79.1147 217.914 81.5744C217.914 84.0694 218.472 86.3438 219.589 88.3992C220.705 90.4546 222.232 92.098 224.169 93.3279C226.105 94.5577 228.312 95.1719 230.79 95.1719C233.023 95.1719 234.985 94.6527 236.678 93.6173C238.179 92.6984 239.39 91.493 240.316 90.0058V94.5393H245.237V81.5744C245.237 79.0105 244.635 76.7086 243.432 74.67C242.228 72.633 240.596 71.0248 238.537 69.847L238.538 69.8486ZM238.957 85.9241C238.223 87.2413 237.212 88.2874 235.921 89.0608C234.629 89.8343 233.181 90.2202 231.576 90.2202C229.972 90.2202 228.531 89.8343 227.258 89.0608C225.983 88.2889 224.972 87.2428 224.222 85.9241C223.471 84.607 223.096 83.1749 223.096 81.628C223.096 80.0474 223.471 78.6062 224.222 77.3059C224.972 76.0071 225.983 74.961 227.258 74.1692C228.531 73.3789 229.972 72.9837 231.576 72.9837C233.181 72.9837 234.629 73.3789 235.921 74.1692C237.21 74.9595 238.223 76.0056 238.957 77.3059C239.69 78.6062 240.056 80.0474 240.056 81.628C240.056 83.1749 239.69 84.6054 238.957 85.9241Z" fill="white"/>
<path d="M255.811 62.0221H250.629V68.7151H245.552V73.2471H250.629V85.264C250.629 87.2321 251.003 88.9628 251.755 90.4561C252.505 91.9494 253.613 93.118 255.078 93.9603C256.545 94.8043 258.324 95.2254 260.417 95.2254C261.359 95.2254 262.302 95.0845 263.243 94.8043C264.185 94.524 264.988 94.1717 265.651 93.7505V88.9536C265.023 89.4115 264.281 89.7791 263.426 90.0609C262.571 90.3427 261.725 90.4821 260.887 90.4821C259.351 90.4821 258.122 90.0073 257.197 89.0593C256.272 88.1112 255.81 86.7925 255.81 85.1062V73.2471H265.651V68.7151H255.81V62.0221H255.811Z" fill="white"/>
<path d="M291.747 74.6715C290.542 72.6345 288.911 71.0264 286.852 69.8486C284.792 68.6723 282.473 68.0826 279.89 68.0826C277.307 68.0826 274.986 68.6892 272.928 69.9006C270.868 71.1121 269.238 72.7463 268.033 74.8017C266.828 76.8571 266.228 79.1147 266.228 81.5744C266.228 84.0694 266.786 86.3438 267.902 88.3992C269.019 90.4546 270.546 92.098 272.482 93.3279C274.419 94.5577 276.626 95.1719 279.103 95.1719C281.336 95.1719 283.299 94.6527 284.991 93.6173C286.493 92.6984 287.704 91.493 288.63 90.0058V94.5393H293.551V81.5744C293.551 79.0105 292.948 76.7086 291.745 74.67L291.747 74.6715ZM287.272 85.9241C286.538 87.2413 285.527 88.2874 284.236 89.0608C282.944 89.8343 281.496 90.2202 279.891 90.2202C278.287 90.2202 276.846 89.8343 275.573 89.0608C274.298 88.2889 273.287 87.2428 272.537 85.9241C271.786 84.607 271.411 83.1749 271.411 81.628C271.411 80.0474 271.786 78.6062 272.537 77.3059C273.287 76.0071 274.298 74.961 275.573 74.1692C276.846 73.3789 278.287 72.9837 279.891 72.9837C281.496 72.9837 282.944 73.3789 284.236 74.1692C285.525 74.9595 286.538 76.0056 287.272 77.3059C288.005 78.6062 288.371 80.0474 288.371 81.628C288.371 83.1749 288.005 84.6054 287.272 85.9241Z" fill="white"/>
<path d="M124.594 85.4172H114.707V76.8403C115.848 77.4299 117.141 77.7592 118.51 77.7592C123.126 77.7592 126.876 73.9839 126.876 69.3355C126.876 64.6871 123.126 60.9117 118.51 60.9117C113.893 60.9117 110.144 64.6871 110.144 69.3355V73.1645H102.538V63.2091C102.538 61.9379 101.519 60.9117 100.257 60.9117C98.9943 60.9117 97.9752 61.9379 97.9752 63.2091V73.1645H88.0883C86.8258 73.1645 85.8066 74.1906 85.8066 75.4619C85.8066 76.7331 86.8258 77.7592 88.0883 77.7592H97.9752V86.3361C96.8344 85.7465 95.5415 85.4172 94.1725 85.4172C89.5561 85.4172 85.8066 89.1926 85.8066 93.8409C85.8066 98.4893 89.5561 102.265 94.1725 102.265C98.789 102.265 102.538 98.4893 102.538 93.8409V90.012H110.144V99.9673C110.144 101.239 111.163 102.265 112.425 102.265C113.688 102.265 114.707 101.239 114.707 99.9673V90.012H124.594C125.857 90.012 126.876 88.9858 126.876 87.7146C126.876 86.4434 125.857 85.4172 124.594 85.4172ZM118.51 65.5065C120.609 65.5065 122.312 67.2219 122.312 69.3355C122.312 71.4491 120.609 73.1645 118.51 73.1645C116.411 73.1645 114.707 71.4491 114.707 69.3355C114.707 67.2219 116.411 65.5065 118.51 65.5065ZM94.1725 97.6699C92.0735 97.6699 90.3699 95.9545 90.3699 93.8409C90.3699 91.7273 92.0735 90.012 94.1725 90.012C96.2716 90.012 97.9752 91.7273 97.9752 93.8409C97.9752 95.9545 96.2716 97.6699 94.1725 97.6699ZM102.538 85.4172V77.7592H110.144V85.4172H102.538Z" fill="#FD5201"/>
</g>
<defs>
<clipPath id="clip0_779_6099">
<rect width="208.387" height="41.3529" fill="white" transform="translate(85.8066 60.9117)"/>
</clipPath>
</defs>
</svg>
