<svg width="64" height="64" viewBox="0 0 64 64" fill="none" xmlns="http://www.w3.org/2000/svg">
<path d="M0 8C0 3.58172 3.58172 0 8 0H48.094C50.2702 0 52.3524 0.8865 53.8607 2.45513L61.7667 10.6773C63.1996 12.1676 64 14.1548 64 16.2222V56C64 60.4183 60.4183 64 56 64H8C3.58172 64 0 60.4183 0 56V8Z" fill="#3C0061"/>
<path d="M36.3749 38.5101C36.3753 36.4508 35.8471 34.4258 34.8408 32.629C33.8345 30.8322 32.3839 29.3238 30.6277 28.2482C28.8716 27.1726 26.8688 26.5657 24.8109 26.4857C22.7531 26.4058 20.7092 26.8553 18.8749 27.7914L18.8749 19.9164C18.8748 18.2425 19.5144 16.6318 20.6627 15.414C21.811 14.1961 23.3814 13.463 25.0524 13.3648L25.4374 13.3539L34.1874 13.3539L34.1874 22.1039L34.1983 22.4889C34.2926 24.0936 34.9725 25.608 36.1092 26.7446C37.2458 27.8813 38.7602 28.5612 40.3649 28.6555L40.7499 28.6664L49.4999 28.6664L49.4999 37.4164C49.5 39.0903 48.8604 40.701 47.7121 41.9188C46.5638 43.1367 44.9934 43.8698 43.3224 43.968L42.9374 43.9789L35.0624 43.9789C35.9024 42.3383 36.3749 40.4789 36.3749 38.5101ZM36.3771 13.5726C36.8973 13.7422 37.3811 14.0078 37.8033 14.3558L38.1096 14.6358L48.218 24.7442C48.708 25.2342 49.0712 25.8292 49.2833 26.4767L40.7499 26.4789L40.4218 26.468C39.3802 26.3897 38.4009 25.9413 37.6611 25.2039C36.9213 24.4665 36.4697 23.4887 36.388 22.4473L36.3749 22.1039L36.3771 13.5726Z" fill="white" fill-opacity="0.5"/>
<path fill-rule="evenodd" clip-rule="evenodd" d="M19.7077 48.6789C20.975 49.2261 22.3292 49.4997 23.7702 49.4997C25.2112 49.4997 26.5653 49.2261 27.8327 48.6789C29.1 48.1324 30.2025 47.3904 31.14 46.4529C32.0775 45.5154 32.8195 44.4129 33.366 43.1456C33.9132 41.8782 34.1868 40.524 34.1868 39.0831C34.1868 37.6421 33.9132 36.2879 33.366 35.0206C32.8195 33.7532 32.0775 32.6508 31.14 31.7133C30.2025 30.7758 29.1 30.0334 27.8327 29.4862C26.5653 28.9397 25.2112 28.6664 23.7702 28.6664C22.3292 28.6664 20.975 28.9397 19.7077 29.4862C18.4403 30.0334 17.3379 30.7758 16.4004 31.7133C15.4629 32.6508 14.7209 33.7532 14.1743 35.0206C13.6271 36.2879 13.3535 37.6421 13.3535 39.0831C13.3535 40.524 13.6271 41.8782 14.1743 43.1456C14.7209 44.4129 15.4629 45.5154 16.4004 46.4529C17.3379 47.3904 18.4403 48.1324 19.7077 48.6789ZM29.6556 36.531L22.3118 43.8747L17.8848 39.4476L19.3431 37.9893L22.3118 40.9581L28.1973 35.0726L29.6556 36.531Z" fill="white" fill-opacity="0.5"/>
</svg>
