<svg width="32" height="32" viewBox="0 0 32 32" fill="none" xmlns="http://www.w3.org/2000/svg">
<path d="M17.3333 19.0026V21.7893C18.5401 21.3626 19.8316 21.2317 21.0994 21.4076C22.3672 21.5835 23.5744 22.0611 24.6194 22.8002C25.6644 23.5393 26.5168 24.5183 27.1051 25.6551C27.6933 26.7919 28.0002 28.0533 28 29.3333L30.6666 29.3319C30.667 27.7038 30.2947 26.0971 29.5782 24.6351C28.8617 23.1731 27.82 21.8945 26.533 20.8973C25.246 19.9001 23.7477 19.2108 22.1531 18.8821C20.5585 18.5535 18.9097 18.5942 17.3333 19.0013V19.0026ZM20 17.3333C24.42 17.3333 28 13.7533 28 9.33325C28 4.91325 24.42 1.33325 20 1.33325C15.58 1.33325 12 4.91325 12 9.33325C12 13.7533 15.58 17.3333 20 17.3333ZM20 14.6666C17.0533 14.6666 14.6666 12.2799 14.6666 9.33325C14.6666 6.38659 17.0533 3.99992 20 3.99992C22.9466 3.99992 25.3333 6.38659 25.3333 9.33325C25.3333 12.2799 22.9466 14.6666 20 14.6666ZM12 22.6666V18.6666H9.33329V22.6666H5.33329V25.3333H9.33329V29.3333H12V25.3333H16V22.6666H12Z" fill="#FD5201"/>
</svg>
