<svg width="64" height="64" viewBox="0 0 64 64" fill="none" xmlns="http://www.w3.org/2000/svg">
<path d="M0 8C0 3.58172 3.58172 0 8 0H48.094C50.2702 0 52.3524 0.8865 53.8607 2.45513L61.7667 10.6773C63.1996 12.1676 64 14.1548 64 16.2222V56C64 60.4183 60.4183 64 56 64H8C3.58172 64 0 60.4183 0 56V8Z" fill="#3C0061"/>
<path d="M24.125 29.75C26.8103 29.75 29.3856 30.8167 31.2845 32.7155C33.1833 34.6143 34.25 37.1897 34.25 39.875C34.25 42.5603 33.1833 45.1356 31.2845 47.0345C29.3856 48.9333 26.8103 50 24.125 50C21.4397 50 18.8643 48.9333 16.9655 47.0345C15.0667 45.1357 14 42.5603 14 39.875C14 37.1897 15.0667 34.6144 16.9655 32.7155C18.8643 30.8167 21.4397 29.75 24.125 29.75ZM19.625 38.75C19.3266 38.75 19.0405 38.8685 18.8295 39.0795C18.6185 39.2905 18.5 39.5766 18.5 39.875C18.5 40.1734 18.6185 40.4595 18.8295 40.6705C19.0405 40.8815 19.3266 41 19.625 41L23 41L23 44.375C23 44.6734 23.1185 44.9595 23.3295 45.1705C23.5405 45.3815 23.8266 45.5 24.125 45.5C24.4234 45.5 24.7095 45.3815 24.9205 45.1705C25.1315 44.9595 25.25 44.6734 25.25 44.375L25.25 41L28.625 41C28.9234 41 29.2095 40.8815 29.4205 40.6705C29.6315 40.4595 29.75 40.1734 29.75 39.875C29.75 39.5766 29.6315 39.2905 29.4205 39.0795C29.2095 38.8685 28.9234 38.75 28.625 38.75L25.25 38.75L25.25 35.375C25.25 35.0766 25.1315 34.7905 24.9205 34.5795C24.7095 34.3685 24.4234 34.25 24.125 34.25C23.8266 34.25 23.5405 34.3685 23.3295 34.5795C23.1185 34.7905 23 35.0766 23 35.375L23 38.75L19.625 38.75ZM36.5 39.875C36.5004 37.7568 35.9571 35.6739 34.922 33.8258C33.887 31.9777 32.3949 30.4262 30.5886 29.3199C28.7823 28.2135 26.7222 27.5893 24.6056 27.507C22.489 27.4248 20.3867 27.8872 18.5 28.85L18.5 20.75C18.4999 19.0283 19.1577 17.3716 20.3389 16.1189C21.52 14.8662 23.1352 14.1123 24.854 14.0112L25.25 14L34.25 14L34.25 23L34.2612 23.396C34.3582 25.0466 35.0575 26.6042 36.2267 27.7733C37.3958 28.9425 38.9534 29.6418 40.604 29.7387L41 29.75L50 29.75L50 38.75C50.0001 40.4717 49.3423 42.1284 48.1611 43.3811C46.98 44.6338 45.3648 45.3877 43.646 45.4887L43.25 45.5L35.15 45.5C36.014 43.8125 36.5 41.9 36.5 39.875ZM36.5022 14.225C37.0373 14.3994 37.5349 14.6726 37.9692 15.0305L38.2842 15.3185L48.6815 25.7157C49.1855 26.2197 49.559 26.8317 49.7772 27.4977L41 27.5L40.6625 27.4887C39.5911 27.4082 38.5839 26.947 37.8229 26.1886C37.062 25.4301 36.5975 24.4244 36.5135 23.3532L36.5 23L36.5022 14.225Z" fill="#FC5201"/>
</svg>
