<svg width="28" height="28" viewBox="0 0 28 28" fill="none" xmlns="http://www.w3.org/2000/svg">
<path fill-rule="evenodd" clip-rule="evenodd" d="M15.1371 2.14379L26.5559 13.5625C26.7606 13.765 26.9231 14.006 27.034 14.2716C27.1449 14.5373 27.202 14.8223 27.202 15.1102C27.202 15.3981 27.1449 15.6831 27.034 15.9488C26.9231 16.2144 26.7606 16.4554 26.5559 16.6579L16.6574 26.5563C16.455 26.761 16.214 26.9235 15.9483 27.0344C15.6827 27.1453 15.3977 27.2024 15.1098 27.2024C14.8219 27.2024 14.5369 27.1453 14.2712 27.0344C14.0056 26.9235 13.7645 26.761 13.5621 26.5563L2.14337 15.1375C1.88671 14.8834 1.69733 14.5693 1.59231 14.2237C1.4873 13.8781 1.46994 13.5118 1.54181 13.1578L3.30275 4.34222C3.35523 4.08634 3.48166 3.85148 3.66637 3.66678C3.85107 3.48208 4.08593 3.35564 4.34181 3.30316L13.1574 1.54222C13.5114 1.47035 13.8777 1.48771 14.2233 1.59273C14.5689 1.69774 14.883 1.88712 15.1371 2.14379ZM4.16681 13.4422L15.1152 24.3907L24.3903 15.1157L13.4418 4.16722L5.709 5.70941L4.16681 13.4422ZM10.6422 10.1598C10.8345 9.872 10.9371 9.53365 10.9371 9.18754C10.9371 8.72341 10.7527 8.27829 10.4246 7.9501C10.0964 7.62191 9.65125 7.43754 9.18712 7.43754C8.84101 7.43754 8.50266 7.54017 8.21488 7.73246C7.92709 7.92476 7.70279 8.19807 7.57033 8.51784C7.43788 8.83761 7.40323 9.18948 7.47075 9.52894C7.53827 9.86841 7.70495 10.1802 7.94969 10.425C8.19443 10.6697 8.50625 10.8364 8.84572 10.9039C9.18518 10.9714 9.53705 10.9368 9.85682 10.8043C10.1766 10.6719 10.4499 10.4476 10.6422 10.1598ZM12.2501 10.9667L13.8834 9.33336L20.3001 15.75L18.6667 17.3834L12.2501 10.9667ZM9.33341 13.8834L10.9667 12.25L15.6334 16.9167L14.0001 18.55L9.33341 13.8834Z" fill="#444444"/>
</svg>
