<svg width="28" height="28" viewBox="0 0 28 28" fill="none" xmlns="http://www.w3.org/2000/svg">
<path d="M8.16675 24.5001C7.52508 24.5001 6.97597 24.2718 6.51941 23.8152C6.06208 23.3579 5.83341 22.8084 5.83341 22.1667V7.00006H4.66675V4.66673H10.5001V3.50006H17.5001V4.66673H23.3334V7.00006H22.1667V22.1667C22.1667 22.8084 21.9385 23.3579 21.4819 23.8152C21.0246 24.2718 20.4751 24.5001 19.8334 24.5001H8.16675ZM19.8334 7.00006H8.16675V22.1667H19.8334V7.00006ZM10.5001 19.8334H12.8334V9.33339H10.5001V19.8334ZM15.1667 19.8334H17.5001V9.33339H15.1667V19.8334ZM8.16675 7.00006V22.1667V7.00006Z" fill="#C80000"/>
</svg>
