<svg width="32" height="32" viewBox="0 0 32 32" fill="none" xmlns="http://www.w3.org/2000/svg">
<path d="M26.2667 17.2L18.6667 24.8H15.6V21.7334L23.2 14.1334L26.2667 17.2ZM30.8 16.1334C30.8 16.5334 30.4 16.9334 30 17.3334L26.6667 20.6667L25.4667 19.4667L28.9334 16L28.1334 15.2L27.2 16.1334L24.1334 13.0667L27.0667 10.2667C27.3334 10 27.8667 10 28.2667 10.2667L30.1334 12.1334C30.4 12.4 30.4 12.9334 30.1334 13.3334C29.8667 13.6 29.6 13.8667 29.6 14.1334C29.6 14.4 29.8667 14.6667 30.1334 14.9334C30.5334 15.3334 30.9334 15.7334 30.8 16.1334ZM4.00004 26.6667V5.33335H13.3334V12H20V14L22.6667 11.3334V10.6667L14.6667 2.66669H4.00004C2.53337 2.66669 1.33337 3.86669 1.33337 5.33335V26.6667C1.33337 28.1334 2.53337 29.3334 4.00004 29.3334H20C21.4667 29.3334 22.6667 28.1334 22.6667 26.6667H4.00004ZM14.6667 22.8C14.4 22.8 14.1334 22.9334 14 22.9334L13.3334 20H11.3334L8.53337 22.2667L9.33337 18.6667H7.33337L6.00004 25.3334H8.00004L11.8667 21.8667L12.6667 24.9334H14L14.6667 24.8V22.8Z" fill="#FD5201"/>
</svg>
