<svg width="24" height="24" viewBox="0 0 24 24" fill="none" xmlns="http://www.w3.org/2000/svg">
<path d="M19.6355 0.756803C19.0744 0.192178 18.1647 0.192182 17.6036 0.756804L16.2704 2.09844C15.7093 2.66306 15.7093 3.5785 16.2704 4.14312L19.8806 7.77602C20.4417 8.34064 21.3514 8.34064 21.9125 7.77602L23.2458 6.43439C23.8069 5.86976 23.8069 4.95433 23.2458 4.38971L19.6355 0.756803Z" fill="#444444"/>
<path fill-rule="evenodd" clip-rule="evenodd" d="M14.7991 5.47695C14.2381 4.91233 13.3283 4.91232 12.7672 5.47695L0.754074 17.5656C0.484623 17.8368 0.333252 18.2045 0.333252 18.588V22.2209C0.333252 23.0194 0.97652 23.6667 1.77003 23.6667H5.38024C5.7613 23.6667 6.12675 23.5143 6.3962 23.2432L18.4094 11.1545C18.9705 10.5899 18.9705 9.67448 18.4094 9.10985L14.7991 5.47695ZM2.94558 19.0779L13.7832 8.17221L15.7309 10.1322L4.89332 21.0379H2.94558V19.0779Z" fill="#444444"/>
</svg>
