<svg width="20" height="20" viewBox="0 0 20 20" fill="none" xmlns="http://www.w3.org/2000/svg">
<g clip-path="url(#clip0_161_2752)">
<path d="M11.6663 11.8766V13.6183C10.9121 13.3516 10.1049 13.2698 9.31251 13.3797C8.52012 13.4897 7.76567 13.7882 7.11253 14.2501C6.45939 14.712 5.92663 15.3239 5.55898 16.0344C5.19133 16.7449 4.99952 17.5333 4.99967 18.3333L3.33301 18.3324C3.33275 17.3148 3.56544 16.3107 4.01326 15.3969C4.46107 14.4832 5.11212 13.684 5.91652 13.0608C6.72092 12.4375 7.65732 12.0067 8.65397 11.8013C9.65062 11.5959 10.6811 11.6222 11.6663 11.8766ZM9.99967 10.8333C7.23717 10.8333 4.99967 8.59575 4.99967 5.83325C4.99967 3.07075 7.23717 0.833252 9.99967 0.833252C12.7622 0.833252 14.9997 3.07075 14.9997 5.83325C14.9997 8.59575 12.7622 10.8333 9.99967 10.8333ZM9.99967 9.16658C11.8413 9.16658 13.333 7.67492 13.333 5.83325C13.333 3.99159 11.8413 2.49992 9.99967 2.49992C8.15801 2.49992 6.66634 3.99159 6.66634 5.83325C6.66634 7.67492 8.15801 9.16658 9.99967 9.16658Z" fill="#FD5201"/>
<path d="M10.833 19.6319V17.3889L16.1939 11.7944L18.3434 14.0375L12.9824 19.6319H10.833ZM19.0514 13.2986L16.902 11.0556L17.6353 10.2903C17.8207 10.0968 18.0568 10 18.3434 10C18.6299 10 18.866 10.0968 19.0514 10.2903L19.7847 11.0556C19.9702 11.2491 20.0629 11.4954 20.0629 11.7944C20.0629 12.0935 19.9702 12.3398 19.7847 12.5333L19.0514 13.2986Z" fill="#FD5201"/>
</g>
<defs>
<clipPath id="clip0_161_2752">
<rect width="20" height="20" fill="white"/>
</clipPath>
</defs>
</svg>
