<svg width="24" height="24" viewBox="0 0 24 24" fill="none" xmlns="http://www.w3.org/2000/svg">
<path d="M11.9241 22V19.3083L18.3572 12.595L20.9366 15.2867L14.5034 22H11.9241ZM1 15.6667V13.1333H9.49655V15.6667H1ZM21.7862 14.4L19.2069 11.7083L20.0869 10.79C20.3094 10.5578 20.5926 10.4417 20.9366 10.4417C21.2805 10.4417 21.5637 10.5578 21.7862 10.79L22.6662 11.7083C22.8887 11.9406 23 12.2361 23 12.595C23 12.9539 22.8887 13.2494 22.6662 13.4817L21.7862 14.4ZM1 10.6V8.06667H14.3517V10.6H1ZM1 5.53333V3H14.3517V5.53333H1Z" fill="#444444"/>
</svg>
