<svg width="24" height="24" viewBox="0 0 24 24" fill="none" xmlns="http://www.w3.org/2000/svg">
<path d="M12 1.875C9.99747 1.875 8.0399 2.46882 6.37486 3.58137C4.70981 4.69392 3.41206 6.27523 2.64572 8.12533C1.87939 9.97543 1.67888 12.0112 2.06955 13.9753C2.46023 15.9393 3.42454 17.7435 4.84055 19.1595C6.25656 20.5755 8.06066 21.5398 10.0247 21.9305C11.9888 22.3211 14.0246 22.1206 15.8747 21.3543C17.7248 20.5879 19.3061 19.2902 20.4186 17.6251C21.5312 15.9601 22.125 14.0025 22.125 12C22.1225 9.31544 21.055 6.74155 19.1567 4.84329C17.2585 2.94502 14.6846 1.87748 12 1.875ZM12 19.875C10.4425 19.875 8.91993 19.4131 7.62489 18.5478C6.32985 17.6825 5.32049 16.4526 4.72445 15.0136C4.12841 13.5747 3.97246 11.9913 4.27632 10.4637C4.58018 8.93606 5.3302 7.53287 6.43154 6.43153C7.53288 5.3302 8.93607 4.58017 10.4637 4.27632C11.9913 3.97246 13.5747 4.12841 15.0136 4.72445C16.4526 5.32049 17.6825 6.32985 18.5478 7.62488C19.4131 8.91992 19.875 10.4425 19.875 12C19.8725 14.0878 19.042 16.0894 17.5657 17.5657C16.0894 19.042 14.0878 19.8725 12 19.875ZM7.125 10.125C7.125 9.82833 7.21298 9.53832 7.3778 9.29165C7.54262 9.04497 7.77689 8.85271 8.05098 8.73918C8.32507 8.62565 8.62667 8.59594 8.91764 8.65382C9.20861 8.7117 9.47589 8.85456 9.68566 9.06434C9.89544 9.27412 10.0383 9.54139 10.0962 9.83236C10.1541 10.1233 10.1244 10.4249 10.0108 10.699C9.89729 10.9731 9.70503 11.2074 9.45836 11.3722C9.21169 11.537 8.92168 11.625 8.625 11.625C8.22718 11.625 7.84565 11.467 7.56434 11.1857C7.28304 10.9044 7.125 10.5228 7.125 10.125ZM17.625 10.125C17.625 10.4234 17.5065 10.7095 17.2955 10.9205C17.0845 11.1315 16.7984 11.25 16.5 11.25H14.25C13.9516 11.25 13.6655 11.1315 13.4545 10.9205C13.2435 10.7095 13.125 10.4234 13.125 10.125C13.125 9.82663 13.2435 9.54048 13.4545 9.3295C13.6655 9.11853 13.9516 9 14.25 9H16.5C16.7984 9 17.0845 9.11853 17.2955 9.3295C17.5065 9.54048 17.625 9.82663 17.625 10.125ZM16.875 14.8125C16.3799 15.6669 15.6689 16.3762 14.8133 16.8693C13.9577 17.3623 12.9875 17.6219 12 17.6219C11.0125 17.6219 10.0423 17.3623 9.18672 16.8693C8.33111 16.3762 7.62013 15.6669 7.125 14.8125C6.97582 14.5539 6.93547 14.2467 7.01283 13.9583C7.09019 13.67 7.27892 13.4242 7.5375 13.275C7.79609 13.1258 8.10335 13.0855 8.39169 13.1628C8.68002 13.2402 8.92582 13.4289 9.075 13.6875C9.37093 14.2016 9.79712 14.6286 10.3106 14.9255C10.8241 15.2224 11.4068 15.3788 12 15.3788C12.5932 15.3788 13.1759 15.2224 13.6894 14.9255C14.2029 14.6286 14.6291 14.2016 14.925 13.6875C15.0742 13.4289 15.32 13.2402 15.6083 13.1628C15.8967 13.0855 16.2039 13.1258 16.4625 13.275C16.7211 13.4242 16.9098 13.67 16.9872 13.9583C17.0645 14.2467 17.0242 14.5539 16.875 14.8125Z" fill="#3C0061"/>
</svg>
