<svg width="32" height="32" viewBox="0 0 32 32" fill="none" xmlns="http://www.w3.org/2000/svg">
<path d="M25.1431 27.4285H22.8574V25.1428C22.8574 24.2334 22.4962 23.3614 21.8532 22.7184C21.2102 22.0754 20.3382 21.7142 19.4289 21.7142H12.5717C11.6624 21.7142 10.7903 22.0754 10.1473 22.7184C9.50436 23.3614 9.14314 24.2334 9.14314 25.1428V27.4285H6.85742V25.1428C6.85742 23.6272 7.45946 22.1738 8.5311 21.1021C9.60273 20.0305 11.0562 19.4285 12.5717 19.4285H19.4289C20.9444 19.4285 22.3978 20.0305 23.4695 21.1021C24.5411 22.1738 25.1431 23.6272 25.1431 25.1428V27.4285ZM16.0003 17.1428C15.0998 17.1428 14.2081 16.9654 13.3762 16.6208C12.5442 16.2762 11.7883 15.7711 11.1515 15.1343C10.5148 14.4976 10.0097 13.7417 9.6651 12.9097C9.3205 12.0778 9.14314 11.1861 9.14314 10.2856C9.14314 9.38512 9.3205 8.49344 9.6651 7.66149C10.0097 6.82955 10.5148 6.07362 11.1515 5.43688C11.7883 4.80013 12.5442 4.29504 13.3762 3.95044C14.2081 3.60583 15.0998 3.42847 16.0003 3.42847C17.8189 3.42847 19.563 4.15091 20.849 5.43688C22.135 6.72284 22.8574 8.46698 22.8574 10.2856C22.8574 12.1042 22.135 13.8484 20.849 15.1343C19.563 16.4203 17.8189 17.1428 16.0003 17.1428ZM16.0003 14.857C17.2127 14.857 18.3755 14.3754 19.2328 13.5181C20.0901 12.6608 20.5717 11.498 20.5717 10.2856C20.5717 9.07319 20.0901 7.91043 19.2328 7.05312C18.3755 6.19581 17.2127 5.71418 16.0003 5.71418C14.7879 5.71418 13.6251 6.19581 12.7678 7.05312C11.9105 7.91043 11.4289 9.07319 11.4289 10.2856C11.4289 11.498 11.9105 12.6608 12.7678 13.5181C13.6251 14.3754 14.7879 14.857 16.0003 14.857Z" fill="#FD5201"/>
</svg>
