<svg width="28" height="28" viewBox="0 0 28 28" fill="none" xmlns="http://www.w3.org/2000/svg">
<path d="M16.3334 16.6274V19.0657C15.2775 18.6924 14.1474 18.5779 13.0381 18.7318C11.9287 18.8857 10.8725 19.3036 9.95809 19.9503C9.04369 20.597 8.29782 21.4536 7.7831 22.4483C7.26839 23.443 6.99987 24.5467 7.00008 25.6667L4.66675 25.6655C4.66639 24.2409 4.99216 22.8351 5.6191 21.5558C6.24604 20.2765 7.15751 19.1578 8.28367 18.2852C9.40983 17.4127 10.7208 16.8095 12.1161 16.5219C13.5114 16.2344 14.954 16.27 16.3334 16.6262V16.6274ZM14.0001 15.1667C10.1326 15.1667 7.00008 12.0342 7.00008 8.16669C7.00008 4.29919 10.1326 1.16669 14.0001 1.16669C17.8676 1.16669 21.0001 4.29919 21.0001 8.16669C21.0001 12.0342 17.8676 15.1667 14.0001 15.1667ZM14.0001 12.8334C16.5784 12.8334 18.6667 10.745 18.6667 8.16669C18.6667 5.58835 16.5784 3.50002 14.0001 3.50002C11.4217 3.50002 9.33342 5.58835 9.33342 8.16669C9.33342 10.745 11.4217 12.8334 14.0001 12.8334ZM20.7586 23.233L24.8827 19.1089L26.5336 20.7585L20.7586 26.5335L16.6332 22.4082L18.2841 20.7585L20.7574 23.233H20.7586Z" fill="#444444"/>
</svg>
