<svg width="109" height="109" viewBox="0 0 109 109" fill="none" xmlns="http://www.w3.org/2000/svg">
<path fill-rule="evenodd" clip-rule="evenodd" d="M38.5 0C34.9101 0 32 2.91015 32 6.5V32H6.5C2.91015 32 0 34.9102 0 38.5C0 42.0899 2.91015 45 6.5 45H32V70.5V86.5C32 90.0899 34.9101 93 38.5 93C42.0899 93 45 90.0899 45 86.5V77H64V102.5C64 106.09 66.9101 109 70.5 109C74.0899 109 77 106.09 77 102.5V77H102.5C106.09 77 109 74.0899 109 70.5C109 66.9101 106.09 64 102.5 64H77V38.5V22.5C77 18.9101 74.0899 16 70.5 16C66.9101 16 64 18.9101 64 22.5V32H45V6.5C45 2.91015 42.0899 0 38.5 0ZM64 64V45H45V64H64Z" fill="#FD5201"/>
</svg>
