<svg width="32" height="32" viewBox="0 0 32 32" fill="none" xmlns="http://www.w3.org/2000/svg">
<path d="M7.99967 25.3333H11.9997V17.3333H19.9997V25.3333H23.9997V13.3333L15.9997 7.33334L7.99967 13.3333V25.3333ZM7.99967 28C7.26634 28 6.63879 27.7391 6.11701 27.2173C5.59434 26.6947 5.33301 26.0667 5.33301 25.3333V13.3333C5.33301 12.9111 5.42767 12.5111 5.61701 12.1333C5.80545 11.7556 6.06634 11.4444 6.39967 11.2L14.3997 5.20001C14.6441 5.02223 14.8997 4.88889 15.1663 4.8C15.433 4.71112 15.7108 4.66667 15.9997 4.66667C16.2886 4.66667 16.5663 4.71112 16.833 4.8C17.0997 4.88889 17.3552 5.02223 17.5997 5.20001L25.5997 11.2C25.933 11.4444 26.1943 11.7556 26.3837 12.1333C26.5721 12.5111 26.6663 12.9111 26.6663 13.3333V25.3333C26.6663 26.0667 26.4055 26.6947 25.8837 27.2173C25.361 27.7391 24.733 28 23.9997 28H17.333V20H14.6663V28H7.99967Z" fill="#3C0061"/>
</svg>
