<svg width="380" height="199" viewBox="0 0 380 199" fill="none" xmlns="http://www.w3.org/2000/svg">
<path d="M16 6C16 2.6863 18.6863 0 22 0H358C361.314 0 364 2.68629 364 6V193C364 196.314 361.314 199 358 199H22C18.6863 199 16 196.314 16 193V6Z" fill="#F7F7F7"/>
<path d="M193.333 94.3333C193.333 96.6667 193.767 98.9 194.5 101H166.667C164.899 101 163.203 100.298 161.953 99.0474C160.702 97.7971 160 96.1014 160 94.3333V47.6667C160 44 163 41 166.667 41H213.333C215.101 41 216.797 41.7024 218.047 42.9526C219.298 44.2029 220 45.8986 220 47.6667V75.5C217.9 74.7667 215.667 74.3333 213.333 74.3333V47.6667H166.667V94.3333H193.333ZM187.367 83.7667L180.833 75.9L171.667 87.6667H194.5C195.833 83.9333 198.233 80.7 201.333 78.3667L196.533 71.9667L187.367 83.7667ZM225.133 87.2667L220.4 82.5667L213.333 89.6333L206.267 82.5667L201.567 87.2667L208.633 94.3333L201.567 101.4L206.267 106.133L213.333 99.0333L220.4 106.133L225.133 101.4L218.033 94.3333L225.133 87.2667Z" fill="#444444"/>
<path d="M111.688 125.848V137H110.232V125.848H111.688Z" fill="#444444"/>
<path d="M124.714 128.072C125.396 128.072 126.004 128.216 126.537 128.504C127.071 128.781 127.492 129.203 127.801 129.768C128.111 130.333 128.266 131.021 128.266 131.832V137H126.826V132.04C126.826 131.165 126.607 130.499 126.17 130.04C125.743 129.571 125.161 129.336 124.425 129.336C123.668 129.336 123.065 129.581 122.618 130.072C122.17 130.552 121.946 131.251 121.946 132.168V137H120.506V132.04C120.506 131.165 120.287 130.499 119.85 130.04C119.423 129.571 118.841 129.336 118.105 129.336C117.348 129.336 116.745 129.581 116.298 130.072C115.85 130.552 115.626 131.251 115.626 132.168V137H114.17V128.232H115.626V129.496C115.914 129.037 116.297 128.685 116.777 128.44C117.268 128.195 117.807 128.072 118.394 128.072C119.13 128.072 119.78 128.237 120.345 128.568C120.911 128.899 121.332 129.384 121.609 130.024C121.855 129.405 122.26 128.925 122.826 128.584C123.391 128.243 124.02 128.072 124.714 128.072Z" fill="#444444"/>
<path d="M130.11 132.584C130.11 131.688 130.291 130.904 130.654 130.232C131.017 129.549 131.513 129.021 132.142 128.648C132.782 128.275 133.491 128.088 134.27 128.088C135.038 128.088 135.705 128.253 136.27 128.584C136.835 128.915 137.257 129.331 137.534 129.832V128.232H139.006V137H137.534V135.368C137.246 135.88 136.814 136.307 136.238 136.648C135.673 136.979 135.011 137.144 134.254 137.144C133.475 137.144 132.771 136.952 132.142 136.568C131.513 136.184 131.017 135.645 130.654 134.952C130.291 134.259 130.11 133.469 130.11 132.584ZM137.534 132.6C137.534 131.939 137.401 131.363 137.134 130.872C136.867 130.381 136.505 130.008 136.046 129.752C135.598 129.485 135.102 129.352 134.558 129.352C134.014 129.352 133.518 129.48 133.07 129.736C132.622 129.992 132.265 130.365 131.998 130.856C131.731 131.347 131.598 131.923 131.598 132.584C131.598 133.256 131.731 133.843 131.998 134.344C132.265 134.835 132.622 135.213 133.07 135.48C133.518 135.736 134.014 135.864 134.558 135.864C135.102 135.864 135.598 135.736 136.046 135.48C136.505 135.213 136.867 134.835 137.134 134.344C137.401 133.843 137.534 133.261 137.534 132.6Z" fill="#444444"/>
<path d="M145.082 128.088C145.84 128.088 146.501 128.253 147.066 128.584C147.642 128.915 148.069 129.331 148.346 129.832V128.232H149.818V137.192C149.818 137.992 149.648 138.701 149.306 139.32C148.965 139.949 148.474 140.44 147.834 140.792C147.205 141.144 146.469 141.32 145.626 141.32C144.474 141.32 143.514 141.048 142.746 140.504C141.978 139.96 141.525 139.219 141.386 138.28H142.826C142.986 138.813 143.317 139.24 143.818 139.56C144.32 139.891 144.922 140.056 145.626 140.056C146.426 140.056 147.077 139.805 147.578 139.304C148.09 138.803 148.346 138.099 148.346 137.192V135.352C148.058 135.864 147.632 136.291 147.066 136.632C146.501 136.973 145.84 137.144 145.082 137.144C144.304 137.144 143.594 136.952 142.954 136.568C142.325 136.184 141.829 135.645 141.466 134.952C141.104 134.259 140.922 133.469 140.922 132.584C140.922 131.688 141.104 130.904 141.466 130.232C141.829 129.549 142.325 129.021 142.954 128.648C143.594 128.275 144.304 128.088 145.082 128.088ZM148.346 132.6C148.346 131.939 148.213 131.363 147.946 130.872C147.68 130.381 147.317 130.008 146.858 129.752C146.41 129.485 145.914 129.352 145.37 129.352C144.826 129.352 144.33 129.48 143.882 129.736C143.434 129.992 143.077 130.365 142.81 130.856C142.544 131.347 142.41 131.923 142.41 132.584C142.41 133.256 142.544 133.843 142.81 134.344C143.077 134.835 143.434 135.213 143.882 135.48C144.33 135.736 144.826 135.864 145.37 135.864C145.914 135.864 146.41 135.736 146.858 135.48C147.317 135.213 147.68 134.835 147.946 134.344C148.213 133.843 148.346 133.261 148.346 132.6Z" fill="#444444"/>
<path d="M160.279 132.28C160.279 132.557 160.263 132.851 160.231 133.16H153.223C153.276 134.024 153.57 134.701 154.103 135.192C154.647 135.672 155.303 135.912 156.071 135.912C156.7 135.912 157.223 135.768 157.639 135.48C158.066 135.181 158.364 134.787 158.535 134.296H160.103C159.868 135.139 159.399 135.827 158.695 136.36C157.991 136.883 157.116 137.144 156.071 137.144C155.239 137.144 154.492 136.957 153.831 136.584C153.18 136.211 152.668 135.683 152.295 135C151.922 134.307 151.735 133.507 151.735 132.6C151.735 131.693 151.916 130.899 152.279 130.216C152.642 129.533 153.148 129.011 153.799 128.648C154.46 128.275 155.218 128.088 156.071 128.088C156.903 128.088 157.639 128.269 158.279 128.632C158.919 128.995 159.41 129.496 159.751 130.136C160.103 130.765 160.279 131.48 160.279 132.28ZM158.775 131.976C158.775 131.421 158.652 130.947 158.407 130.552C158.162 130.147 157.826 129.843 157.399 129.64C156.983 129.427 156.519 129.32 156.007 129.32C155.271 129.32 154.642 129.555 154.119 130.024C153.607 130.493 153.314 131.144 153.239 131.976H158.775Z" fill="#444444"/>
<path d="M170.034 129.432H168.194V137H166.738V129.432H165.602V128.232H166.738V127.608C166.738 126.627 166.989 125.912 167.49 125.464C168.002 125.005 168.818 124.776 169.938 124.776V125.992C169.298 125.992 168.845 126.12 168.578 126.376C168.322 126.621 168.194 127.032 168.194 127.608V128.232H170.034V129.432Z" fill="#444444"/>
<path d="M171.188 132.584C171.188 131.688 171.369 130.904 171.732 130.232C172.095 129.549 172.591 129.021 173.22 128.648C173.86 128.275 174.569 128.088 175.348 128.088C176.116 128.088 176.783 128.253 177.348 128.584C177.913 128.915 178.335 129.331 178.612 129.832V128.232H180.084V137H178.612V135.368C178.324 135.88 177.892 136.307 177.316 136.648C176.751 136.979 176.089 137.144 175.332 137.144C174.553 137.144 173.849 136.952 173.22 136.568C172.591 136.184 172.095 135.645 171.732 134.952C171.369 134.259 171.188 133.469 171.188 132.584ZM178.612 132.6C178.612 131.939 178.479 131.363 178.212 130.872C177.945 130.381 177.583 130.008 177.124 129.752C176.676 129.485 176.18 129.352 175.636 129.352C175.092 129.352 174.596 129.48 174.148 129.736C173.7 129.992 173.343 130.365 173.076 130.856C172.809 131.347 172.676 131.923 172.676 132.584C172.676 133.256 172.809 133.843 173.076 134.344C173.343 134.835 173.7 135.213 174.148 135.48C174.596 135.736 175.092 135.864 175.636 135.864C176.18 135.864 176.676 135.736 177.124 135.48C177.583 135.213 177.945 134.835 178.212 134.344C178.479 133.843 178.612 133.261 178.612 132.6Z" fill="#444444"/>
<path d="M183.296 126.808C183.019 126.808 182.785 126.712 182.592 126.52C182.4 126.328 182.305 126.093 182.305 125.816C182.305 125.539 182.4 125.304 182.592 125.112C182.785 124.92 183.019 124.824 183.296 124.824C183.563 124.824 183.787 124.92 183.969 125.112C184.161 125.304 184.257 125.539 184.257 125.816C184.257 126.093 184.161 126.328 183.969 126.52C183.787 126.712 183.563 126.808 183.296 126.808ZM184.001 128.232V137H182.544V128.232H184.001Z" fill="#444444"/>
<path d="M187.938 125.16V137H186.482V125.16H187.938Z" fill="#444444"/>
<path d="M198.419 132.28C198.419 132.557 198.404 132.851 198.372 133.16H191.363C191.417 134.024 191.71 134.701 192.243 135.192C192.788 135.672 193.443 135.912 194.212 135.912C194.841 135.912 195.363 135.768 195.779 135.48C196.206 135.181 196.505 134.787 196.676 134.296H198.243C198.009 135.139 197.539 135.827 196.835 136.36C196.132 136.883 195.257 137.144 194.212 137.144C193.38 137.144 192.633 136.957 191.971 136.584C191.321 136.211 190.809 135.683 190.436 135C190.062 134.307 189.876 133.507 189.876 132.6C189.876 131.693 190.057 130.899 190.419 130.216C190.782 129.533 191.289 129.011 191.939 128.648C192.601 128.275 193.358 128.088 194.212 128.088C195.044 128.088 195.779 128.269 196.419 128.632C197.059 128.995 197.55 129.496 197.891 130.136C198.243 130.765 198.419 131.48 198.419 132.28ZM196.915 131.976C196.915 131.421 196.793 130.947 196.548 130.552C196.302 130.147 195.966 129.843 195.54 129.64C195.124 129.427 194.66 129.32 194.148 129.32C193.412 129.32 192.782 129.555 192.26 130.024C191.748 130.493 191.454 131.144 191.38 131.976H196.915Z" fill="#444444"/>
<path d="M199.797 132.584C199.797 131.688 199.979 130.904 200.341 130.232C200.704 129.549 201.2 129.021 201.829 128.648C202.469 128.275 203.184 128.088 203.973 128.088C204.656 128.088 205.291 128.248 205.877 128.568C206.464 128.877 206.912 129.288 207.221 129.8V125.16H208.693V137H207.221V135.352C206.933 135.875 206.507 136.307 205.941 136.648C205.376 136.979 204.715 137.144 203.957 137.144C203.179 137.144 202.469 136.952 201.829 136.568C201.2 136.184 200.704 135.645 200.341 134.952C199.979 134.259 199.797 133.469 199.797 132.584ZM207.221 132.6C207.221 131.939 207.088 131.363 206.821 130.872C206.555 130.381 206.192 130.008 205.733 129.752C205.285 129.485 204.789 129.352 204.245 129.352C203.701 129.352 203.205 129.48 202.757 129.736C202.309 129.992 201.952 130.365 201.685 130.856C201.419 131.347 201.285 131.923 201.285 132.584C201.285 133.256 201.419 133.843 201.685 134.344C201.952 134.835 202.309 135.213 202.757 135.48C203.205 135.736 203.701 135.864 204.245 135.864C204.789 135.864 205.285 135.736 205.733 135.48C206.192 135.213 206.555 134.835 206.821 134.344C207.088 133.843 207.221 133.261 207.221 132.6Z" fill="#444444"/>
<path d="M217.195 129.432V134.6C217.195 135.027 217.286 135.331 217.467 135.512C217.649 135.683 217.964 135.768 218.411 135.768H219.484V137H218.171C217.361 137 216.753 136.813 216.348 136.44C215.942 136.067 215.74 135.453 215.74 134.6V129.432H214.604V128.232H215.74V126.024H217.195V128.232H219.484V129.432H217.195Z" fill="#444444"/>
<path d="M225.072 137.144C224.25 137.144 223.504 136.957 222.832 136.584C222.17 136.211 221.648 135.683 221.264 135C220.89 134.307 220.704 133.507 220.704 132.6C220.704 131.704 220.896 130.915 221.28 130.232C221.674 129.539 222.208 129.011 222.88 128.648C223.552 128.275 224.304 128.088 225.136 128.088C225.968 128.088 226.72 128.275 227.392 128.648C228.064 129.011 228.592 129.533 228.976 130.216C229.37 130.899 229.568 131.693 229.568 132.6C229.568 133.507 229.365 134.307 228.96 135C228.565 135.683 228.026 136.211 227.344 136.584C226.661 136.957 225.904 137.144 225.072 137.144ZM225.072 135.864C225.594 135.864 226.085 135.741 226.544 135.496C227.002 135.251 227.37 134.883 227.648 134.392C227.936 133.901 228.08 133.304 228.08 132.6C228.08 131.896 227.941 131.299 227.664 130.808C227.386 130.317 227.024 129.955 226.576 129.72C226.128 129.475 225.642 129.352 225.12 129.352C224.586 129.352 224.096 129.475 223.648 129.72C223.21 129.955 222.858 130.317 222.592 130.808C222.325 131.299 222.192 131.896 222.192 132.6C222.192 133.315 222.32 133.917 222.576 134.408C222.842 134.899 223.194 135.267 223.632 135.512C224.069 135.747 224.549 135.864 225.072 135.864Z" fill="#444444"/>
<path d="M237.204 125.16V137H235.748V125.16H237.204Z" fill="#444444"/>
<path d="M243.509 137.144C242.688 137.144 241.941 136.957 241.269 136.584C240.608 136.211 240.085 135.683 239.701 135C239.328 134.307 239.141 133.507 239.141 132.6C239.141 131.704 239.333 130.915 239.717 130.232C240.112 129.539 240.645 129.011 241.317 128.648C241.989 128.275 242.741 128.088 243.573 128.088C244.405 128.088 245.157 128.275 245.829 128.648C246.501 129.011 247.029 129.533 247.413 130.216C247.808 130.899 248.005 131.693 248.005 132.6C248.005 133.507 247.802 134.307 247.397 135C247.002 135.683 246.464 136.211 245.781 136.584C245.098 136.957 244.341 137.144 243.509 137.144ZM243.509 135.864C244.032 135.864 244.522 135.741 244.981 135.496C245.44 135.251 245.808 134.883 246.085 134.392C246.373 133.901 246.517 133.304 246.517 132.6C246.517 131.896 246.378 131.299 246.101 130.808C245.824 130.317 245.461 129.955 245.013 129.72C244.565 129.475 244.08 129.352 243.557 129.352C243.024 129.352 242.533 129.475 242.085 129.72C241.648 129.955 241.296 130.317 241.029 130.808C240.762 131.299 240.629 131.896 240.629 132.6C240.629 133.315 240.757 133.917 241.013 134.408C241.28 134.899 241.632 135.267 242.069 135.512C242.506 135.747 242.986 135.864 243.509 135.864Z" fill="#444444"/>
<path d="M249.376 132.584C249.376 131.688 249.557 130.904 249.919 130.232C250.282 129.549 250.778 129.021 251.408 128.648C252.048 128.275 252.757 128.088 253.536 128.088C254.304 128.088 254.97 128.253 255.536 128.584C256.101 128.915 256.522 129.331 256.799 129.832V128.232H258.271V137H256.799V135.368C256.512 135.88 256.079 136.307 255.503 136.648C254.938 136.979 254.277 137.144 253.52 137.144C252.741 137.144 252.037 136.952 251.408 136.568C250.778 136.184 250.282 135.645 249.919 134.952C249.557 134.259 249.376 133.469 249.376 132.584ZM256.799 132.6C256.799 131.939 256.666 131.363 256.4 130.872C256.133 130.381 255.77 130.008 255.311 129.752C254.863 129.485 254.368 129.352 253.824 129.352C253.279 129.352 252.783 129.48 252.335 129.736C251.887 129.992 251.53 130.365 251.264 130.856C250.997 131.347 250.863 131.923 250.863 132.584C250.863 133.256 250.997 133.843 251.264 134.344C251.53 134.835 251.887 135.213 252.335 135.48C252.783 135.736 253.279 135.864 253.824 135.864C254.368 135.864 254.863 135.736 255.311 135.48C255.77 135.213 256.133 134.835 256.4 134.344C256.666 133.843 256.799 133.261 256.799 132.6Z" fill="#444444"/>
<path d="M260.188 132.584C260.188 131.688 260.369 130.904 260.732 130.232C261.095 129.549 261.591 129.021 262.22 128.648C262.86 128.275 263.575 128.088 264.364 128.088C265.047 128.088 265.681 128.248 266.268 128.568C266.855 128.877 267.303 129.288 267.612 129.8V125.16H269.084V137H267.612V135.352C267.324 135.875 266.897 136.307 266.332 136.648C265.767 136.979 265.105 137.144 264.348 137.144C263.569 137.144 262.86 136.952 262.22 136.568C261.591 136.184 261.095 135.645 260.732 134.952C260.369 134.259 260.188 133.469 260.188 132.584ZM267.612 132.6C267.612 131.939 267.479 131.363 267.212 130.872C266.945 130.381 266.583 130.008 266.124 129.752C265.676 129.485 265.18 129.352 264.636 129.352C264.092 129.352 263.596 129.48 263.148 129.736C262.7 129.992 262.343 130.365 262.076 130.856C261.809 131.347 261.676 131.923 261.676 132.584C261.676 133.256 261.809 133.843 262.076 134.344C262.343 134.835 262.7 135.213 263.148 135.48C263.596 135.736 264.092 135.864 264.636 135.864C265.18 135.864 265.676 135.736 266.124 135.48C266.583 135.213 266.945 134.835 267.212 134.344C267.479 133.843 267.612 133.261 267.612 132.6Z" fill="#444444"/>
<path d="M87.324 158.024C87.324 158.744 87.088 159.324 86.616 159.764C86.144 160.204 85.436 160.424 84.492 160.424H82.8V164H81.96V155.612H84.492C85.428 155.612 86.132 155.832 86.604 156.272C87.084 156.712 87.324 157.296 87.324 158.024ZM84.492 159.704C85.804 159.704 86.46 159.144 86.46 158.024C86.46 157.464 86.304 157.04 85.992 156.752C85.68 156.464 85.18 156.32 84.492 156.32H82.8V159.704H84.492Z" fill="#444444"/>
<path d="M89.5734 155.12V164H88.7334V155.12H89.5734Z" fill="#444444"/>
<path d="M97.4036 160.388C97.4036 160.676 97.3956 160.896 97.3796 161.048H91.9436C91.9676 161.544 92.0876 161.968 92.3036 162.32C92.5196 162.672 92.8036 162.94 93.1556 163.124C93.5076 163.3 93.8916 163.388 94.3076 163.388C94.8516 163.388 95.3076 163.256 95.6756 162.992C96.0516 162.728 96.2996 162.372 96.4196 161.924H97.3076C97.1476 162.564 96.8036 163.088 96.2756 163.496C95.7556 163.896 95.0996 164.096 94.3076 164.096C93.6916 164.096 93.1396 163.96 92.6516 163.688C92.1636 163.408 91.7796 163.016 91.4996 162.512C91.2276 162 91.0916 161.404 91.0916 160.724C91.0916 160.044 91.2276 159.448 91.4996 158.936C91.7716 158.424 92.1516 158.032 92.6396 157.76C93.1276 157.488 93.6836 157.352 94.3076 157.352C94.9316 157.352 95.4756 157.488 95.9396 157.76C96.4116 158.032 96.7716 158.4 97.0196 158.864C97.2756 159.32 97.4036 159.828 97.4036 160.388ZM96.5516 160.364C96.5596 159.876 96.4596 159.46 96.2516 159.116C96.0516 158.772 95.7756 158.512 95.4236 158.336C95.0716 158.16 94.6876 158.072 94.2716 158.072C93.6476 158.072 93.1156 158.272 92.6756 158.672C92.2356 159.072 91.9916 159.636 91.9436 160.364H96.5516Z" fill="#444444"/>
<path d="M98.5565 160.712C98.5565 160.04 98.6885 159.452 98.9525 158.948C99.2245 158.436 99.5965 158.044 100.068 157.772C100.548 157.492 101.088 157.352 101.688 157.352C102.312 157.352 102.848 157.496 103.296 157.784C103.752 158.072 104.08 158.44 104.28 158.888V157.448H105.12V164H104.28V162.548C104.072 162.996 103.74 163.368 103.284 163.664C102.836 163.952 102.3 164.096 101.676 164.096C101.084 164.096 100.548 163.956 100.068 163.676C99.5965 163.396 99.2245 163 98.9525 162.488C98.6885 161.976 98.5565 161.384 98.5565 160.712ZM104.28 160.724C104.28 160.196 104.172 159.732 103.956 159.332C103.74 158.932 103.444 158.624 103.068 158.408C102.7 158.192 102.292 158.084 101.844 158.084C101.38 158.084 100.964 158.188 100.596 158.396C100.228 158.604 99.9365 158.908 99.7205 159.308C99.5125 159.7 99.4085 160.168 99.4085 160.712C99.4085 161.248 99.5125 161.72 99.7205 162.128C99.9365 162.528 100.228 162.836 100.596 163.052C100.964 163.26 101.38 163.364 101.844 163.364C102.292 163.364 102.7 163.256 103.068 163.04C103.444 162.824 103.74 162.516 103.956 162.116C104.172 161.716 104.28 161.252 104.28 160.724Z" fill="#444444"/>
<path d="M109.294 164.096C108.542 164.096 107.926 163.924 107.446 163.58C106.974 163.228 106.71 162.752 106.654 162.152H107.518C107.558 162.52 107.73 162.82 108.034 163.052C108.346 163.276 108.762 163.388 109.282 163.388C109.738 163.388 110.094 163.28 110.35 163.064C110.614 162.848 110.746 162.58 110.746 162.26C110.746 162.036 110.674 161.852 110.53 161.708C110.386 161.564 110.202 161.452 109.978 161.372C109.762 161.284 109.466 161.192 109.09 161.096C108.602 160.968 108.206 160.84 107.902 160.712C107.598 160.584 107.338 160.396 107.122 160.148C106.914 159.892 106.81 159.552 106.81 159.128C106.81 158.808 106.906 158.512 107.098 158.24C107.29 157.968 107.562 157.752 107.914 157.592C108.266 157.432 108.666 157.352 109.114 157.352C109.818 157.352 110.386 157.532 110.818 157.892C111.25 158.244 111.482 158.732 111.514 159.356H110.674C110.65 158.972 110.498 158.664 110.218 158.432C109.946 158.192 109.57 158.072 109.09 158.072C108.666 158.072 108.322 158.172 108.058 158.372C107.794 158.572 107.662 158.82 107.662 159.116C107.662 159.372 107.738 159.584 107.89 159.752C108.05 159.912 108.246 160.04 108.478 160.136C108.71 160.224 109.022 160.324 109.414 160.436C109.886 160.564 110.262 160.688 110.542 160.808C110.822 160.928 111.062 161.104 111.262 161.336C111.462 161.568 111.566 161.876 111.574 162.26C111.574 162.612 111.478 162.928 111.286 163.208C111.094 163.48 110.826 163.696 110.482 163.856C110.138 164.016 109.742 164.096 109.294 164.096Z" fill="#444444"/>
<path d="M119.083 160.388C119.083 160.676 119.075 160.896 119.059 161.048H113.623C113.647 161.544 113.767 161.968 113.983 162.32C114.199 162.672 114.483 162.94 114.835 163.124C115.187 163.3 115.571 163.388 115.987 163.388C116.531 163.388 116.987 163.256 117.355 162.992C117.731 162.728 117.979 162.372 118.099 161.924H118.987C118.827 162.564 118.483 163.088 117.955 163.496C117.435 163.896 116.779 164.096 115.987 164.096C115.371 164.096 114.819 163.96 114.331 163.688C113.843 163.408 113.459 163.016 113.179 162.512C112.907 162 112.771 161.404 112.771 160.724C112.771 160.044 112.907 159.448 113.179 158.936C113.451 158.424 113.831 158.032 114.319 157.76C114.807 157.488 115.363 157.352 115.987 157.352C116.611 157.352 117.155 157.488 117.619 157.76C118.091 158.032 118.451 158.4 118.699 158.864C118.955 159.32 119.083 159.828 119.083 160.388ZM118.231 160.364C118.239 159.876 118.139 159.46 117.931 159.116C117.731 158.772 117.455 158.512 117.103 158.336C116.751 158.16 116.367 158.072 115.951 158.072C115.327 158.072 114.795 158.272 114.355 158.672C113.915 159.072 113.671 159.636 113.623 160.364H118.231Z" fill="#444444"/>
<path d="M132.553 157.448L130.501 164H129.661L127.849 158.504L126.037 164H125.185L123.133 157.448H123.985L125.617 163.148L127.453 157.448H128.293L130.105 163.16L131.725 157.448H132.553Z" fill="#444444"/>
<path d="M133.314 160.712C133.314 160.04 133.446 159.452 133.71 158.948C133.982 158.436 134.354 158.044 134.826 157.772C135.306 157.492 135.846 157.352 136.446 157.352C137.07 157.352 137.606 157.496 138.054 157.784C138.51 158.072 138.838 158.44 139.038 158.888V157.448H139.878V164H139.038V162.548C138.83 162.996 138.498 163.368 138.042 163.664C137.594 163.952 137.058 164.096 136.434 164.096C135.842 164.096 135.306 163.956 134.826 163.676C134.354 163.396 133.982 163 133.71 162.488C133.446 161.976 133.314 161.384 133.314 160.712ZM139.038 160.724C139.038 160.196 138.93 159.732 138.714 159.332C138.498 158.932 138.202 158.624 137.826 158.408C137.458 158.192 137.05 158.084 136.602 158.084C136.138 158.084 135.722 158.188 135.354 158.396C134.986 158.604 134.694 158.908 134.478 159.308C134.27 159.7 134.166 160.168 134.166 160.712C134.166 161.248 134.27 161.72 134.478 162.128C134.694 162.528 134.986 162.836 135.354 163.052C135.722 163.26 136.138 163.364 136.602 163.364C137.05 163.364 137.458 163.256 137.826 163.04C138.202 162.824 138.498 162.516 138.714 162.116C138.93 161.716 139.038 161.252 139.038 160.724Z" fill="#444444"/>
<path d="M142.216 156.212C142.048 156.212 141.904 156.152 141.784 156.032C141.664 155.912 141.604 155.764 141.604 155.588C141.604 155.412 141.664 155.268 141.784 155.156C141.904 155.036 142.048 154.976 142.216 154.976C142.384 154.976 142.528 155.036 142.648 155.156C142.768 155.268 142.828 155.412 142.828 155.588C142.828 155.764 142.768 155.912 142.648 156.032C142.528 156.152 142.384 156.212 142.216 156.212ZM142.636 157.448V164H141.796V157.448H142.636Z" fill="#444444"/>
<path d="M145.63 158.156V162.224C145.63 162.624 145.706 162.9 145.858 163.052C146.01 163.204 146.278 163.28 146.662 163.28H147.43V164H146.53C145.938 164 145.498 163.864 145.21 163.592C144.922 163.312 144.778 162.856 144.778 162.224V158.156H143.866V157.448H144.778V155.804H145.63V157.448H147.43V158.156H145.63Z" fill="#444444"/>
<path d="M151.724 160.712C151.724 160.04 151.856 159.452 152.12 158.948C152.392 158.436 152.764 158.044 153.236 157.772C153.716 157.492 154.256 157.352 154.856 157.352C155.48 157.352 156.016 157.496 156.464 157.784C156.92 158.072 157.248 158.44 157.448 158.888V157.448H158.288V164H157.448V162.548C157.24 162.996 156.908 163.368 156.452 163.664C156.004 163.952 155.468 164.096 154.844 164.096C154.252 164.096 153.716 163.956 153.236 163.676C152.764 163.396 152.392 163 152.12 162.488C151.856 161.976 151.724 161.384 151.724 160.712ZM157.448 160.724C157.448 160.196 157.34 159.732 157.124 159.332C156.908 158.932 156.612 158.624 156.236 158.408C155.868 158.192 155.46 158.084 155.012 158.084C154.548 158.084 154.132 158.188 153.764 158.396C153.396 158.604 153.104 158.908 152.888 159.308C152.68 159.7 152.576 160.168 152.576 160.712C152.576 161.248 152.68 161.72 152.888 162.128C153.104 162.528 153.396 162.836 153.764 163.052C154.132 163.26 154.548 163.364 155.012 163.364C155.46 163.364 155.868 163.256 156.236 163.04C156.612 162.824 156.908 162.516 157.124 162.116C157.34 161.716 157.448 161.252 157.448 160.724Z" fill="#444444"/>
<path d="M171.299 157.328C172.067 157.328 172.691 157.572 173.171 158.06C173.659 158.54 173.903 159.24 173.903 160.16V164H173.075V160.256C173.075 159.544 172.903 159 172.559 158.624C172.215 158.248 171.747 158.06 171.155 158.06C170.539 158.06 170.047 158.264 169.679 158.672C169.311 159.08 169.127 159.672 169.127 160.448V164H168.299V160.256C168.299 159.544 168.127 159 167.783 158.624C167.439 158.248 166.967 158.06 166.367 158.06C165.751 158.06 165.259 158.264 164.891 158.672C164.523 159.08 164.339 159.672 164.339 160.448V164H163.499V157.448H164.339V158.576C164.547 158.168 164.843 157.86 165.227 157.652C165.611 157.436 166.039 157.328 166.511 157.328C167.079 157.328 167.575 157.464 167.999 157.736C168.431 158.008 168.743 158.408 168.935 158.936C169.111 158.416 169.411 158.02 169.835 157.748C170.267 157.468 170.755 157.328 171.299 157.328Z" fill="#444444"/>
<path d="M178.637 164.096C178.021 164.096 177.465 163.96 176.969 163.688C176.481 163.408 176.093 163.016 175.805 162.512C175.525 162 175.385 161.404 175.385 160.724C175.385 160.044 175.529 159.452 175.817 158.948C176.105 158.436 176.497 158.044 176.993 157.772C177.489 157.492 178.045 157.352 178.661 157.352C179.277 157.352 179.833 157.492 180.329 157.772C180.833 158.044 181.225 158.436 181.505 158.948C181.793 159.452 181.937 160.044 181.937 160.724C181.937 161.396 181.793 161.988 181.505 162.5C181.217 163.012 180.821 163.408 180.317 163.688C179.813 163.96 179.253 164.096 178.637 164.096ZM178.637 163.364C179.069 163.364 179.469 163.268 179.837 163.076C180.205 162.876 180.501 162.58 180.725 162.188C180.957 161.788 181.073 161.3 181.073 160.724C181.073 160.148 180.961 159.664 180.737 159.272C180.513 158.872 180.217 158.576 179.849 158.384C179.481 158.184 179.081 158.084 178.649 158.084C178.217 158.084 177.817 158.184 177.449 158.384C177.081 158.576 176.785 158.872 176.561 159.272C176.345 159.664 176.237 160.148 176.237 160.724C176.237 161.3 176.345 161.788 176.561 162.188C176.785 162.58 177.077 162.876 177.437 163.076C177.805 163.268 178.205 163.364 178.637 163.364Z" fill="#444444"/>
<path d="M191.268 157.328C192.036 157.328 192.66 157.572 193.14 158.06C193.628 158.54 193.872 159.24 193.872 160.16V164H193.044V160.256C193.044 159.544 192.872 159 192.528 158.624C192.184 158.248 191.716 158.06 191.124 158.06C190.508 158.06 190.016 158.264 189.648 158.672C189.28 159.08 189.096 159.672 189.096 160.448V164H188.268V160.256C188.268 159.544 188.096 159 187.752 158.624C187.408 158.248 186.936 158.06 186.336 158.06C185.72 158.06 185.228 158.264 184.86 158.672C184.492 159.08 184.308 159.672 184.308 160.448V164H183.468V157.448H184.308V158.576C184.516 158.168 184.812 157.86 185.196 157.652C185.58 157.436 186.008 157.328 186.48 157.328C187.048 157.328 187.544 157.464 187.968 157.736C188.4 158.008 188.712 158.408 188.904 158.936C189.08 158.416 189.38 158.02 189.804 157.748C190.236 157.468 190.724 157.328 191.268 157.328Z" fill="#444444"/>
<path d="M201.665 160.388C201.665 160.676 201.657 160.896 201.641 161.048H196.205C196.229 161.544 196.349 161.968 196.565 162.32C196.781 162.672 197.065 162.94 197.417 163.124C197.769 163.3 198.153 163.388 198.569 163.388C199.113 163.388 199.569 163.256 199.937 162.992C200.313 162.728 200.561 162.372 200.681 161.924H201.569C201.409 162.564 201.065 163.088 200.537 163.496C200.017 163.896 199.361 164.096 198.569 164.096C197.953 164.096 197.401 163.96 196.913 163.688C196.425 163.408 196.041 163.016 195.761 162.512C195.489 162 195.353 161.404 195.353 160.724C195.353 160.044 195.489 159.448 195.761 158.936C196.033 158.424 196.413 158.032 196.901 157.76C197.389 157.488 197.945 157.352 198.569 157.352C199.193 157.352 199.737 157.488 200.201 157.76C200.673 158.032 201.033 158.4 201.281 158.864C201.537 159.32 201.665 159.828 201.665 160.388ZM200.813 160.364C200.821 159.876 200.721 159.46 200.513 159.116C200.313 158.772 200.037 158.512 199.685 158.336C199.333 158.16 198.949 158.072 198.533 158.072C197.909 158.072 197.377 158.272 196.937 158.672C196.497 159.072 196.253 159.636 196.205 160.364H200.813Z" fill="#444444"/>
<path d="M206.274 157.328C207.058 157.328 207.698 157.572 208.194 158.06C208.69 158.54 208.938 159.24 208.938 160.16V164H208.11V160.256C208.11 159.544 207.93 159 207.57 158.624C207.218 158.248 206.734 158.06 206.118 158.06C205.486 158.06 204.982 158.26 204.606 158.66C204.23 159.06 204.042 159.648 204.042 160.424V164H203.202V157.448H204.042V158.564C204.25 158.164 204.55 157.86 204.942 157.652C205.334 157.436 205.778 157.328 206.274 157.328Z" fill="#444444"/>
<path d="M211.888 158.156V162.224C211.888 162.624 211.964 162.9 212.116 163.052C212.268 163.204 212.536 163.28 212.92 163.28H213.688V164H212.788C212.196 164 211.756 163.864 211.468 163.592C211.18 163.312 211.036 162.856 211.036 162.224V158.156H210.124V157.448H211.036V155.804H211.888V157.448H213.688V158.156H211.888Z" fill="#444444"/>
<path d="M217.982 160.712C217.982 160.04 218.114 159.452 218.378 158.948C218.65 158.436 219.022 158.044 219.494 157.772C219.974 157.492 220.514 157.352 221.114 157.352C221.738 157.352 222.274 157.496 222.722 157.784C223.178 158.072 223.506 158.44 223.706 158.888V157.448H224.546V164H223.706V162.548C223.498 162.996 223.166 163.368 222.71 163.664C222.262 163.952 221.726 164.096 221.102 164.096C220.51 164.096 219.974 163.956 219.494 163.676C219.022 163.396 218.65 163 218.378 162.488C218.114 161.976 217.982 161.384 217.982 160.712ZM223.706 160.724C223.706 160.196 223.598 159.732 223.382 159.332C223.166 158.932 222.87 158.624 222.494 158.408C222.126 158.192 221.718 158.084 221.27 158.084C220.806 158.084 220.39 158.188 220.022 158.396C219.654 158.604 219.362 158.908 219.146 159.308C218.938 159.7 218.834 160.168 218.834 160.712C218.834 161.248 218.938 161.72 219.146 162.128C219.362 162.528 219.654 162.836 220.022 163.052C220.39 163.26 220.806 163.364 221.27 163.364C221.718 163.364 222.126 163.256 222.494 163.04C222.87 162.824 223.166 162.516 223.382 162.116C223.598 161.716 223.706 161.252 223.706 160.724Z" fill="#444444"/>
<path d="M229.536 157.328C230.32 157.328 230.96 157.572 231.456 158.06C231.952 158.54 232.2 159.24 232.2 160.16V164H231.372V160.256C231.372 159.544 231.192 159 230.832 158.624C230.48 158.248 229.996 158.06 229.38 158.06C228.748 158.06 228.244 158.26 227.868 158.66C227.492 159.06 227.304 159.648 227.304 160.424V164H226.464V157.448H227.304V158.564C227.512 158.164 227.812 157.86 228.204 157.652C228.596 157.436 229.04 157.328 229.536 157.328Z" fill="#444444"/>
<path d="M233.674 160.712C233.674 160.04 233.81 159.452 234.082 158.948C234.354 158.436 234.726 158.044 235.198 157.772C235.678 157.492 236.218 157.352 236.818 157.352C237.394 157.352 237.914 157.492 238.378 157.772C238.842 158.052 239.182 158.416 239.398 158.864V155.12H240.238V164H239.398V162.536C239.198 162.992 238.87 163.368 238.414 163.664C237.958 163.952 237.422 164.096 236.806 164.096C236.206 164.096 235.666 163.956 235.186 163.676C234.714 163.396 234.342 163 234.07 162.488C233.806 161.976 233.674 161.384 233.674 160.712ZM239.398 160.724C239.398 160.196 239.29 159.732 239.074 159.332C238.858 158.932 238.562 158.624 238.186 158.408C237.818 158.192 237.41 158.084 236.962 158.084C236.498 158.084 236.082 158.188 235.714 158.396C235.346 158.604 235.054 158.908 234.838 159.308C234.63 159.7 234.526 160.168 234.526 160.712C234.526 161.248 234.63 161.72 234.838 162.128C235.054 162.528 235.346 162.836 235.714 163.052C236.082 163.26 236.498 163.364 236.962 163.364C237.41 163.364 237.818 163.256 238.186 163.04C238.562 162.824 238.858 162.516 239.074 162.116C239.29 161.716 239.398 161.252 239.398 160.724Z" fill="#444444"/>
<path d="M246.54 158.156V162.224C246.54 162.624 246.616 162.9 246.768 163.052C246.92 163.204 247.188 163.28 247.572 163.28H248.34V164H247.44C246.848 164 246.408 163.864 246.12 163.592C245.832 163.312 245.688 162.856 245.688 162.224V158.156H244.776V157.448H245.688V155.804H246.54V157.448H248.34V158.156H246.54Z" fill="#444444"/>
<path d="M250.566 158.612C250.75 158.204 251.03 157.888 251.406 157.664C251.79 157.44 252.258 157.328 252.81 157.328V158.204H252.582C251.974 158.204 251.486 158.368 251.118 158.696C250.75 159.024 250.566 159.572 250.566 160.34V164H249.726V157.448H250.566V158.612Z" fill="#444444"/>
<path d="M259.473 157.448L255.585 167.084H254.709L255.981 163.964L253.293 157.448H254.217L256.449 163.04L258.609 157.448H259.473Z" fill="#444444"/>
<path d="M263.521 160.712C263.521 160.04 263.653 159.452 263.917 158.948C264.189 158.436 264.561 158.044 265.033 157.772C265.513 157.492 266.053 157.352 266.653 157.352C267.277 157.352 267.813 157.496 268.261 157.784C268.717 158.072 269.045 158.44 269.245 158.888V157.448H270.085V164H269.245V162.548C269.037 162.996 268.705 163.368 268.249 163.664C267.801 163.952 267.265 164.096 266.641 164.096C266.049 164.096 265.513 163.956 265.033 163.676C264.561 163.396 264.189 163 263.917 162.488C263.653 161.976 263.521 161.384 263.521 160.712ZM269.245 160.724C269.245 160.196 269.137 159.732 268.921 159.332C268.705 158.932 268.409 158.624 268.033 158.408C267.665 158.192 267.257 158.084 266.809 158.084C266.345 158.084 265.929 158.188 265.561 158.396C265.193 158.604 264.901 158.908 264.685 159.308C264.477 159.7 264.373 160.168 264.373 160.712C264.373 161.248 264.477 161.72 264.685 162.128C264.901 162.528 265.193 162.836 265.561 163.052C265.929 163.26 266.345 163.364 266.809 163.364C267.257 163.364 267.665 163.256 268.033 163.04C268.409 162.824 268.705 162.516 268.921 162.116C269.137 161.716 269.245 161.252 269.245 160.724Z" fill="#444444"/>
<path d="M274.751 157.352C275.367 157.352 275.903 157.496 276.359 157.784C276.815 158.072 277.143 158.436 277.343 158.876V157.448H278.183V164.168C278.183 164.768 278.051 165.3 277.787 165.764C277.531 166.228 277.171 166.584 276.707 166.832C276.243 167.088 275.715 167.216 275.123 167.216C274.283 167.216 273.583 167.016 273.023 166.616C272.471 166.216 272.127 165.672 271.991 164.984H272.819C272.963 165.44 273.235 165.804 273.635 166.076C274.043 166.348 274.539 166.484 275.123 166.484C275.547 166.484 275.927 166.392 276.263 166.208C276.599 166.032 276.863 165.768 277.055 165.416C277.247 165.064 277.343 164.648 277.343 164.168V162.548C277.135 162.996 276.803 163.368 276.347 163.664C275.899 163.952 275.367 164.096 274.751 164.096C274.151 164.096 273.611 163.956 273.131 163.676C272.659 163.396 272.287 163 272.015 162.488C271.751 161.976 271.619 161.384 271.619 160.712C271.619 160.04 271.751 159.452 272.015 158.948C272.287 158.436 272.659 158.044 273.131 157.772C273.611 157.492 274.151 157.352 274.751 157.352ZM277.343 160.724C277.343 160.196 277.235 159.732 277.019 159.332C276.803 158.932 276.507 158.624 276.131 158.408C275.763 158.192 275.355 158.084 274.907 158.084C274.443 158.084 274.027 158.188 273.659 158.396C273.291 158.604 272.999 158.908 272.783 159.308C272.575 159.7 272.471 160.168 272.471 160.712C272.471 161.248 272.575 161.72 272.783 162.128C272.999 162.528 273.291 162.836 273.659 163.052C274.027 163.26 274.443 163.364 274.907 163.364C275.355 163.364 275.763 163.256 276.131 163.04C276.507 162.824 276.803 162.516 277.019 162.116C277.235 161.716 277.343 161.252 277.343 160.724Z" fill="#444444"/>
<path d="M279.717 160.712C279.717 160.04 279.849 159.452 280.113 158.948C280.385 158.436 280.757 158.044 281.229 157.772C281.709 157.492 282.249 157.352 282.849 157.352C283.473 157.352 284.009 157.496 284.457 157.784C284.913 158.072 285.241 158.44 285.441 158.888V157.448H286.281V164H285.441V162.548C285.233 162.996 284.901 163.368 284.445 163.664C283.997 163.952 283.461 164.096 282.837 164.096C282.245 164.096 281.709 163.956 281.229 163.676C280.757 163.396 280.385 163 280.113 162.488C279.849 161.976 279.717 161.384 279.717 160.712ZM285.441 160.724C285.441 160.196 285.333 159.732 285.117 159.332C284.901 158.932 284.605 158.624 284.229 158.408C283.861 158.192 283.453 158.084 283.005 158.084C282.541 158.084 282.125 158.188 281.757 158.396C281.389 158.604 281.097 158.908 280.881 159.308C280.673 159.7 280.569 160.168 280.569 160.712C280.569 161.248 280.673 161.72 280.881 162.128C281.097 162.528 281.389 162.836 281.757 163.052C282.125 163.26 282.541 163.364 283.005 163.364C283.453 163.364 283.861 163.256 284.229 163.04C284.605 162.824 284.901 162.516 285.117 162.116C285.333 161.716 285.441 161.252 285.441 160.724Z" fill="#444444"/>
<path d="M288.618 156.212C288.45 156.212 288.306 156.152 288.186 156.032C288.066 155.912 288.006 155.764 288.006 155.588C288.006 155.412 288.066 155.268 288.186 155.156C288.306 155.036 288.45 154.976 288.618 154.976C288.786 154.976 288.93 155.036 289.05 155.156C289.17 155.268 289.23 155.412 289.23 155.588C289.23 155.764 289.17 155.912 289.05 156.032C288.93 156.152 288.786 156.212 288.618 156.212ZM289.038 157.448V164H288.198V157.448H289.038Z" fill="#444444"/>
<path d="M294.012 157.328C294.796 157.328 295.436 157.572 295.932 158.06C296.428 158.54 296.676 159.24 296.676 160.16V164H295.848V160.256C295.848 159.544 295.668 159 295.308 158.624C294.956 158.248 294.472 158.06 293.856 158.06C293.224 158.06 292.72 158.26 292.344 158.66C291.968 159.06 291.78 159.648 291.78 160.424V164H290.94V157.448H291.78V158.564C291.988 158.164 292.288 157.86 292.68 157.652C293.072 157.436 293.516 157.328 294.012 157.328Z" fill="#444444"/>
</svg>
