<svg width="20" height="21" viewBox="0 0 20 21" fill="none" xmlns="http://www.w3.org/2000/svg">
<g clip-path="url(#clip0_2463_507)">
<path d="M6.3948 11.7581L6.74836 11.4046L6.74835 11.4046L6.3948 11.7581ZM8.74186 14.1053L8.3883 14.4588L8.38831 14.4588L8.74186 14.1053ZM6.37514 17.8671L6.37142 18.3671H6.37514V17.8671ZM6.37785 11.7506L6.25524 12.2354L6.25525 12.2354L6.37785 11.7506ZM2.6607 17.8395L2.65698 18.3395H2.65699L2.6607 17.8395ZM1.75 13.1902C1.75 12.9141 1.52614 12.6902 1.25 12.6902C0.973858 12.6902 0.75 12.9141 0.75 13.1902H1.75ZM1.30853 19.2177L1.31116 18.7177H1.30853V19.2177ZM7.45753 19.75C7.73367 19.7514 7.9587 19.5288 7.96015 19.2526C7.9616 18.9765 7.73892 18.7515 7.46278 18.75L7.45753 19.75ZM3.1331 17.8117V11.7778H2.1331V17.8117H3.1331ZM2.66091 12.25H5.96947V11.25H2.66091V12.25ZM5.96947 12.25H6.37235V11.25H5.96947V12.25ZM6.04124 12.1117L8.3883 14.4588L9.09541 13.7517L6.74836 11.4046L6.04124 12.1117ZM8.25 14.1249V17.8393H9.25V14.1249H8.25ZM8.7222 17.3671H6.37514V18.3671H8.7222V17.3671ZM8.25 17.8393C8.25 17.5785 8.4614 17.3671 8.7222 17.3671V18.3671C9.0137 18.3671 9.25 18.1308 9.25 17.8393H8.25ZM8.38831 14.4588C8.29976 14.3703 8.25 14.2502 8.25 14.1249H9.25C9.25 13.9849 9.19438 13.8507 9.0954 13.7517L8.38831 14.4588ZM6.25525 12.2354C6.24689 12.2333 6.22767 12.2282 6.20344 12.2186C6.19103 12.2138 6.17087 12.2052 6.14703 12.1919C6.12564 12.1799 6.08432 12.1548 6.04124 12.1117L6.74835 11.4046C6.66987 11.3261 6.58493 11.2941 6.56969 11.2881C6.53904 11.2761 6.51325 11.2691 6.50045 11.2659L6.25525 12.2354ZM3.1331 11.7778C3.1331 12.0386 2.92171 12.25 2.66091 12.25V11.25C2.3694 11.25 2.1331 11.4863 2.1331 11.7778H3.1331ZM5.46947 11.75V14.5027H6.46947V11.75H5.46947ZM5.99727 15.0305H8.74988V14.0305H5.99727V15.0305ZM5.46947 14.5027C5.46947 14.7942 5.70575 15.0305 5.99727 15.0305V14.0305C6.25808 14.0305 6.46947 14.2419 6.46947 14.5027H5.46947ZM6.37235 12.25C6.34283 12.25 6.30216 12.2472 6.25524 12.2354L6.50046 11.2659C6.44994 11.2531 6.40557 11.25 6.37235 11.25V12.25ZM6.37885 17.3671L2.66442 17.3395L2.65699 18.3395L6.37142 18.3671L6.37885 17.3671ZM2.1331 17.8117C2.1331 18.1017 2.36702 18.3373 2.65698 18.3395L2.66442 17.3395C2.92383 17.3414 3.1331 17.5523 3.1331 17.8117H2.1331ZM0.75 13.1902V19.1591H1.75V13.1902H0.75ZM1.30591 19.7177L7.45753 19.75L7.46278 18.75L1.31116 18.7177L1.30591 19.7177ZM0.75 19.1591C0.75 19.4676 1.00005 19.7177 1.30853 19.7177V18.7177C1.55236 18.7177 1.75 18.9153 1.75 19.1591H0.75Z" fill="#767676"/>
<path d="M12.5 5.72214C12.5 5.47975 12.6865 5.28326 12.9167 5.28326H16.25C16.4801 5.28326 16.6667 5.47975 16.6667 5.72214C16.6667 5.96452 16.4801 6.16101 16.25 6.16101H12.9167C12.6865 6.16101 12.5 5.96452 12.5 5.72214Z" fill="#767676"/>
<path d="M12.9167 3.52776C12.6865 3.52776 12.5 3.72425 12.5 3.96663C12.5 4.20902 12.6865 4.40551 12.9167 4.40551H17.0833C17.3135 4.40551 17.5 4.20902 17.5 3.96663C17.5 3.72425 17.3135 3.52776 17.0833 3.52776H12.9167Z" fill="#767676"/>
<path fill-rule="evenodd" clip-rule="evenodd" d="M11.6667 1.33337C11.2064 1.33337 10.8333 1.72636 10.8333 2.21113V9.22255C10.8333 9.61746 11.2866 9.81523 11.5517 9.53599L12.5863 8.44629C12.6127 8.41849 12.6348 8.38789 12.6526 8.3554H18.3333C18.7936 8.3554 19.1667 7.96241 19.1667 7.47764V2.21113C19.1667 1.72636 18.7936 1.33337 18.3333 1.33337H11.6667ZM11.6667 7.95417L11.875 7.73473C12.0313 7.57012 12.2432 7.47764 12.4643 7.47764H18.3333V2.21113H11.6667V7.95417Z" fill="#767676"/>
<path fill-rule="evenodd" clip-rule="evenodd" d="M17.7778 13.8334C18.5448 13.8334 19.1667 13.2737 19.1667 12.5834C19.1667 11.893 18.5448 11.3334 17.7778 11.3334C17.0107 11.3334 16.3889 11.893 16.3889 12.5834C16.3889 12.6438 16.3936 12.7032 16.4028 12.7613L13.1653 14.5824C12.9176 14.3761 12.5863 14.25 12.2222 14.25C11.4552 14.25 10.8333 14.8097 10.8333 15.5C10.8333 16.1904 11.4552 16.75 12.2222 16.75C12.5863 16.75 12.9176 16.624 13.1653 16.4177L16.4028 18.2388C16.3936 18.2969 16.3889 18.3563 16.3889 18.4167C16.3889 19.1071 17.0107 19.6667 17.7778 19.6667C18.5448 19.6667 19.1667 19.1071 19.1667 18.4167C19.1667 17.7264 18.5448 17.1667 17.7778 17.1667C17.4137 17.1667 17.0824 17.2928 16.8347 17.499L13.5972 15.6779C13.6064 15.6198 13.6111 15.5604 13.6111 15.5C13.6111 15.4397 13.6064 15.3803 13.5972 15.3222L16.8347 13.501C17.0824 13.7073 17.4137 13.8334 17.7778 13.8334ZM17.7778 13C18.0335 13 18.2407 12.8135 18.2407 12.5834C18.2407 12.3533 18.0335 12.1667 17.7778 12.1667C17.5221 12.1667 17.3148 12.3533 17.3148 12.5834C17.3148 12.8135 17.5221 13 17.7778 13ZM17.7778 18C18.0335 18 18.2407 18.1866 18.2407 18.4167C18.2407 18.6468 18.0335 18.8334 17.7778 18.8334C17.5221 18.8334 17.3148 18.6468 17.3148 18.4167C17.3148 18.1866 17.5221 18 17.7778 18ZM12.6852 15.5C12.6852 15.7302 12.4779 15.9167 12.2222 15.9167C11.9665 15.9167 11.7593 15.7302 11.7593 15.5C11.7593 15.2699 11.9665 15.0834 12.2222 15.0834C12.4779 15.0834 12.6852 15.2699 12.6852 15.5Z" fill="#767676"/>
<path d="M4.748 8.71232L4.74731 8.71163C3.66526 7.64221 2.80522 6.78974 2.20991 5.99592C1.62105 5.21072 1.33333 4.53632 1.33333 3.8311C1.33333 2.6632 2.1569 1.83337 3.125 1.83337C3.68214 1.83337 4.23838 2.11898 4.60717 2.5873L5 3.08616L5.39282 2.5873C5.76161 2.11898 6.31786 1.83337 6.875 1.83337C7.8431 1.83337 8.66667 2.6632 8.66667 3.8311C8.66667 4.53632 8.37895 5.21072 7.79009 5.99592C7.19478 6.78974 6.33474 7.64221 5.25269 8.71163L5.252 8.71232L5 8.96235L4.748 8.71232Z" stroke="#767676"/>
</g>
<defs>
<clipPath id="clip0_2463_507">
<rect width="20" height="20" fill="white" transform="translate(0 0.5)"/>
</clipPath>
</defs>
</svg>
