<svg width="16" height="16" viewBox="0 0 16 16" fill="none" xmlns="http://www.w3.org/2000/svg">
<g clip-path="url(#clip0_2985_1261)">
<path d="M15.3181 5.66875L13.9391 4.28969C13.8278 4.17992 13.6794 4.11583 13.5233 4.11005C13.3671 4.10426 13.2144 4.1572 13.0953 4.25844C12.9115 4.41492 12.6756 4.49662 12.4343 4.48736C12.1931 4.4781 11.9641 4.37855 11.7928 4.20844C11.6228 4.03715 11.5233 3.80825 11.514 3.56709C11.5048 3.32592 11.5864 3.09007 11.7428 2.90625C11.844 2.78717 11.897 2.63449 11.8912 2.4783C11.8854 2.32211 11.8213 2.17376 11.7116 2.0625L10.3312 0.681874C10.2146 0.565449 10.0565 0.500061 9.89172 0.500061C9.72691 0.500061 9.56884 0.565449 9.45219 0.681874L7.25375 2.88C7.11802 3.01622 7.01566 3.182 6.95469 3.36437C6.94281 3.39944 6.92302 3.43129 6.89684 3.45747C6.87067 3.48365 6.83881 3.50344 6.80375 3.51531C6.6213 3.57628 6.45549 3.67876 6.31937 3.81469L0.681874 9.45219C0.565449 9.56884 0.500061 9.72691 0.500061 9.89172C0.500061 10.0565 0.565449 10.2146 0.681874 10.3312L2.0625 11.7103C2.17376 11.8201 2.32211 11.8842 2.4783 11.89C2.63449 11.8957 2.78717 11.8428 2.90625 11.7416C3.08965 11.5838 3.32589 11.5012 3.56763 11.5103C3.80937 11.5194 4.03875 11.6195 4.2098 11.7905C4.38086 11.9616 4.48095 12.1909 4.49003 12.4327C4.49911 12.6744 4.4165 12.9107 4.25875 13.0941C4.15752 13.2131 4.10457 13.3658 4.11036 13.522C4.11614 13.6782 4.18024 13.8265 4.29 13.9378L5.66906 15.3169C5.78571 15.4333 5.94379 15.4987 6.10859 15.4987C6.2734 15.4987 6.43148 15.4333 6.54812 15.3169L12.1856 9.67937C12.3215 9.54331 12.4239 9.37763 12.485 9.19531C12.4968 9.16013 12.5166 9.12817 12.5429 9.10193C12.5691 9.07569 12.6011 9.05588 12.6362 9.04406C12.8185 8.98308 12.9842 8.88072 13.1203 8.745L15.3184 6.54656C15.4344 6.42992 15.4995 6.27209 15.4995 6.10759C15.4994 5.94309 15.4342 5.7853 15.3181 5.66875ZM8.18156 4.74219C8.13513 4.78863 8.08001 4.82547 8.01934 4.8506C7.95867 4.87574 7.89364 4.88867 7.82797 4.88867C7.7623 4.88867 7.69727 4.87574 7.6366 4.8506C7.57593 4.82547 7.5208 4.78863 7.47437 4.74219L7.11469 4.3825C7.0232 4.28826 6.97247 4.1618 6.97346 4.03047C6.97445 3.89913 7.02708 3.77345 7.11997 3.6806C7.21286 3.58775 7.33856 3.53517 7.4699 3.53424C7.60124 3.53331 7.72767 3.5841 7.82187 3.67562L8.18156 4.035C8.228 4.08143 8.26484 4.13655 8.28998 4.19722C8.31511 4.25789 8.32805 4.32292 8.32805 4.38859C8.32805 4.45426 8.31511 4.51929 8.28998 4.57996C8.26484 4.64063 8.228 4.69576 8.18156 4.74219ZM9.55656 6.11719C9.4628 6.21088 9.33568 6.26352 9.20312 6.26352C9.07057 6.26352 8.94345 6.21088 8.84969 6.11719L8.50594 5.77344C8.4595 5.727 8.42267 5.67188 8.39754 5.61121C8.37241 5.55054 8.35947 5.48551 8.35947 5.41984C8.35947 5.35417 8.37241 5.28915 8.39754 5.22848C8.42267 5.16781 8.4595 5.11268 8.50594 5.06625C8.59972 4.97247 8.72691 4.91979 8.85953 4.91979C8.9252 4.91979 8.99022 4.93272 9.05089 4.95785C9.11156 4.98298 9.16669 5.01981 9.21312 5.06625L9.55687 5.41C9.60348 5.45643 9.64046 5.51159 9.6657 5.57234C9.69095 5.63308 9.70396 5.69821 9.70399 5.764C9.70402 5.82978 9.69106 5.89492 9.66587 5.95569C9.64068 6.01646 9.60375 6.07166 9.55719 6.11812L9.55656 6.11719ZM10.9316 7.49219C10.8851 7.53863 10.83 7.57547 10.7693 7.6006C10.7087 7.62574 10.6436 7.63867 10.578 7.63867C10.5123 7.63867 10.4473 7.62574 10.3866 7.6006C10.3259 7.57547 10.2708 7.53863 10.2244 7.49219L9.88062 7.14844C9.78914 7.0542 9.73841 6.92774 9.7394 6.7964C9.74039 6.66506 9.79301 6.53939 9.88591 6.44654C9.9788 6.35368 10.1045 6.30111 10.2358 6.30018C10.3672 6.29925 10.4936 6.35003 10.5878 6.44156L10.9316 6.78531C10.9783 6.83166 11.0154 6.88678 11.0408 6.94751C11.0662 7.00824 11.0793 7.07339 11.0795 7.13921C11.0796 7.20503 11.0667 7.27023 11.0416 7.33107C11.0165 7.39191 10.9797 7.44719 10.9331 7.49375L10.9316 7.49219ZM12.32 8.88406C12.2736 8.9305 12.2184 8.96734 12.1578 8.99248C12.0971 9.01761 12.0321 9.03055 11.9664 9.03055C11.9007 9.03055 11.8357 9.01761 11.775 8.99248C11.7144 8.96734 11.6592 8.9305 11.6128 8.88406L11.2553 8.52469C11.2079 8.47839 11.1702 8.42314 11.1443 8.36213C11.1184 8.30112 11.1049 8.23558 11.1046 8.16931C11.1043 8.10304 11.1172 8.03737 11.1424 7.97612C11.1677 7.91487 11.2049 7.85925 11.2519 7.81251C11.2989 7.76577 11.3547 7.72883 11.4161 7.70384C11.4774 7.67885 11.5432 7.66631 11.6094 7.66695C11.6757 7.66758 11.7412 7.68139 11.802 7.70756C11.8629 7.73372 11.918 7.77173 11.9641 7.81937L12.3219 8.17844C12.3683 8.22489 12.4051 8.28003 12.4302 8.34071C12.4553 8.40139 12.4682 8.46642 12.4682 8.53209C12.4682 8.59777 12.4552 8.66279 12.43 8.72345C12.4049 8.78411 12.368 8.83921 12.3216 8.88562L12.32 8.88406Z" fill="#007CEE"/>
</g>
<defs>
<clipPath id="clip0_2985_1261">
<rect width="16" height="16" fill="white"/>
</clipPath>
</defs>
</svg>
