<svg width="21" height="20" viewBox="0 0 21 20" fill="none" xmlns="http://www.w3.org/2000/svg">
<path d="M18.375 2.68394L13.8711 2.68396V1.56263C13.8711 1.25178 13.6193 1 13.3086 1C12.9978 1 12.7461 1.25178 12.7461 1.56263V2.68368H8.24606V1.56263C8.24606 1.25178 7.99434 1 7.68356 1C7.37278 1 7.12106 1.25178 7.12106 1.56263V2.68368H2.625C2.00372 2.68368 1.5 3.18751 1.5 3.80894V17.8747C1.5 18.4961 2.00372 19 2.625 19H18.375C18.9963 19 19.5 18.4961 19.5 17.8747V3.80894C19.5 3.18778 18.9963 2.68394 18.375 2.68394ZM18.375 17.8747H2.625V3.80894H7.12106V4.37579C7.12106 4.68663 7.37278 4.93842 7.68356 4.93842C7.99434 4.93842 8.24606 4.68663 8.24606 4.37579V3.80922H12.7461V4.37607C12.7461 4.68693 12.9978 4.9387 13.3086 4.9387C13.6193 4.9387 13.8711 4.68693 13.8711 4.37607V3.80922H18.375V17.8747ZM14.4375 9.99815H15.5625C15.873 9.99815 16.125 9.74609 16.125 9.43552V8.31026C16.125 7.99969 15.873 7.74763 15.5625 7.74763H14.4375C14.127 7.74763 13.875 7.99969 13.875 8.31026V9.43552C13.875 9.74609 14.127 9.99815 14.4375 9.99815ZM14.4375 14.4989H15.5625C15.873 14.4989 16.125 14.2471 16.125 13.9363V12.811C16.125 12.5005 15.873 12.2484 15.5625 12.2484H14.4375C14.127 12.2484 13.875 12.5005 13.875 12.811V13.9363C13.875 14.2474 14.127 14.4989 14.4375 14.4989ZM11.0625 12.2484H9.9375C9.627 12.2484 9.375 12.5005 9.375 12.811V13.9363C9.375 14.2471 9.627 14.4989 9.9375 14.4989H11.0625C11.373 14.4989 11.625 14.2471 11.625 13.9363V12.811C11.625 12.5007 11.373 12.2484 11.0625 12.2484ZM11.0625 7.74763H9.9375C9.627 7.74763 9.375 7.99969 9.375 8.31026V9.43552C9.375 9.74609 9.627 9.99815 9.9375 9.99815H11.0625C11.373 9.99815 11.625 9.74609 11.625 9.43552V8.31026C11.625 7.9994 11.373 7.74763 11.0625 7.74763ZM6.5625 7.74763H5.4375C5.127 7.74763 4.875 7.99969 4.875 8.31026V9.43552C4.875 9.74609 5.127 9.99815 5.4375 9.99815H6.5625C6.873 9.99815 7.125 9.74609 7.125 9.43552V8.31026C7.125 7.9994 6.873 7.74763 6.5625 7.74763ZM6.5625 12.2484H5.4375C5.127 12.2484 4.875 12.5005 4.875 12.811V13.9363C4.875 14.2471 5.127 14.4989 5.4375 14.4989H6.5625C6.873 14.4989 7.125 14.2471 7.125 13.9363V12.811C7.125 12.5007 6.873 12.2484 6.5625 12.2484Z" fill="#444444"/>
</svg>
