<svg width="22" height="22" viewBox="0 0 22 22" fill="none" xmlns="http://www.w3.org/2000/svg">
<path d="M3.63008 10.4316C3.88675 9.08413 5.15175 8.15829 6.52675 8.15829H9.21258C9.68925 8.15829 10.0834 7.76413 10.0834 7.28746C10.0834 6.81079 9.68925 6.41663 9.21258 6.41663H6.61842C4.22592 6.41663 2.09008 8.16746 1.86092 10.5508C1.79754 11.1872 1.86818 11.8298 2.06828 12.4372C2.26838 13.0446 2.5935 13.6034 3.0227 14.0775C3.4519 14.5516 3.97566 14.9305 4.56023 15.1899C5.14481 15.4492 5.77723 15.5832 6.41675 15.5833H9.21258C9.68925 15.5833 10.0834 15.1891 10.0834 14.7125C10.0834 14.2358 9.68925 13.8416 9.21258 13.8416H6.41675C5.9957 13.8403 5.58016 13.7458 5.2 13.5648C4.81984 13.3838 4.48449 13.1208 4.21806 12.7948C3.95162 12.4687 3.76072 12.0877 3.65905 11.6791C3.55739 11.2705 3.5475 10.8445 3.63008 10.4316ZM8.25008 11.9166H13.7501C14.2543 11.9166 14.6668 11.5041 14.6668 11C14.6668 10.4958 14.2543 10.0833 13.7501 10.0833H8.25008C7.74592 10.0833 7.33342 10.4958 7.33342 11C7.33342 11.5041 7.74592 11.9166 8.25008 11.9166ZM15.3818 6.41663H12.7876C12.3109 6.41663 11.9168 6.81079 11.9168 7.28746C11.9168 7.76413 12.3109 8.15829 12.7876 8.15829H15.4734C16.8484 8.15829 18.1134 9.08413 18.3701 10.4316C18.4527 10.8445 18.4428 11.2705 18.3411 11.6791C18.2395 12.0877 18.0485 12.4687 17.7821 12.7948C17.5157 13.1208 17.1803 13.3838 16.8002 13.5648C16.42 13.7458 16.0045 13.8403 15.5834 13.8416H12.7876C12.3109 13.8416 11.9168 14.2358 11.9168 14.7125C11.9168 15.1891 12.3109 15.5833 12.7876 15.5833H15.5834C18.2601 15.5833 20.4051 13.2825 20.1484 10.5508C19.9193 8.16746 17.7743 6.41663 15.3818 6.41663Z" fill="#444444"/>
</svg>
