<svg width="21" height="20" viewBox="0 0 21 20" fill="none" xmlns="http://www.w3.org/2000/svg">
<path d="M10.4997 10.0001C10.958 10.0001 11.3505 9.83675 11.6772 9.51008C12.0033 9.18397 12.1663 8.79175 12.1663 8.33341C12.1663 7.87508 12.0033 7.48258 11.6772 7.15591C11.3505 6.8298 10.958 6.66675 10.4997 6.66675C10.0413 6.66675 9.64912 6.8298 9.32301 7.15591C8.99634 7.48258 8.83301 7.87508 8.83301 8.33341C8.83301 8.79175 8.99634 9.18397 9.32301 9.51008C9.64912 9.83675 10.0413 10.0001 10.4997 10.0001ZM10.4997 16.1251C12.1941 14.5695 13.4511 13.1562 14.2705 11.8851C15.09 10.6145 15.4997 9.48619 15.4997 8.50008C15.4997 6.98619 15.0169 5.74647 14.0513 4.78091C13.0863 3.81591 11.9025 3.33341 10.4997 3.33341C9.0969 3.33341 7.91273 3.81591 6.94717 4.78091C5.98217 5.74647 5.49967 6.98619 5.49967 8.50008C5.49967 9.48619 5.9094 10.6145 6.72884 11.8851C7.54829 13.1562 8.80523 14.5695 10.4997 16.1251ZM10.4997 18.3334C8.26356 16.4306 6.59356 14.6631 5.48967 13.0309C4.38523 11.3992 3.83301 9.88897 3.83301 8.50008C3.83301 6.41675 4.50329 4.75703 5.84384 3.52091C7.18384 2.2848 8.73579 1.66675 10.4997 1.66675C12.2636 1.66675 13.8155 2.2848 15.1555 3.52091C16.4961 4.75703 17.1663 6.41675 17.1663 8.50008C17.1663 9.88897 16.6144 11.3992 15.5105 13.0309C14.4061 14.6631 12.7358 16.4306 10.4997 18.3334Z" fill="#444444"/>
</svg>
