<svg width="32" height="32" viewBox="0 0 32 32" fill="none" xmlns="http://www.w3.org/2000/svg">
<path d="M16.84 2.66675C24.2133 2.66675 30.1867 8.66675 30.1867 16.0001C30.1867 23.3334 24.2133 29.3334 16.84 29.3334C12.16 29.3334 8.06667 26.9067 5.68 23.2401L7.78667 21.5734C9.66667 24.6267 13.0133 26.6667 16.8533 26.6667C19.6823 26.6667 22.3954 25.5429 24.3958 23.5426C26.3962 21.5422 27.52 18.8291 27.52 16.0001C27.52 13.1711 26.3962 10.458 24.3958 8.45761C22.3954 6.45722 19.6823 5.33341 16.8533 5.33341C11.4133 5.33341 6.93333 9.41341 6.28 14.6667H9.96L4.97333 19.6401L0 14.6667H3.58667C4.25333 7.93341 9.93333 2.66675 16.84 2.66675ZM20.7867 13.6534C21.4533 13.6667 22 14.2001 22 14.8801V21.0267C22 21.6934 21.4533 22.2534 20.7733 22.2534H13.4C12.72 22.2534 12.1733 21.6934 12.1733 21.0267V14.8801C12.1733 14.2001 12.72 13.6667 13.3867 13.6534V12.3067C13.3867 10.2667 15.0533 8.61341 17.08 8.61341C19.12 8.61341 20.7867 10.2667 20.7867 12.3067V13.6534ZM17.08 10.4801C16.08 10.4801 15.2533 11.2934 15.2533 12.3067V13.6534H18.92V12.3067C18.92 11.2934 18.0933 10.4801 17.08 10.4801Z" fill="#FD5201"/>
</svg>
