<svg width="20" height="20" viewBox="0 0 20 20" fill="none" xmlns="http://www.w3.org/2000/svg">
<g clip-path="url(#clip0_3_1931)">
<path d="M2.49967 4.16683V17.5002H17.4997V19.1668H2.49967C2.05765 19.1668 1.63372 18.9912 1.32116 18.6787C1.0086 18.3661 0.833008 17.9422 0.833008 17.5002V4.16683H2.49967ZM13.333 6.66683H17.9163L13.333 2.0835V6.66683ZM5.83301 0.833496H14.1663L19.1663 5.8335V14.1668C19.1663 14.6089 18.9907 15.0328 18.6782 15.3453C18.3656 15.6579 17.9417 15.8335 17.4997 15.8335H5.83301C5.39098 15.8335 4.96706 15.6579 4.6545 15.3453C4.34194 15.0328 4.16634 14.6089 4.16634 14.1668V2.50016C4.16634 2.05814 4.34194 1.63421 4.6545 1.32165C4.96706 1.00909 5.39098 0.833496 5.83301 0.833496ZM5.83301 2.50016V14.1668H17.4997V8.3335H11.6663V2.50016H5.83301Z" fill="#3C0061"/>
</g>
<rect x="0.280854" y="0.280854" width="19.4383" height="19.4383" stroke="white" stroke-width="0.561709"/>
<defs>
<clipPath id="clip0_3_1931">
<rect width="20" height="20" fill="white"/>
</clipPath>
</defs>
</svg>
