<svg width="24" height="25" viewBox="0 0 24 25" fill="none" xmlns="http://www.w3.org/2000/svg">
<path d="M13.5 8.5H12V13.5L16.28 16.04L17 14.83L13.5 12.75V8.5ZM13 3.5C10.6131 3.5 8.32387 4.44821 6.63604 6.13604C4.94821 7.82387 4 10.1131 4 12.5H1L4.96 16.53L9 12.5H6C6 10.6435 6.7375 8.86301 8.05025 7.55025C9.36301 6.2375 11.1435 5.5 13 5.5C14.8565 5.5 16.637 6.2375 17.9497 7.55025C19.2625 8.86301 20 10.6435 20 12.5C20 14.3565 19.2625 16.137 17.9497 17.4497C16.637 18.7625 14.8565 19.5 13 19.5C11.07 19.5 9.32 18.71 8.06 17.44L6.64 18.86C7.47147 19.7006 8.46218 20.3671 9.5542 20.8203C10.6462 21.2736 11.8176 21.5047 13 21.5C15.3869 21.5 17.6761 20.5518 19.364 18.864C21.0518 17.1761 22 14.8869 22 12.5C22 10.1131 21.0518 7.82387 19.364 6.13604C17.6761 4.44821 15.3869 3.5 13 3.5Z" fill="#160323"/>
</svg>
