<svg width="28" height="28" viewBox="0 0 28 28" fill="none" xmlns="http://www.w3.org/2000/svg">
<g clip-path="url(#clip0_3_2391)">
<path fill-rule="evenodd" clip-rule="evenodd" d="M28 0V28H0V0H28ZM14.6918 27.1343L14.679 27.1367L14.5962 27.1775L14.5728 27.1822L14.5565 27.1775L14.4737 27.1367C14.462 27.132 14.4515 27.1355 14.4457 27.1425L14.441 27.1542L14.4212 27.6535L14.427 27.6768L14.4387 27.692L14.56 27.7783L14.5775 27.783L14.5915 27.7783L14.7128 27.692L14.7268 27.6733L14.7315 27.6535L14.7117 27.1553C14.7093 27.1437 14.7012 27.1355 14.6918 27.1343ZM15.001 27.0025L14.9858 27.0048L14.77 27.1133L14.7583 27.125L14.7548 27.1378L14.7758 27.6395L14.7817 27.6535L14.791 27.6617L15.0255 27.7702C15.0395 27.7748 15.0523 27.7702 15.0593 27.7608L15.064 27.7445L15.0243 27.0282C15.0208 27.0142 15.0127 27.0048 15.001 27.0025ZM14.1668 27.0048C14.1615 27.0024 14.1556 27.0018 14.1499 27.0031C14.1442 27.0043 14.1391 27.0074 14.1353 27.0118L14.1283 27.0282L14.0887 27.7445C14.0887 27.7585 14.0968 27.7678 14.1085 27.7725L14.126 27.7702L14.3605 27.6617L14.3722 27.6523L14.3768 27.6395L14.3967 27.1378L14.3932 27.1238L14.3815 27.1122L14.1668 27.0048Z" fill="white"/>
<path fill-rule="evenodd" clip-rule="evenodd" d="M17.4997 4.89305V23.107C17.4997 23.343 17.4348 23.5743 17.312 23.7757C17.1891 23.9771 17.0131 24.1408 16.8033 24.2487C16.5936 24.3566 16.3581 24.4046 16.1228 24.3874C15.8875 24.3702 15.6615 24.2885 15.4697 24.1512L7.79301 18.6667H4.66634C4.0475 18.6667 3.45401 18.4209 3.01643 17.9833C2.57884 17.5457 2.33301 16.9522 2.33301 16.3334V11.6667C2.33301 11.0479 2.57884 10.4544 3.01643 10.0168C3.45401 9.57921 4.0475 9.33338 4.66634 9.33338H7.79301L15.4697 3.85005C15.6615 3.71285 15.8873 3.63115 16.1225 3.61391C16.3577 3.59667 16.5931 3.64456 16.8028 3.75233C17.0126 3.86009 17.1886 4.02356 17.3115 4.2248C17.4344 4.42603 17.4995 4.65724 17.4997 4.89305ZM15.1663 6.93471L9.14867 11.2304C8.7533 11.5135 8.27933 11.6661 7.79301 11.6667H4.66634V16.3334H7.79301C8.2792 16.3337 8.75316 16.4858 9.14867 16.7685L15.1663 21.0654V6.93471ZM20.0337 10.7007C20.2344 10.4997 20.5016 10.3788 20.7852 10.3607C21.0687 10.3427 21.3491 10.4287 21.5737 10.6027L21.6833 10.7007L23.333 12.3504L24.9827 10.7007C25.1921 10.4893 25.4745 10.3658 25.772 10.3558C26.0695 10.3457 26.3595 10.4496 26.5828 10.6464C26.8062 10.8432 26.9458 11.1179 26.9732 11.4143C27.0007 11.7107 26.9138 12.0063 26.7303 12.2407L26.6323 12.3504L24.9827 14L26.6323 15.6497C26.8438 15.8592 26.9672 16.1415 26.9773 16.439C26.9874 16.7365 26.8834 17.0266 26.6866 17.2499C26.4899 17.4732 26.2152 17.6129 25.9188 17.6403C25.6224 17.6677 25.3267 17.5808 25.0923 17.3974L24.9827 17.2994L23.333 15.6509L21.6833 17.3017C21.4739 17.5132 21.1915 17.6366 20.894 17.6467C20.5966 17.6568 20.3065 17.5528 20.0832 17.356C19.8598 17.1592 19.7202 16.8845 19.6928 16.5882C19.6653 16.2918 19.7522 15.9961 19.9357 15.7617L20.0337 15.6509L21.6833 14L20.0337 12.3504C19.815 12.1316 19.6921 11.8349 19.6921 11.5255C19.6921 11.2162 19.815 10.9195 20.0337 10.7007Z" fill="#444444"/>
</g>
<defs>
<clipPath id="clip0_3_2391">
<rect width="28" height="28" fill="white"/>
</clipPath>
</defs>
</svg>
