<svg width="16" height="17" viewBox="0 0 16 17" fill="none" xmlns="http://www.w3.org/2000/svg">
<path d="M2.00008 3.83341V14.5001H14.0001V15.8334H2.00008C1.64646 15.8334 1.30732 15.6929 1.05727 15.4429C0.807224 15.1928 0.666748 14.8537 0.666748 14.5001V3.83341H2.00008ZM10.6667 5.83342H14.3334L10.6667 2.16675V5.83342ZM4.66675 1.16675H11.3334L15.3334 5.16675V11.8334C15.3334 12.187 15.1929 12.5262 14.9429 12.7762C14.6928 13.0263 14.3537 13.1667 14.0001 13.1667H4.66675C4.31313 13.1667 3.97399 13.0263 3.72394 12.7762C3.47389 12.5262 3.33341 12.187 3.33341 11.8334V2.50008C3.33341 2.14646 3.47389 1.80732 3.72394 1.55727C3.97399 1.30722 4.31313 1.16675 4.66675 1.16675ZM4.66675 2.50008V11.8334H14.0001V7.16675H9.33342V2.50008H4.66675Z" fill="#444444"/>
<rect x="0.5" y="1" width="15" height="15" stroke="white"/>
</svg>
