<svg width="28" height="28" viewBox="0 0 28 28" fill="none" xmlns="http://www.w3.org/2000/svg">
<path d="M23.625 3.0625H9.625C9.2769 3.0625 8.94306 3.20078 8.69692 3.44692C8.45078 3.69306 8.3125 4.0269 8.3125 4.375V8.3125H4.375C4.0269 8.3125 3.69306 8.45078 3.44692 8.69692C3.20078 8.94306 3.0625 9.2769 3.0625 9.625V23.625C3.0625 23.9731 3.20078 24.3069 3.44692 24.5531C3.69306 24.7992 4.0269 24.9375 4.375 24.9375H18.375C18.7231 24.9375 19.0569 24.7992 19.3031 24.5531C19.5492 24.3069 19.6875 23.9731 19.6875 23.625V19.6875H23.625C23.9731 19.6875 24.3069 19.5492 24.5531 19.3031C24.7992 19.0569 24.9375 18.7231 24.9375 18.375V4.375C24.9375 4.0269 24.7992 3.69306 24.5531 3.44692C24.3069 3.20078 23.9731 3.0625 23.625 3.0625ZM17.0625 22.3125H5.6875V10.9375H17.0625V22.3125ZM22.3125 17.0625H19.6875V9.625C19.6875 9.2769 19.5492 8.94306 19.3031 8.69692C19.0569 8.45078 18.7231 8.3125 18.375 8.3125H10.9375V5.6875H22.3125V17.0625Z" fill="#3C0061"/>
</svg>
