<svg width="28" height="28" viewBox="0 0 28 28" fill="none" xmlns="http://www.w3.org/2000/svg">
<path d="M9.36224 16.778L16.7888 9.3624C17.0404 9.15295 17.3613 9.0451 17.6883 9.06003C18.0154 9.07496 18.3251 9.21158 18.5566 9.44309C18.7881 9.6746 18.9247 9.98427 18.9396 10.3113C18.9545 10.6384 18.8467 10.9592 18.6372 11.2108L11.2107 18.6374C10.9649 18.8812 10.6327 19.018 10.2865 19.018C9.94025 19.018 9.60806 18.8812 9.36224 18.6374C9.23988 18.5155 9.1428 18.3706 9.07655 18.211C9.01031 18.0515 8.97621 17.8805 8.97621 17.7077C8.97621 17.535 9.01031 17.3639 9.07655 17.2044C9.1428 17.0449 9.23988 16.9 9.36224 16.778ZM14.9294 18.6374L11.8341 21.7327C11.0906 22.445 10.0976 22.8378 9.06799 22.8267C8.03837 22.8157 7.05404 22.4018 6.32595 21.6737C5.59786 20.9456 5.18394 19.9613 5.17291 18.9317C5.16188 17.902 5.55461 16.9091 6.26693 16.1655L9.36224 13.0702C9.4846 12.9483 9.58169 12.8034 9.64793 12.6439C9.71418 12.4843 9.74828 12.3133 9.74828 12.1405C9.74828 11.9678 9.71418 11.7967 9.64793 11.6372C9.58169 11.4777 9.4846 11.3328 9.36224 11.2108C9.11321 10.969 8.77972 10.8337 8.43256 10.8337C8.08539 10.8337 7.7519 10.969 7.50287 11.2108L4.40756 14.3062C3.17616 15.5375 2.48437 17.2077 2.48438 18.9491C2.48438 20.6906 3.17616 22.3607 4.40756 23.5921C5.63895 24.8235 7.30907 25.5153 9.05052 25.5153C10.792 25.5153 12.4621 24.8235 13.6935 23.5921L16.7779 20.4968C16.9002 20.3748 16.9973 20.23 17.0636 20.0704C17.1298 19.9109 17.1639 19.7398 17.1639 19.5671C17.1639 19.3943 17.1298 19.2233 17.0636 19.0638C16.9973 18.9042 16.9002 18.7593 16.7779 18.6374C16.6569 18.5154 16.5129 18.4185 16.3543 18.3524C16.1956 18.2863 16.0255 18.2523 15.8536 18.2523C15.6818 18.2523 15.5117 18.2863 15.353 18.3524C15.1944 18.4185 15.0504 18.5154 14.9294 18.6374ZM23.5919 4.40772C22.3596 3.17811 20.6898 2.48755 18.949 2.48755C17.2081 2.48755 15.5383 3.17811 14.306 4.40772L11.2107 7.50303C10.9688 7.75206 10.8335 8.08556 10.8335 8.43272C10.8335 8.77988 10.9688 9.11337 11.2107 9.3624C11.3326 9.48476 11.4775 9.58185 11.637 9.6481C11.7966 9.71434 11.9676 9.74844 12.1404 9.74844C12.3131 9.74844 12.4842 9.71434 12.6437 9.6481C12.8032 9.58185 12.9481 9.48476 13.0701 9.3624L16.1654 6.26709C16.528 5.88858 16.9625 5.58629 17.4435 5.37794C17.9245 5.16959 18.4423 5.05937 18.9664 5.05375C19.4906 5.04814 20.0106 5.14723 20.4959 5.34523C20.9813 5.54323 21.4222 5.83614 21.7929 6.2068C22.1635 6.57745 22.4564 7.01837 22.6544 7.50372C22.8524 7.98907 22.9515 8.50906 22.9459 9.03321C22.9403 9.55736 22.8301 10.0751 22.6217 10.5561C22.4134 11.0371 22.1111 11.4717 21.7326 11.8343L18.6372 14.9296C18.4582 15.1151 18.3373 15.3489 18.2893 15.6022C18.2413 15.8555 18.2684 16.1173 18.3671 16.3554C18.4659 16.5936 18.632 16.7977 18.8451 16.9427C19.0583 17.0877 19.3092 17.1674 19.5669 17.1718C19.7405 17.1726 19.9124 17.1382 20.0722 17.0705C20.2321 17.0028 20.3765 16.9033 20.4966 16.778L23.5919 13.6937C24.2021 13.0842 24.6861 12.3604 25.0164 11.5637C25.3466 10.7671 25.5166 9.9131 25.5166 9.05068C25.5166 8.18827 25.3466 7.33431 25.0164 6.53764C24.6861 5.74096 24.2021 5.0172 23.5919 4.40772Z" fill="#444444"/>
</svg>
