<svg width="120" height="120" viewBox="0 0 120 120" fill="none" xmlns="http://www.w3.org/2000/svg">
<circle cx="45" cy="75.5" r="26.5" fill="#FD5201"/>
<path fill-rule="evenodd" clip-rule="evenodd" d="M30 39.0525L30 26.25C30 23.2663 31.1853 20.4048 33.295 18.2951C35.4048 16.1853 38.2663 15 41.25 15L67.5 15V30C67.5 35.9674 69.8705 41.6903 74.0901 45.9099C78.3097 50.1295 84.0326 52.5 90 52.5H105V78.75C105 81.7337 103.815 84.5952 101.705 86.705C99.5952 88.8147 96.7337 90 93.75 90H80.9475C80.205 92.6175 79.215 95.1225 78 97.5H93.75C98.7228 97.5 103.492 95.5246 107.008 92.0083C110.525 88.492 112.5 83.7228 112.5 78.75L112.5 46.605C112.499 43.6234 111.315 40.764 109.207 38.655L81.345 10.8C79.2372 8.68961 76.3777 7.50263 73.395 7.5L41.25 7.5C36.2772 7.5 31.5081 9.47545 27.9917 12.9918C24.4754 16.5081 22.5 21.2772 22.5 26.25L22.5 42C24.8971 40.7736 27.4093 39.7863 30 39.0525ZM103.905 43.95C104.208 44.2552 104.457 44.6104 104.64 45H90C86.0218 45 82.2065 43.4197 79.3934 40.6066C76.5804 37.7936 75 33.9783 75 30V15.36C75.3869 15.5437 75.7395 15.7923 76.0425 16.095L103.905 43.95Z" fill="#3C0061"/>
<path fill-rule="evenodd" clip-rule="evenodd" d="M32.8137 103.788C36.6158 105.429 40.6783 106.25 45.0012 106.25C49.3241 106.25 53.3866 105.429 57.1887 103.788C60.9908 102.148 64.2981 99.922 67.1106 97.1095C69.9231 94.297 72.1491 90.9897 73.7887 87.1876C75.4304 83.3855 76.2512 79.323 76.2512 75.0001C76.2512 70.6772 75.4304 66.6147 73.7887 62.8126C72.1491 59.0105 69.9231 55.7032 67.1106 52.8907C64.2981 50.0782 60.9908 47.8511 57.1887 46.2094C53.3866 44.5699 49.3241 43.7501 45.0012 43.7501C40.6783 43.7501 36.6158 44.5699 32.8137 46.2094C29.0116 47.8511 25.7043 50.0782 22.8918 52.8907C20.0793 55.7032 17.8533 59.0105 16.2137 62.8126C14.5721 66.6147 13.7512 70.6772 13.7512 75.0001C13.7512 79.323 14.5721 83.3855 16.2137 87.1876C17.8533 90.9897 20.0793 94.297 22.8918 97.1095C25.7043 99.922 29.0116 102.148 32.8137 103.788ZM62.6575 67.3438L40.6262 89.3751L27.345 76.0938L31.72 71.7188L40.6262 80.6251L58.2825 62.9688L62.6575 67.3438Z" fill="#3C0061"/>
</svg>
