<svg width="32" height="32" viewBox="0 0 32 32" fill="none" xmlns="http://www.w3.org/2000/svg">
<path d="M25.1426 27.4286H22.8569V25.1429C22.8569 24.2336 22.4957 23.3615 21.8527 22.7185C21.2097 22.0755 20.3377 21.7143 19.4284 21.7143H12.5712C11.6619 21.7143 10.7898 22.0755 10.1469 22.7185C9.50387 23.3615 9.14265 24.2336 9.14265 25.1429V27.4286H6.85693V25.1429C6.85693 23.6274 7.45897 22.1739 8.53061 21.1023C9.60225 20.0306 11.0557 19.4286 12.5712 19.4286H19.4284C20.9439 19.4286 22.3973 20.0306 23.469 21.1023C24.5406 22.1739 25.1426 23.6274 25.1426 25.1429V27.4286ZM15.9998 17.1429C15.0993 17.1429 14.2076 16.9655 13.3757 16.6209C12.5437 16.2763 11.7878 15.7712 11.1511 15.1345C10.5143 14.4977 10.0092 13.7418 9.66462 12.9098C9.32001 12.0779 9.14265 11.1862 9.14265 10.2857C9.14265 9.38524 9.32001 8.49356 9.66462 7.66162C10.0092 6.82967 10.5143 6.07374 11.1511 5.437C11.7878 4.80025 12.5437 4.29516 13.3757 3.95056C14.2076 3.60595 15.0993 3.42859 15.9998 3.42859C17.8184 3.42859 19.5626 4.15104 20.8485 5.437C22.1345 6.72296 22.8569 8.4671 22.8569 10.2857C22.8569 12.1044 22.1345 13.8485 20.8485 15.1345C19.5626 16.4204 17.8184 17.1429 15.9998 17.1429ZM15.9998 14.8572C17.2122 14.8572 18.375 14.3755 19.2323 13.5182C20.0896 12.6609 20.5712 11.4982 20.5712 10.2857C20.5712 9.07331 20.0896 7.91055 19.2323 7.05324C18.375 6.19593 17.2122 5.7143 15.9998 5.7143C14.7874 5.7143 13.6246 6.19593 12.7673 7.05324C11.91 7.91055 11.4284 9.07331 11.4284 10.2857C11.4284 11.4982 11.91 12.6609 12.7673 13.5182C13.6246 14.3755 14.7874 14.8572 15.9998 14.8572Z" fill="#FD5201"/>
</svg>
