<svg width="105" height="80" viewBox="0 0 105 80" fill="none" xmlns="http://www.w3.org/2000/svg">
<path d="M32.1387 24.8707L13.26 43.7494L5.30625 35.7956L0 41.0981L13.26 54.3581L37.4449 30.1732L32.1387 24.8707Z" fill="#FD5201"/>
<path fill-rule="evenodd" clip-rule="evenodd" d="M64.0156 0C69.3199 0 74.407 2.10714 78.1577 5.85786C81.9084 9.60859 84.0156 14.6957 84.0156 20C84.0156 25.3043 81.9084 30.3914 78.1577 34.1421C74.407 37.8929 69.3199 40 64.0156 40C58.7112 40 53.6242 37.8929 49.8734 34.1421C46.1227 30.3914 44.0156 25.3043 44.0156 20C44.0156 14.6957 46.1227 9.60859 49.8734 5.85786C53.6242 2.10714 58.7112 0 64.0156 0ZM56.5909 12.5754C58.5601 10.6062 61.2308 9.5 64.0156 9.5C66.8003 9.5 69.4711 10.6062 71.4402 12.5754C73.4093 14.5445 74.5156 17.2152 74.5156 20C74.5156 22.7848 73.4093 25.4555 71.4402 27.4246C69.4711 29.3937 66.8003 30.5 64.0156 30.5C61.2308 30.5 58.5601 29.3937 56.5909 27.4246C54.6218 25.4555 53.5156 22.7848 53.5156 20C53.5156 17.2152 54.6218 14.5445 56.5909 12.5754Z" fill="#3C0061"/>
<path fill-rule="evenodd" clip-rule="evenodd" d="M64.0156 45C77.3656 45 104.016 51.65 104.016 65V80H24.0156V65C24.0156 51.65 50.6656 45 64.0156 45ZM33.5156 65C33.5156 61.8 49.0156 54.5 64.0156 54.5C78.8656 54.5 94.5156 61.8 94.5156 65V70.5H33.5156V65Z" fill="#3C0061"/>
</svg>
