<svg width="32" height="32" viewBox="0 0 32 32" fill="none" xmlns="http://www.w3.org/2000/svg">
<path d="M20.0005 5.33333C21.415 5.33333 22.7715 5.89524 23.7717 6.89543C24.7719 7.89562 25.3338 9.25218 25.3338 10.6667C25.3338 12.0812 24.7719 13.4377 23.7717 14.4379C22.7715 15.4381 21.415 16 20.0005 16C18.586 16 17.2295 15.4381 16.2293 14.4379C15.2291 13.4377 14.6672 12.0812 14.6672 10.6667C14.6672 9.25218 15.2291 7.89562 16.2293 6.89543C17.2295 5.89524 18.586 5.33333 20.0005 5.33333ZM20.0005 7.86667C19.2579 7.86667 18.5457 8.16167 18.0206 8.68677C17.4955 9.21187 17.2005 9.92406 17.2005 10.6667C17.2005 11.4093 17.4955 12.1215 18.0206 12.6466C18.5457 13.1717 19.2579 13.4667 20.0005 13.4667C20.7431 13.4667 21.4553 13.1717 21.9804 12.6466C22.5055 12.1215 22.8005 11.4093 22.8005 10.6667C22.8005 9.92406 22.5055 9.21187 21.9804 8.68677C21.4553 8.16167 20.7431 7.86667 20.0005 7.86667ZM20.0005 17.3333C23.5605 17.3333 30.6672 19.1067 30.6672 22.6667V26.6667H9.33384V22.6667C9.33384 19.1067 16.4405 17.3333 20.0005 17.3333ZM20.0005 19.8667C16.0005 19.8667 11.8672 21.8133 11.8672 22.6667V24.1333H28.1338V22.6667C28.1338 21.8133 23.9605 19.8667 20.0005 19.8667Z" fill="#FD5201"/>
<path d="M11.5 11.9655L6.46569 16.9998L4.34469 14.8788L2.92969 16.2928L6.46569 19.8288L12.915 13.3795L11.5 11.9655Z" fill="#FD5201"/>
</svg>
