<svg width="28" height="28" viewBox="0 0 28 28" fill="none" xmlns="http://www.w3.org/2000/svg">
<path fill-rule="evenodd" clip-rule="evenodd" d="M6.99991 9.11225V6.125C6.99991 5.42881 7.27647 4.76113 7.76875 4.26884C8.26104 3.77656 8.92872 3.5 9.62491 3.5L15.7499 3.5V7C15.7499 8.39239 16.303 9.72775 17.2876 10.7123C18.2722 11.6969 19.6075 12.25 20.9999 12.25H24.4999V18.375C24.4999 19.0712 24.2233 19.7389 23.7311 20.2312C23.2388 20.7234 22.5711 21 21.8749 21H18.8877C18.7144 21.6108 18.4834 22.1952 18.1999 22.75H21.8749C23.0352 22.75 24.148 22.2891 24.9685 21.4686C25.789 20.6481 26.2499 19.5353 26.2499 18.375V10.8745C26.2498 10.1788 25.9734 9.5116 25.4817 9.0195L18.9804 2.52C18.4886 2.02757 17.8214 1.75061 17.1254 1.75H9.62491C8.46459 1.75 7.35179 2.21094 6.53132 3.03141C5.71084 3.85188 5.24991 4.96468 5.24991 6.125V9.8C5.80924 9.51383 6.3954 9.28347 6.99991 9.11225ZM24.2444 10.255C24.3152 10.3262 24.3732 10.4091 24.4159 10.5H20.9999C20.0717 10.5 19.1814 10.1313 18.525 9.47487C17.8687 8.8185 17.4999 7.92826 17.4999 7V3.584C17.5902 3.62686 17.6725 3.68486 17.7432 3.7555L24.2444 10.255Z" fill="#444444"/>
<path fill-rule="evenodd" clip-rule="evenodd" d="M17.9377 18.1369C17.9377 16.0483 17.1081 14.0453 15.6312 12.5685C14.1544 11.0916 12.1513 10.2619 10.0627 10.2619C7.97416 10.2619 5.97113 11.0916 4.49428 12.5685C3.01743 14.0453 2.18774 16.0483 2.18774 18.1369C2.18774 20.2255 3.01743 22.2285 4.49428 23.7054C5.97113 25.1822 7.97416 26.0119 10.0627 26.0119C12.1513 26.0119 14.1544 25.1822 15.6312 23.7054C17.1081 22.2285 17.9377 20.2255 17.9377 18.1369ZM8.20659 15.0433C8.04249 14.8792 7.81993 14.787 7.58787 14.787C7.35581 14.787 7.13325 14.8792 6.96915 15.0433C6.80506 15.2074 6.71287 15.43 6.71287 15.662C6.71287 15.8941 6.80506 16.1167 6.96915 16.2808L8.82531 18.1369L6.96915 19.9931C6.80506 20.1572 6.71287 20.3797 6.71287 20.6118C6.71287 20.8439 6.80506 21.0664 6.96915 21.2305C7.13325 21.3946 7.35581 21.4868 7.58787 21.4868C7.81993 21.4868 8.04249 21.3946 8.20659 21.2305L10.0627 19.3744L11.9189 21.2305C12.083 21.3946 12.3056 21.4868 12.5376 21.4868C12.7697 21.4868 12.9922 21.3946 13.1563 21.2305C13.3204 21.0664 13.4126 20.8439 13.4126 20.6118C13.4126 20.3797 13.3204 20.1572 13.1563 19.9931L11.3002 18.1369L13.1563 16.2808C13.3204 16.1167 13.4126 15.8941 13.4126 15.662C13.4126 15.43 13.3204 15.2074 13.1563 15.0433C12.9922 14.8792 12.7697 14.787 12.5376 14.787C12.3056 14.787 12.083 14.8792 11.9189 15.0433L10.0627 16.8995L8.20659 15.0433Z" fill="#444444"/>
</svg>
