<svg width="32" height="32" viewBox="0 0 32 32" fill="none" xmlns="http://www.w3.org/2000/svg">
<path d="M15.9998 29.3333C8.63584 29.3333 2.6665 23.364 2.6665 16C2.6665 8.63596 8.63584 2.66663 15.9998 2.66663C23.3638 2.66663 29.3332 8.63596 29.3332 16C29.3332 23.364 23.3638 29.3333 15.9998 29.3333ZM15.9998 26.6666C18.8288 26.6666 21.5419 25.5428 23.5423 23.5424C25.5427 21.542 26.6665 18.8289 26.6665 16C26.6665 13.171 25.5427 10.4579 23.5423 8.45749C21.5419 6.4571 18.8288 5.33329 15.9998 5.33329C13.1709 5.33329 10.4578 6.4571 8.45736 8.45749C6.45698 10.4579 5.33317 13.171 5.33317 16C5.33317 18.8289 6.45698 21.542 8.45736 23.5424C10.4578 25.5428 13.1709 26.6666 15.9998 26.6666ZM9.33317 15.3333L21.3332 10.6666L16.6665 22.6693L14.6665 17.3333L9.33317 15.3333Z" fill="#FD5201"/>
</svg>
