<svg width="40" height="40" viewBox="0 0 40 40" fill="none" xmlns="http://www.w3.org/2000/svg">
<path fill-rule="evenodd" clip-rule="evenodd" d="M10 13.0175L10 8.75C10 7.75544 10.3951 6.80161 11.0983 6.09835C11.8016 5.39509 12.7554 5 13.75 5L22.5 5V10C22.5 11.9891 23.2902 13.8968 24.6967 15.3033C26.1032 16.7098 28.0109 17.5 30 17.5H35V26.25C35 27.2446 34.6049 28.1984 33.9017 28.9017C33.1984 29.6049 32.2446 30 31.25 30H26.9825C26.735 30.8725 26.405 31.7075 26 32.5H31.25C32.9076 32.5 34.4973 31.8415 35.6694 30.6694C36.8415 29.4973 37.5 27.9076 37.5 26.25V15.535C37.4998 14.5411 37.105 13.588 36.4025 12.885L27.115 3.6C26.4124 2.89654 25.4592 2.50088 24.465 2.5H13.75C12.0924 2.5 10.5027 3.15848 9.33058 4.33058C8.15848 5.50269 7.5 7.0924 7.5 8.75V14C8.29905 13.5912 9.13642 13.2621 10 13.0175ZM34.635 14.65C34.7361 14.7517 34.819 14.8701 34.88 15H30C28.6739 15 27.4021 14.4732 26.4645 13.5355C25.5268 12.5979 25 11.3261 25 10V5.12C25.129 5.18123 25.2465 5.26409 25.3475 5.365L34.635 14.65Z" fill="#C5C5C5"/>
<path fill-rule="evenodd" clip-rule="evenodd" d="M25 26.25C25 32.4632 19.9632 37.5 13.75 37.5C7.53677 37.5 2.5 32.4632 2.5 26.25C2.5 20.0368 7.53677 15 13.75 15C19.9632 15 25 20.0368 25 26.25ZM17.125 32.4988C17.0333 32.4992 16.9447 32.4594 16.8758 32.3872L13.75 29.0787L10.6242 32.3872C10.5701 32.4445 10.5032 32.4819 10.4317 32.4949C10.3601 32.5079 10.2869 32.496 10.2209 32.4606C10.155 32.4252 10.099 32.3678 10.0597 32.2954C10.0206 32.223 9.99985 32.1386 10 32.0525V21.7855C10.0005 21.3121 10.1586 20.8583 10.4398 20.5235C10.7211 20.1888 11.1023 20.0005 11.5 20H16C16.3977 20.0005 16.7789 20.1888 17.0602 20.5235C17.3414 20.8583 17.4995 21.3121 17.5 21.7855V32.0525C17.5 32.1708 17.4605 32.2844 17.3901 32.3681C17.3199 32.4518 17.2244 32.4988 17.125 32.4988Z" fill="#C5C5C5"/>
</svg>
