<svg width="32" height="32" viewBox="0 0 32 32" fill="none" xmlns="http://www.w3.org/2000/svg">
<circle cx="10.7999" cy="21.2" r="8.4" fill="#FD5201"/>
<path fill-rule="evenodd" clip-rule="evenodd" d="M8 10.414L8 7C8 6.20435 8.31607 5.44129 8.87868 4.87868C9.44129 4.31607 10.2044 4 11 4H18V8C18 9.5913 18.6321 11.1174 19.7574 12.2426C20.8826 13.3679 22.4087 14 24 14H28V21C28 21.7957 27.6839 22.5587 27.1213 23.1213C26.5587 23.6839 25.7957 24 25 24H21.586C21.388 24.698 21.124 25.366 20.8 26H25C26.3261 26 27.5979 25.4732 28.5355 24.5355C29.4732 23.5979 30 22.3261 30 21V12.428C29.9998 11.6329 29.684 10.8704 29.122 10.308L21.692 2.88C21.1299 2.31723 20.3674 2.0007 19.572 2H11C9.67392 2 8.40215 2.52679 7.46447 3.46447C6.52678 4.40215 6 5.67392 6 7V11.2C6.63924 10.873 7.30914 10.6097 8 10.414ZM27.708 11.72C27.7889 11.8014 27.8552 11.8961 27.904 12H24C22.9391 12 21.9217 11.5786 21.1716 10.8284C20.4214 10.0783 20 9.06087 20 8V4.096C20.1032 4.14498 20.1972 4.21127 20.278 4.292L27.708 11.72Z" fill="#3C0061"/>
<path fill-rule="evenodd" clip-rule="evenodd" d="M11 30C15.9706 30 20 25.9706 20 21C20 16.0294 15.9706 12 11 12C6.02942 12 2 16.0294 2 21C2 25.9706 6.02942 30 11 30ZM13.7 25.9991C13.6266 25.9993 13.5557 25.9676 13.5007 25.9098L11 23.2629L8.49933 25.9098C8.45605 25.9556 8.40253 25.9855 8.34534 25.9959C8.28809 26.0063 8.22955 25.9968 8.17676 25.9685C8.12396 25.9402 8.07916 25.8943 8.04779 25.8363C8.01648 25.7784 7.99988 25.7109 8 25.642V17.4284C8.00037 17.0497 8.12689 16.6866 8.35187 16.4188C8.57684 16.151 8.88184 16.0004 9.20001 16H12.8C13.1182 16.0004 13.4232 16.151 13.6481 16.4188C13.8731 16.6866 13.9996 17.0497 14 17.4284V25.642C14 25.7367 13.9684 25.8275 13.9121 25.8945C13.8559 25.9614 13.7795 25.9991 13.7 25.9991Z" fill="#3C0061"/>
</svg>
