<svg width="28" height="28" viewBox="0 0 28 28" fill="none" xmlns="http://www.w3.org/2000/svg">
<path fill-rule="evenodd" clip-rule="evenodd" d="M7 9.11225L7 6.125C7 5.42881 7.27656 4.76113 7.76884 4.26885C8.26113 3.77656 8.92881 3.5 9.625 3.5L15.75 3.5V7C15.75 8.39239 16.3031 9.72775 17.2877 10.7123C18.2723 11.6969 19.6076 12.25 21 12.25H24.5V18.375C24.5 19.0712 24.2234 19.7389 23.7312 20.2312C23.2389 20.7234 22.5712 21 21.875 21H18.8878C18.7145 21.6108 18.4835 22.1953 18.2 22.75H21.875C23.0353 22.75 24.1481 22.2891 24.9686 21.4686C25.7891 20.6481 26.25 19.5353 26.25 18.375V10.8745C26.2499 10.1788 25.9735 9.5116 25.4818 9.0195L18.9805 2.52C18.4887 2.02758 17.8215 1.75061 17.1255 1.75H9.625C8.46468 1.75 7.35188 2.21094 6.53141 3.03141C5.71094 3.85188 5.25 4.96468 5.25 6.125V9.8C5.80933 9.51384 6.3955 9.28347 7 9.11225ZM24.2445 10.255C24.3153 10.3262 24.3733 10.4091 24.416 10.5H21C20.0717 10.5 19.1815 10.1313 18.5251 9.47487C17.8687 8.8185 17.5 7.92826 17.5 7V3.584C17.5903 3.62686 17.6726 3.68486 17.7432 3.7555L24.2445 10.255Z" fill="#444444"/>
<path fill-rule="evenodd" clip-rule="evenodd" d="M17.5 18.375C17.5 22.7242 13.9743 26.25 9.625 26.25C5.27574 26.25 1.75 22.7242 1.75 18.375C1.75 14.0258 5.27574 10.5 9.625 10.5C13.9743 10.5 17.5 14.0258 17.5 18.375ZM11.9875 22.7492C11.9233 22.7494 11.8613 22.7216 11.8131 22.6711L9.625 20.3551L7.43691 22.6711C7.39905 22.7111 7.35221 22.7373 7.30217 22.7464C7.25208 22.7555 7.20086 22.7472 7.15466 22.7224C7.10847 22.6976 7.06927 22.6575 7.04182 22.6068C7.01442 22.5561 6.99989 22.497 7 22.4367V15.2499C7.00032 14.9185 7.11103 14.6008 7.30788 14.3665C7.50474 14.1322 7.77161 14.0004 8.05001 14H11.2C11.4784 14.0004 11.7453 14.1322 11.9421 14.3665C12.139 14.6008 12.2497 14.9185 12.25 15.2499V22.4367C12.25 22.5196 12.2223 22.5991 12.1731 22.6577C12.1239 22.7163 12.0571 22.7492 11.9875 22.7492Z" fill="#444444"/>
</svg>
