<svg width="32" height="32" viewBox="0 0 32 32" fill="none" xmlns="http://www.w3.org/2000/svg">
<path d="M25.6818 27.6245L18.0455 19.9772C17.3636 20.5235 16.5795 20.9559 15.6932 21.2745C14.8068 21.5932 13.8636 21.7525 12.8636 21.7525C10.3864 21.7525 8.29 20.8935 6.57455 19.1756C4.85818 17.4568 4 15.357 4 12.8762C4 10.3954 4.85818 8.29565 6.57455 6.57684C8.29 4.85895 10.3864 4 12.8636 4C15.3409 4 17.4377 4.85895 19.1541 6.57684C20.8695 8.29565 21.7273 10.3954 21.7273 12.8762C21.7273 13.8777 21.5682 14.8222 21.25 15.7098C20.9318 16.5974 20.5 17.3826 19.9545 18.0654L27.625 25.7468C27.875 25.9972 28 26.3044 28 26.6686C28 27.0327 27.8636 27.3513 27.5909 27.6245C27.3409 27.8748 27.0227 28 26.6364 28C26.25 28 25.9318 27.8748 25.6818 27.6245ZM12.8636 19.0213C14.5682 19.0213 16.0173 18.4241 17.2109 17.2297C18.4036 16.0344 19 14.5832 19 12.8762C19 11.1693 18.4036 9.71812 17.2109 8.52279C16.0173 7.32836 14.5682 6.73115 12.8636 6.73115C11.1591 6.73115 9.71 7.32836 8.51636 8.52279C7.32364 9.71812 6.72727 11.1693 6.72727 12.8762C6.72727 14.5832 7.32364 16.0344 8.51636 17.2297C9.71 18.4241 11.1591 19.0213 12.8636 19.0213Z" fill="white"/>
</svg>
