<svg width="220" height="220" viewBox="0 0 220 220" fill="none" xmlns="http://www.w3.org/2000/svg">
<g clip-path="url(#clip0_2198_4865)">
<g clip-path="url(#clip1_2198_4865)">
<path opacity="0.3" d="M208.74 183.68C197.725 199.639 180.678 209.582 162.355 214.893C156.963 216.468 151.462 217.637 145.974 218.438C123.522 221.725 99.1817 219.837 76.6886 212.76C58.4062 207.028 41.3462 197.874 27.519 185.296C8.02768 167.57 -2.55331 138.503 0.502818 112.384C3.45028 87.2555 21.2301 75.2347 42.786 65.9712C63.0108 57.2647 78.6174 45.8687 95.4329 33.9702C100.825 30.1535 106.326 26.2959 112.153 22.4656C112.18 22.4656 112.194 22.4384 112.221 22.4249C129.987 10.7301 149.9 1.46662 171.401 0.135507C179.225 -0.353473 187.511 0.339249 194.03 4.68574C210.302 15.5112 207.966 36.0348 208.143 52.8774C208.238 61.8149 208.618 70.8067 209.569 79.7306C209.881 82.7596 210.262 85.7749 210.724 88.7767C210.805 89.3336 210.887 89.8905 210.982 90.4474C211.538 93.8974 212.19 97.3203 212.965 100.716C213.264 102.061 213.589 103.405 213.929 104.737C220.517 130.625 225.271 159.72 208.74 183.68Z" fill="#C6BEE3"/>
<path d="M63.5675 156.894C62.3179 152.425 60.2398 145.131 57.8764 141.152C55.7031 137.498 52.7013 134.415 49.7267 131.372C46.7385 128.316 43.7367 125.246 40.2187 122.815C34.4732 118.835 27.6547 116.784 20.9583 114.774C17.291 113.674 12.4284 112.981 10.3909 116.227C8.31278 119.541 11.3282 123.82 14.6967 125.817C18.0652 127.813 22.208 129.104 24.1367 132.513C25.7259 135.297 25.3999 138.829 26.8397 141.681C29.4612 146.856 36.7823 148.038 39.7298 153.037C41.5634 156.147 41.4412 160.385 44.0898 162.843C46.8335 165.397 51.8728 165.302 53.4076 168.725C55.0647 172.406 52.5655 175.964 56.8441 178.368C57.5492 178.761 59.1233 179.273 60.8753 179.773C64.4183 180.783 67.7258 177.895 67.1941 174.249C66.5344 169.724 65.4128 163.533 63.5675 156.894Z" fill="#4A9A60"/>
<path opacity="0.3" d="M68.6476 185.16C61.3265 159.435 46.3855 134.986 24.8296 121.837" stroke="white" stroke-width="1.35828" stroke-miterlimit="10"/>
<path d="M69.2043 129.674C65.2789 112.573 61.3534 95.4317 55.8117 78.7792C53.7063 72.4496 51.275 66.0386 46.9014 60.9994C44.9319 58.731 42.6228 56.7887 40.7484 54.4389C38.1269 51.1519 36.4834 47.1585 33.6717 44.0209C30.3439 40.3128 25.6986 38.126 21.1756 36.0342C18.2417 34.6759 14.4928 33.4127 12.0615 35.5452C9.56228 37.7456 10.4723 41.7797 11.6405 44.9038C14.9139 53.6375 18.5405 62.2218 22.5338 70.6431C25.6171 77.1629 28.9313 83.6011 32.7073 89.7405C35.4782 94.25 38.4936 98.5965 41.3188 103.065C43.9811 107.262 46.4667 111.554 48.6943 115.996C53.0272 124.608 56.3278 133.667 59.642 142.727C61.1769 146.951 62.7253 151.162 64.2602 155.386C65.4011 158.51 66.5421 161.634 68.1312 164.554C69.0685 166.293 72.0974 172.609 74.5016 169.92C76.1722 168.059 74.4337 159.121 74.2027 156.717C73.3063 147.59 71.2553 138.611 69.2043 129.674Z" fill="#59BB74"/>
<path opacity="0.3" d="M77.381 196.474C77.381 196.474 65.9986 105.7 21.8817 46.2487" stroke="white" stroke-width="1.35828" stroke-miterlimit="10"/>
<path d="M82.434 150.781C81.8364 145.158 84.8246 139.752 85.137 134.115C85.5173 127.378 82.0809 120.927 81.9722 114.176C81.85 106.026 86.5768 98.1618 85.4086 90.0936C84.7023 85.2717 81.945 80.966 80.9399 76.1848C78.6308 65.1964 85.8297 53.162 81.2387 42.9206C80.6139 41.5352 79.7175 40.1905 78.3456 39.5521C75.8328 38.3975 72.8853 40.109 71.1331 42.2551C66.1619 48.3266 66.6101 57.0875 63.7441 64.395C61.3671 70.4665 56.5452 76.6195 58.7049 82.7725C59.3433 84.579 60.525 86.1274 61.2313 87.9068C63.9479 94.8748 58.4332 102.834 60.4299 110.047C61.6116 114.325 64.4776 134.278 66.7731 139.888C68.0634 143.039 72.1111 145.158 72.0839 148.554C71.9648 159.793 74.5951 166.257 76.8002 169.687C78.2059 171.875 81.0823 171.736 82.5724 169.606C83.6513 168.063 84.6914 166.183 84.9876 164.364C85.7618 159.624 82.923 155.386 82.434 150.781Z" fill="#4A9A60"/>
<path opacity="0.3" d="M83.7514 196.474C83.7514 196.474 64.5861 98.6781 74.162 48.7478" stroke="white" stroke-width="1.35828" stroke-miterlimit="10"/>
<path d="M96.7094 25.1684C90.6515 30.683 86.6582 38.4116 85.6802 46.5477C85.0283 51.9401 83.6428 52.755 82.9908 58.1474C81.3337 71.7981 71.7715 83.2348 68.4708 96.5867C67.1126 102.088 66.8545 107.779 66.5964 113.443C66.5285 115.059 66.447 116.716 66.8681 118.292C67.1669 119.406 67.6966 120.452 68.2264 121.484C72.4778 129.701 77.3404 138.218 85.4086 142.755C92.458 146.734 100.92 147.06 109.015 147.291C119.854 147.604 130.68 147.902 141.519 148.215C146.368 148.351 151.258 148.486 156.012 147.481C160.766 146.476 165.398 144.221 168.345 140.378C173.371 133.817 172.325 124.404 169.364 116.676C166.403 108.947 161.771 101.816 160.1 93.7207C157.234 79.8119 163.523 65.0475 159.815 51.3424C158.579 46.7786 156.284 42.5815 153.947 38.4795C150.782 32.9378 157.492 29.5692 152.861 25.182C150.185 22.6556 142.891 21.1887 139.808 19.1784C134.049 15.4431 126.863 11.7758 119.868 13.6774C112.873 15.579 102.075 20.3194 96.723 25.182L96.7094 25.1684Z" fill="black"/>
<circle cx="71.0132" cy="120.126" r="17.1867" fill="black"/>
<circle cx="75.2192" cy="98.9955" r="12.9806" fill="black"/>
<circle cx="82.7647" cy="83.6885" r="12.9806" fill="black"/>
<circle cx="87.3387" cy="68.1145" r="12.9806" fill="black"/>
<circle cx="92.7026" cy="51.7953" r="12.9806" fill="black"/>
<circle cx="149.221" cy="43.7245" r="12.9806" fill="black"/>
<circle cx="98.462" cy="38.815" r="12.9806" fill="black"/>
<circle cx="155.978" cy="63.5535" r="12.9806" fill="black"/>
<circle cx="152.507" cy="80.7344" r="12.9806" fill="black"/>
<circle cx="156.963" cy="94.7852" r="10.0142" fill="black"/>
<circle cx="161.897" cy="109.956" r="10.0142" fill="black"/>
<circle cx="165.333" cy="124.482" r="10.0142" fill="black"/>
<g style="mix-blend-mode:multiply" opacity="0.2">
<path d="M97.5923 93.3814C102.781 100.526 111.338 102.156 119.664 102.265C124.296 102.332 128.928 102.305 133.6 102.169C137.322 102.061 141.193 101.504 144.29 99.4258C154.219 92.743 142.877 81.8904 146.409 73.2789C146.613 72.7899 146.776 72.1787 146.409 71.7984C146.205 71.5811 145.879 71.5132 145.58 71.4588C143.203 71.0242 140.595 70.5352 138.381 69.5165C136.901 68.8374 135.651 67.8866 134.076 67.3297C130.245 65.9578 126.157 65.4417 122.109 65.5367C117.518 65.6454 113.077 66.8407 108.445 66.9086C103.65 66.9901 98.5566 66.2159 94.0336 68.2397C94.1966 68.1718 92.1184 74.773 92.0233 75.2892C91.0318 80.8174 93.5582 87.8532 97.5923 93.395V93.3814Z" fill="black"/>
</g>
<path d="M147.169 55.8656C152.507 52.8095 153.553 61.8963 152.426 66.27C151.951 68.0765 151.271 69.8151 150.28 71.2413C148.949 73.17 145.254 76.2262 143.38 73.8084C142.524 72.7082 142.538 70.9832 142.592 69.4484C142.755 65.3328 143.556 57.9302 147.169 55.8656Z" fill="url(#paint0_linear_2198_4865)"/>
<path opacity="0.32" d="M175.449 183.028V183.014H175.436L175.449 183.028Z" fill="#EF92C7"/>
<path d="M214.758 82.9084L214.527 82.854C213.386 82.596 212.259 83.3294 212.001 84.4568L212.381 82.7454C212.68 81.4007 211.824 80.0424 210.479 79.7436C209.135 79.4448 207.776 80.3005 207.478 81.6452L207.939 79.5942C208.238 78.2495 207.382 76.8912 206.038 76.5924C204.693 76.2936 203.335 77.1493 203.036 78.494L202.764 79.7028C203.063 78.3581 202.207 76.9999 200.863 76.701C199.518 76.4022 198.16 77.2579 197.861 78.6026L193.976 96.0429C193.433 95.5404 193.053 94.8612 192.944 94.1006C192.713 92.2669 192.075 89.9171 190.431 89.6862C187.049 89.1972 184.889 94.8341 185.514 104.559C186.153 114.393 188.231 114.733 188.231 114.733L180.176 141.504L180.04 141.939L171.918 127.586L150.479 140.764L171.918 176.67C172.244 177.866 172.706 179.034 173.33 180.12L173.358 180.175C173.928 181.193 174.621 182.144 175.436 183.013C175.898 183.502 176.4 183.978 176.93 184.412C183.056 189.357 184.686 185.866 189.616 180.745C195.633 174.511 198.649 165.628 199.504 157.383C200.211 150.605 202.533 128.411 202.982 124.091L203.742 117.449C203.742 117.449 213.916 113.347 212.924 100.851L216.347 85.4483C216.605 84.3074 215.872 83.18 214.744 82.9219L214.758 82.9084Z" fill="url(#paint1_linear_2198_4865)"/>
<path opacity="0.1" d="M180.04 141.966L178.071 137.728L171.836 169.281C171.877 169.145 171.904 168.996 171.945 168.847L180.04 141.966Z" fill="#150A08"/>
<path d="M200.496 90.1889C200.496 90.1889 200.455 90.1889 200.428 90.1889C200.265 90.1482 200.156 89.9852 200.197 89.8222L202.479 79.5536C202.52 79.3906 202.683 79.2819 202.846 79.3227C203.009 79.3634 203.117 79.5264 203.077 79.6894L200.795 89.958C200.767 90.1074 200.632 90.2025 200.496 90.2025V90.1889Z" fill="#9D6244"/>
<path d="M205.277 91.8865C205.277 91.8865 205.236 91.8865 205.209 91.8865C205.046 91.8458 204.937 91.6828 204.978 91.5198L207.26 81.2512C207.301 81.0882 207.464 80.9796 207.627 81.0203C207.79 81.0611 207.898 81.224 207.858 81.387L205.576 91.6556C205.549 91.805 205.413 91.9001 205.277 91.9001V91.8865Z" fill="#9D6244"/>
<path d="M209.828 94.5627C209.828 94.5627 209.787 94.5627 209.76 94.5627C209.597 94.5219 209.488 94.3589 209.529 94.1959L211.811 83.9274C211.851 83.7644 212.014 83.6557 212.177 83.6965C212.34 83.7372 212.449 83.9002 212.408 84.0632L210.126 94.3318C210.099 94.4812 209.963 94.5763 209.828 94.5763V94.5627Z" fill="#9D6244"/>
<path d="M197.358 106.081C197.358 106.081 197.29 106.081 197.263 106.067C197.1 106.013 197.005 105.836 197.059 105.673C199.246 98.9906 193.718 96.2876 193.487 96.179C193.338 96.1111 193.27 95.9209 193.338 95.7715C193.406 95.6221 193.596 95.5542 193.745 95.6221C193.813 95.6493 200.007 98.651 197.644 105.877C197.603 106.013 197.481 106.094 197.345 106.094L197.358 106.081Z" fill="#9D6244"/>
<path d="M150.036 113.891C149.982 113.674 149.928 113.456 149.887 113.226C149.941 113.443 149.982 113.66 150.036 113.891Z" fill="#F9D9EB"/>
<path d="M149.751 112.655C149.697 112.424 149.642 112.193 149.588 111.976C149.642 112.207 149.697 112.424 149.751 112.655Z" fill="#F9D9EB"/>
<path d="M149.221 110.292C149.167 110.075 149.126 109.871 149.085 109.654C149.126 109.871 149.18 110.075 149.221 110.292Z" fill="#F9D9EB"/>
<path d="M150.349 115.154C150.294 114.937 150.24 114.72 150.199 114.502C150.254 114.72 150.308 114.937 150.349 115.154Z" fill="#F9D9EB"/>
<path d="M148.963 109.151C148.922 108.947 148.868 108.744 148.827 108.54C148.868 108.744 148.909 108.947 148.963 109.151Z" fill="#F9D9EB"/>
<path d="M151.639 120.506C151.571 120.248 151.517 119.99 151.449 119.745C151.517 120.003 151.571 120.248 151.639 120.506Z" fill="#F9D9EB"/>
<path d="M151.299 119.134C151.245 118.903 151.191 118.672 151.136 118.455C151.191 118.686 151.245 118.903 151.299 119.134Z" fill="#F9D9EB"/>
<path d="M150.973 117.762C150.919 117.531 150.865 117.3 150.81 117.083C150.865 117.314 150.919 117.531 150.973 117.762Z" fill="#F9D9EB"/>
<path d="M150.661 116.458C150.606 116.214 150.539 115.969 150.484 115.711C150.539 115.956 150.606 116.2 150.661 116.458Z" fill="#F9D9EB"/>
<path d="M148.298 106.027C148.257 105.864 148.23 105.701 148.203 105.538C148.23 105.701 148.27 105.864 148.298 106.027Z" fill="#F9D9EB"/>
<path d="M147.428 101.11C147.415 100.974 147.401 100.852 147.374 100.729C147.387 100.852 147.401 100.974 147.428 101.11Z" fill="#F9D9EB"/>
<path d="M147.347 100.499C147.319 100.308 147.306 100.118 147.292 99.9417C147.306 100.118 147.333 100.295 147.347 100.499Z" fill="#F9D9EB"/>
<path d="M147.931 104.166C147.904 104.003 147.877 103.854 147.849 103.704C147.877 103.854 147.904 104.017 147.931 104.166Z" fill="#F9D9EB"/>
<path d="M152.332 123.29C152.264 123.032 152.196 122.774 152.141 122.516C152.209 122.774 152.277 123.032 152.332 123.29Z" fill="#F9D9EB"/>
<path d="M147.781 103.324C147.754 103.174 147.727 103.052 147.713 102.903C147.741 103.039 147.754 103.174 147.781 103.324Z" fill="#F9D9EB"/>
<path d="M148.107 105.076C148.067 104.9 148.039 104.737 148.012 104.56C148.039 104.737 148.08 104.9 148.107 105.076Z" fill="#F9D9EB"/>
<path d="M153.798 129.036C153.731 128.764 153.663 128.506 153.595 128.248C153.663 128.506 153.731 128.778 153.798 129.036Z" fill="#F9D9EB"/>
<path d="M155.32 134.917C155.252 134.632 155.17 134.36 155.102 134.075C155.17 134.36 155.252 134.646 155.32 134.917Z" fill="#F9D9EB"/>
<path d="M153.065 126.157C152.997 125.898 152.929 125.64 152.875 125.382C152.943 125.64 153.011 125.898 153.065 126.157Z" fill="#F9D9EB"/>
<path d="M154.559 131.983C154.491 131.725 154.423 131.467 154.355 131.196C154.423 131.454 154.491 131.712 154.559 131.983Z" fill="#F9D9EB"/>
<path d="M155.7 136.371C155.619 136.085 155.551 135.8 155.469 135.501C155.551 135.787 155.619 136.072 155.7 136.371Z" fill="#F9D9EB"/>
<path d="M152.685 124.703C152.617 124.459 152.563 124.214 152.508 123.983C152.563 124.228 152.63 124.472 152.685 124.703Z" fill="#F9D9EB"/>
<path d="M173.018 126.89C171.796 126.428 170.071 121.253 169.46 119.963C166.24 113.28 162.369 102.183 154.451 99.5886C153.255 99.1947 139.754 96.8584 137.825 97.0758C127.353 98.2575 148.719 125.437 151.788 137.743C152.264 145.322 172.91 126.836 173.018 126.876V126.89Z" fill="#8352C2"/>
<path d="M153.507 216.992C148.115 218.568 135.682 218.685 130.194 219.486C106.881 220.462 99.182 219.836 76.6889 212.76L76.7976 197.289L76.947 175.136L76.9877 168.358L77.0692 156.337L55.6084 148.785L51.2212 147.237C51.2212 147.237 76.1184 94.7934 91.2089 95.3639C91.5621 95.3775 94.917 95.4997 99.5487 95.6763C101.342 95.7306 103.338 95.8121 105.43 95.8936C114.449 96.2332 125.22 96.6271 129.621 96.7901C130.898 96.8444 131.645 96.8716 131.645 96.8716C134.049 96.858 136.073 96.9123 137.784 97.1025C140.908 97.4013 142.986 98.0804 144.385 99.3436C147.523 102.142 147.17 107.833 147.265 118.645L154.844 139.386L156.909 145.023C159.068 150.931 158.376 157.641 155.075 162.857L150.606 169.933L153.507 216.992Z" fill="#8352C2"/>
<path d="M91.8201 161.376C91.8201 161.376 91.7794 161.376 91.7522 161.376L84.7028 159.923C84.5398 159.882 84.4311 159.719 84.4583 159.556C84.4854 159.393 84.662 159.271 84.825 159.312L91.5756 160.711L97.2804 137.009C97.3212 136.846 97.4842 136.737 97.6607 136.778C97.8237 136.819 97.9324 136.982 97.8916 137.158L92.1054 161.159C92.0646 161.295 91.9424 161.404 91.8065 161.404L91.8201 161.376Z" fill="white"/>
<path d="M115.59 152.086L113.321 199.123C113.199 201.568 115.087 203.659 117.546 203.782L139.061 203.945C141.492 204.067 143.584 202.206 143.72 199.761L146.49 153.525C146.64 151.081 144.765 148.975 142.321 148.826L120.303 147.861C117.831 147.712 115.712 149.614 115.59 152.086Z" fill="#3C0061"/>
<path opacity="0.2" d="M124.313 153.855C124.195 153.214 123.836 152.661 123.305 152.29C122.769 151.918 122.127 151.779 121.486 151.897C120.845 152.009 120.292 152.369 119.92 152.899C119.548 153.436 119.41 154.083 119.527 154.719C119.602 155.145 119.791 155.526 120.051 155.837C120.372 156.231 120.813 156.514 121.312 156.64C121.643 156.727 121.995 156.743 122.349 156.682C123.37 156.494 124.13 155.699 124.309 154.735C124.337 154.603 124.349 154.465 124.351 154.327C124.354 154.173 124.341 154.014 124.313 153.855Z" fill="#ECF1F7"/>
<path opacity="0.2" d="M123.167 160.211C123.084 159.755 122.828 159.362 122.451 159.098C122.07 158.833 121.613 158.735 121.157 158.818C120.701 158.898 120.308 159.154 120.044 159.531C119.78 159.912 119.681 160.373 119.765 160.825C119.818 161.127 119.952 161.399 120.137 161.62C120.365 161.9 120.679 162.101 121.033 162.191C121.269 162.253 121.519 162.264 121.771 162.221C122.497 162.087 123.037 161.521 123.164 160.836C123.184 160.742 123.193 160.644 123.194 160.546C123.196 160.437 123.187 160.324 123.167 160.211Z" fill="#ECF1F7"/>
<path d="M144.644 186.967C144.277 186.288 143.598 185.907 142.878 185.867C142.892 185.785 142.905 185.731 142.905 185.731C142.946 185.677 142.973 185.636 143.014 185.581L143.897 185.16C144.943 184.671 145.581 183.517 145.323 182.389C145.146 181.575 144.589 181.004 143.937 180.705C145.418 180.053 145.785 178.111 144.644 176.956L144.589 176.902C143.842 176.155 142.701 175.938 141.723 176.359C141.628 176.359 141.533 176.359 141.438 176.359C142.335 175.598 142.606 174.267 141.914 173.194C141.262 172.175 139.917 171.849 138.803 172.338L134.402 174.267L115.305 179.048L114.354 174.077L113.594 174.539C110.673 176.291 108.133 178.613 106.137 181.371L104.479 183.666C104.479 183.666 86.0205 177.934 74.1899 174.281L81.837 158.008L55.6086 148.772L46.481 169.486C45.6117 171.32 45.0684 173.208 44.8375 175.082C43.7916 179.836 44.9462 183.585 47.5541 186.546C48.8852 188.407 50.6374 189.941 52.797 190.96C53.449 191.273 54.1281 191.517 54.8073 191.694C67.48 197.697 83.7793 197.602 92.9341 199.042C97.267 199.721 100.962 200.129 104.004 200.346C111.936 200.916 120.521 206.35 127.19 202.03C133.153 198.159 138.966 193.582 140.189 192.183C140.352 192.006 140.501 191.802 140.637 191.612L143.829 189.887C144.848 189.33 145.241 188.04 144.685 187.021L144.644 186.953V186.967Z" fill="url(#paint2_linear_2198_4865)"/>
<path opacity="0.1" d="M62.074 170.585L76.9743 168.385L74.2034 174.294L62.074 170.585Z" fill="#150A08"/>
<path d="M131.916 180.745C131.794 180.745 131.686 180.678 131.631 180.555C131.563 180.392 131.631 180.216 131.794 180.148L141.424 175.924C141.587 175.856 141.764 175.924 141.832 176.087C141.9 176.25 141.832 176.426 141.669 176.494L132.039 180.718C132.039 180.718 131.957 180.745 131.916 180.745Z" fill="#9D6244"/>
<path d="M133.302 185.445C133.18 185.445 133.071 185.377 133.017 185.255C132.949 185.092 133.017 184.915 133.18 184.847L142.81 180.623C142.973 180.555 143.149 180.623 143.217 180.786C143.285 180.949 143.217 181.126 143.054 181.194L133.424 185.418C133.424 185.418 133.343 185.445 133.302 185.445Z" fill="#9D6244"/>
<path d="M133.234 190.62C133.112 190.62 133.003 190.552 132.949 190.443C132.881 190.294 132.949 190.104 133.098 190.036L142.606 185.526C142.756 185.458 142.946 185.526 143.014 185.676C143.082 185.825 143.014 186.015 142.864 186.083L133.356 190.593C133.356 190.593 133.261 190.62 133.221 190.62H133.234Z" fill="#9D6244"/>
<path d="M104.995 74.6918L105.593 103.705L113.131 106.747C118.401 108.88 124.432 107.508 128.249 103.311L129.811 101.599L128.765 75.5475L104.995 74.6918Z" fill="url(#paint3_linear_2198_4865)"/>
<path d="M98.4755 54.2628C98.5706 49.2915 99.3312 44.5919 100.662 40.6936C106.421 23.8782 127.556 20.0071 140.066 32.3131C154.015 46.0317 148.148 78.2772 133.071 89.4287C129.037 92.4033 123.617 93.3948 118.795 92.023C104.207 87.8802 98.1631 69.7744 98.4755 54.2493V54.2628Z" fill="url(#paint4_linear_2198_4865)"/>
<path d="M98.462 62.7249C97.5792 63.4583 96.6691 64.1375 95.7455 64.7759C95.9221 64.4634 96.1258 64.1782 96.3839 63.9337C96.9679 63.3904 97.7422 63.0916 98.462 62.7249Z" fill="#0B2D4E"/>
<path d="M99.9695 61.4753C99.9152 61.5704 99.8608 61.6519 99.7929 61.7334C99.4533 62.1816 98.9779 62.4805 98.4618 62.725C98.9644 62.3311 99.4805 61.91 99.9695 61.4753Z" fill="#0B2D4E"/>
<path d="M145.92 37.162C140.976 42.8396 130.014 43.3422 123.223 45.0944C112.859 47.7702 101.287 56.8435 95.6092 65.876C94.6856 67.3565 93.5446 68.8914 91.8468 69.3396C86.4408 70.7794 87.4052 59.8317 87.4052 57.088C87.4052 40.8022 98.0269 25.9019 114.082 21.895C123.644 19.5044 134.211 21.4196 142.334 27.0157C145.268 29.0395 148.134 32.5031 146.776 35.7902C146.572 36.2927 146.273 36.741 145.92 37.162Z" fill="black"/>
<path d="M98.3667 55.8656C93.0287 52.8095 91.9828 61.8963 93.1102 66.27C93.5856 68.0765 94.2647 69.8151 95.2562 71.2413C96.5874 73.17 100.282 76.2262 102.156 73.8084C103.012 72.7082 102.998 70.9832 102.944 69.4484C102.781 65.3328 101.98 57.9302 98.3667 55.8656Z" fill="url(#paint5_linear_2198_4865)"/>
<path d="M113.525 68.4843C111.298 68.4843 109.138 67.8052 107.277 66.5148C104.873 64.8441 103.257 62.3313 102.74 59.4382C102.224 56.545 102.863 53.6383 104.533 51.2342C106.204 48.83 108.717 47.2137 111.61 46.6975C114.489 46.1814 117.41 46.8198 119.814 48.4904C122.218 50.1611 123.834 52.6739 124.351 55.5671C124.867 58.4602 124.228 61.3669 122.558 63.7711C120.887 66.1752 118.374 67.7916 115.481 68.3077C114.829 68.43 114.177 68.4843 113.525 68.4843ZM113.566 48.2867C113.023 48.2867 112.466 48.341 111.922 48.4361C109.505 48.8708 107.386 50.2155 105.987 52.2393C104.574 54.2631 104.044 56.708 104.479 59.1258C104.914 61.5435 106.258 63.6624 108.282 65.0614C110.306 66.4741 112.751 67.0038 115.169 66.5691C117.586 66.1345 119.705 64.7898 121.104 62.766C122.503 60.7421 123.047 58.2972 122.612 55.8795C122.177 53.4617 120.819 51.3428 118.809 49.9438C117.247 48.8572 115.427 48.2867 113.566 48.2867Z" fill="white"/>
<path d="M139.102 68.8915C136.874 68.8915 134.715 68.2123 132.854 66.922C130.45 65.2513 128.833 62.7385 128.317 59.8454C127.801 56.9522 128.439 54.0455 130.11 51.6414C131.781 49.2372 134.294 47.6209 137.187 47.1047C143.15 46.0317 148.868 50.0114 149.927 55.9743C150.443 58.8674 149.805 61.7741 148.134 64.1918C146.464 66.596 143.951 68.2123 141.058 68.7285C140.406 68.8507 139.754 68.9051 139.102 68.9051V68.8915ZM139.129 48.6939C138.586 48.6939 138.042 48.7346 137.499 48.8433C135.081 49.2779 132.962 50.6226 131.563 52.6465C130.164 54.6703 129.621 57.1152 130.056 59.533C130.49 61.9507 131.835 64.0696 133.859 65.4686C135.883 66.8812 138.328 67.411 140.745 66.9763C143.163 66.5417 145.282 65.197 146.681 63.1731C148.08 61.1493 148.623 58.7044 148.189 56.2867C147.387 51.8315 143.503 48.6939 139.129 48.6939Z" fill="white"/>
<path d="M124.582 58.7862C124.12 58.7862 123.74 58.4331 123.699 57.9712C123.658 57.4823 124.025 57.0612 124.514 57.0205L128.453 56.708C128.942 56.6673 129.363 57.034 129.404 57.523C129.444 58.012 129.078 58.4331 128.589 58.4738L124.65 58.7862C124.65 58.7862 124.609 58.7862 124.582 58.7862Z" fill="white"/>
<circle cx="208.627" cy="203.685" r="3.29878" stroke="url(#paint6_linear_2198_4865)" stroke-width="0.982095"/>
<circle opacity="0.3" cx="3.46567" cy="58.6172" r="3.48313" fill="#C6BEE3"/>
<circle opacity="0.7" cx="22.6066" cy="100.268" r="2.22302" fill="white"/>
<circle opacity="0.7" cx="163.246" cy="187.668" r="2.22302" fill="white"/>
<circle opacity="0.7" cx="211.074" cy="147.854" r="3.20752" fill="white"/>
<circle cx="183.438" cy="34.4041" r="3.34484" stroke="white" stroke-width="0.982095"/>
<circle cx="24.8295" cy="162.275" r="5.03318" stroke="white" stroke-width="0.982095"/>
<circle opacity="0.3" cx="216.447" cy="64.2658" r="2.16584" fill="#C6BEE3"/>
<rect x="159.184" y="0.000610352" width="51.7849" height="31.0898" rx="3.82897" fill="#FC5201"/>
<rect x="183.309" y="11.0061" width="21.1872" height="3.0542" rx="1.5271" fill="white"/>
<rect x="183.309" y="17.0309" width="13.7614" height="3.0542" rx="1.5271" fill="white"/>
<path d="M175.074 10.4393C174.513 9.87836 173.752 9.56323 172.959 9.56323C172.165 9.56323 171.405 9.87836 170.844 10.4393C170.283 11.0002 169.968 11.761 169.968 12.5543C169.968 13.3476 170.283 14.1084 170.844 14.6693C171.405 15.2303 172.165 15.5454 172.959 15.5454C173.752 15.5454 174.513 15.2303 175.074 14.6693C175.635 14.1084 175.95 13.3476 175.95 12.5543C175.95 11.761 175.635 11.0002 175.074 10.4393Z" fill="white"/>
<path d="M166.977 21.5276H178.941V20.032C178.941 18.043 174.948 17.041 172.959 17.041C170.97 17.041 166.977 18.043 166.977 20.032V21.5276Z" fill="white"/>
</g>
</g>
<defs>
<linearGradient id="paint0_linear_2198_4865" x1="147.702" y1="55.2498" x2="147.702" y2="74.7003" gradientUnits="userSpaceOnUse">
<stop stop-color="#C07B58"/>
<stop offset="1" stop-color="#995F41"/>
</linearGradient>
<linearGradient id="paint1_linear_2198_4865" x1="183.439" y1="76.5328" x2="183.439" y2="186.798" gradientUnits="userSpaceOnUse">
<stop stop-color="#C07B58"/>
<stop offset="1" stop-color="#995F41"/>
</linearGradient>
<linearGradient id="paint2_linear_2198_4865" x1="94.9171" y1="148.772" x2="94.9171" y2="203.685" gradientUnits="userSpaceOnUse">
<stop stop-color="#C07B58"/>
<stop offset="1" stop-color="#995F41"/>
</linearGradient>
<linearGradient id="paint3_linear_2198_4865" x1="104.995" y1="114.108" x2="113.937" y2="81.3509" gradientUnits="userSpaceOnUse">
<stop stop-color="#C07B58"/>
<stop offset="1" stop-color="#995F41"/>
</linearGradient>
<linearGradient id="paint4_linear_2198_4865" x1="123.219" y1="25.1033" x2="123.219" y2="92.6298" gradientUnits="userSpaceOnUse">
<stop stop-color="#C07B58"/>
<stop offset="1" stop-color="#995F41"/>
</linearGradient>
<linearGradient id="paint5_linear_2198_4865" x1="97.8341" y1="55.2498" x2="97.8341" y2="74.7003" gradientUnits="userSpaceOnUse">
<stop stop-color="#C07B58"/>
<stop offset="1" stop-color="#995F41"/>
</linearGradient>
<linearGradient id="paint6_linear_2198_4865" x1="214.886" y1="196.668" x2="201.626" y2="210.129" gradientUnits="userSpaceOnUse">
<stop stop-color="#C6BEE3"/>
<stop offset="0.239" stop-color="#C6BEE3" stop-opacity="0.542247"/>
<stop offset="1" stop-color="#C6BEE3" stop-opacity="0"/>
</linearGradient>
<clipPath id="clip0_2198_4865">
<rect width="220" height="220" fill="white"/>
</clipPath>
<clipPath id="clip1_2198_4865">
<rect width="220.027" height="220" fill="white" transform="translate(-0.0135498 -0.000366211)"/>
</clipPath>
</defs>
</svg>
