<svg width="32" height="32" viewBox="0 0 32 32" fill="none" xmlns="http://www.w3.org/2000/svg">
<path d="M22.6666 3.99992H18.6666V6.66658H22.6666V27.9999H9.33329V6.66658H13.3333V3.99992H9.33329C8.62605 3.99992 7.94777 4.28087 7.44767 4.78097C6.94758 5.28106 6.66663 5.95934 6.66663 6.66658V27.9999C6.66663 28.7072 6.94758 29.3854 7.44767 29.8855C7.94777 30.3856 8.62605 30.6666 9.33329 30.6666H22.6666C23.3739 30.6666 24.0521 30.3856 24.5522 29.8855C25.0523 29.3854 25.3333 28.7072 25.3333 27.9999V6.66658C25.3333 5.95934 25.0523 5.28106 24.5522 4.78097C24.0521 4.28087 23.3739 3.99992 22.6666 3.99992ZM16 9.33325C16.7072 9.33325 17.3855 9.6142 17.8856 10.1143C18.3857 10.6144 18.6666 11.2927 18.6666 11.9999C18.6666 12.7072 18.3857 13.3854 17.8856 13.8855C17.3855 14.3856 16.7072 14.6666 16 14.6666C15.2927 14.6666 14.6144 14.3856 14.1143 13.8855C13.6142 13.3854 13.3333 12.7072 13.3333 11.9999C13.3333 11.2927 13.6142 10.6144 14.1143 10.1143C14.6144 9.6142 15.2927 9.33325 16 9.33325ZM21.3333 19.9999H10.6666V18.6666C10.6666 16.8933 14.2266 15.9999 16 15.9999C17.7733 15.9999 21.3333 16.8933 21.3333 18.6666V19.9999ZM21.3333 23.9999H10.6666V22.6666H21.3333V23.9999ZM16 26.6666H10.6666V25.3333H16V26.6666ZM17.3333 6.66658H14.6666V1.33325H17.3333V6.66658Z" fill="#FD5201"/>
</svg>
