<svg width="24" height="24" viewBox="0 0 24 24" fill="none" xmlns="http://www.w3.org/2000/svg">
<path fill-rule="evenodd" clip-rule="evenodd" d="M15 1C11.6863 1 9 3.68629 9 7C9 10.3137 11.6863 13 15 13C18.3137 13 21 10.3137 21 7C21 3.68629 18.3137 1 15 1ZM11 7C11 4.79086 12.7909 3 15 3C17.2091 3 19 4.79086 19 7C19 9.20914 17.2091 11 15 11C12.7909 11 11 9.20914 11 7Z" fill="#FC5201"/>
<path d="M20.9995 22.4895C21.0116 21.3318 20.8067 19.7589 20.0313 18.5303C19.3069 17.3824 18.0174 16.4186 15.5325 16.4995C14.9805 16.5174 14.5185 16.0845 14.5005 15.5325C14.4826 14.9805 14.9155 14.5185 15.4675 14.5005C18.6292 14.3976 20.6025 15.6879 21.7227 17.4629C22.7919 19.1571 23.0134 21.1762 22.9994 22.5104C22.9936 23.0627 22.5412 23.5057 21.989 23.4999C21.4367 23.4941 20.9937 23.0418 20.9995 22.4895Z" fill="#FC5201"/>
<path fill-rule="evenodd" clip-rule="evenodd" d="M12 17C12 19.7614 9.76142 22 7 22C4.23858 22 2 19.7614 2 17C2 14.2386 4.23858 12 7 12C9.76142 12 12 14.2386 12 17ZM8.1562 17.5993H3.98879C3.71884 17.5993 3.5 17.331 3.5 17C3.5 16.669 3.71884 16.4007 3.98879 16.4007H8.15619L7.29625 15.3634C7.13366 15.1673 7.13139 14.8839 7.29082 14.6852C7.50341 14.4202 7.90559 14.417 8.12239 14.6785L9.93439 16.8642C9.93893 16.8697 9.94381 16.8747 9.949 16.8792C10.0167 16.9384 10.0167 17.0616 9.949 17.1208C9.94382 17.1253 9.93893 17.1303 9.93439 17.1358L8.12242 19.3215C7.90562 19.583 7.50344 19.5798 7.29085 19.3148C7.13142 19.1161 7.13369 18.8327 7.29628 18.6366L8.1562 17.5993Z" fill="#FC5201"/>
</svg>
