<svg width="172" height="34" viewBox="0 0 172 34" fill="none" xmlns="http://www.w3.org/2000/svg">
<g clip-path="url(#clip0_87_3452)">
<path d="M58.5146 16.5355C57.6069 16.1175 56.6276 15.7926 55.5768 15.5609C54.5247 15.3304 53.5467 15.0987 52.639 14.867C51.7313 14.6366 50.983 14.3331 50.3929 13.9566C49.8029 13.5813 49.5078 13.0461 49.5078 12.3535C49.5078 11.7755 49.6811 11.2857 50.0263 10.8802C50.3716 10.476 50.8261 10.1649 51.3873 9.94836C51.9485 9.73176 52.5611 9.62347 53.224 9.62347C54.2033 9.62347 55.0959 9.81236 55.9032 10.1864C56.7092 10.5616 57.3432 11.2127 57.804 12.1357L61.0871 10.272C60.6263 9.46354 60.0287 8.73317 59.2942 8.08339C58.5598 7.43362 57.681 6.9211 56.659 6.54458C55.6358 6.16932 54.4619 5.98169 53.1374 5.98169C51.6107 5.98169 50.2498 6.26376 49.0546 6.82665C47.8594 7.38954 46.9228 8.15643 46.2461 9.12354C45.5694 10.0919 45.2304 11.1963 45.2304 12.4379C45.2304 13.7677 45.5255 14.8217 46.1155 15.6012C46.7056 16.3807 47.4551 16.9876 48.3616 17.4208C49.2693 17.854 50.2473 18.1789 51.2994 18.3955C52.3502 18.6121 53.3295 18.8287 54.2372 19.0452C55.1449 19.2618 55.8932 19.559 56.4832 19.9343C57.0733 20.3095 57.3684 20.8737 57.3684 21.6242C57.3684 22.2312 57.1813 22.7512 56.8071 23.1844C56.433 23.6176 55.9283 23.9425 55.2956 24.1591C54.6615 24.3757 53.9271 24.484 53.0922 24.484C51.9108 24.484 50.8951 24.2674 50.0464 23.8342C49.1965 23.401 48.4984 22.6505 47.951 21.5801L44.668 23.3998C45.474 24.9889 46.619 26.1727 48.1029 26.9534C49.5857 27.7329 51.3069 28.1232 53.2655 28.1232C54.7632 28.1232 56.153 27.855 57.4349 27.3211C58.7167 26.7872 59.7387 26.0215 60.502 25.0242C61.2653 24.0281 61.647 22.8646 61.647 21.5361C61.647 20.1786 61.3507 19.1095 60.7619 18.3287C60.1718 17.548 59.4223 16.9498 58.5159 16.5305L58.5146 16.5355Z" fill="white"/>
<path d="M79.2737 7.39196C77.5738 6.39588 75.6592 5.89722 73.5274 5.89722C71.3956 5.89722 69.4797 6.39588 67.7811 7.39196C66.0811 8.38803 64.7277 9.72537 63.7196 11.4002C62.7115 13.0763 62.208 14.94 62.208 16.99C62.208 19.0401 62.7115 20.9114 63.7196 22.6013C64.7277 24.2912 66.0811 25.6424 67.7811 26.6536C69.4797 27.6648 71.3956 28.1697 73.5274 28.1697C75.629 28.1697 77.5374 27.6635 79.2523 26.6536C80.9661 25.6424 82.3119 24.2912 83.2924 22.6013C84.2717 20.9114 84.7613 19.0414 84.7613 16.99C84.7613 14.9677 84.2717 13.1115 83.2924 11.4216C82.3132 9.73166 80.9723 8.38803 79.2737 7.39196ZM79.5762 20.5651C78.9711 21.648 78.1437 22.5081 77.0917 23.144C76.0396 23.78 74.8519 24.0973 73.5274 24.0973C72.2028 24.0973 71.0139 23.78 69.9631 23.144C68.911 22.5094 68.0686 21.6493 67.4358 20.5651C66.8018 19.4821 66.4854 18.3047 66.4854 17.0328C66.4854 15.7333 66.8018 14.5483 67.4358 13.4792C68.0686 12.4114 68.911 11.5513 69.9631 10.9003C71.0139 10.2505 72.2016 9.92559 73.5274 9.92559C74.8531 9.92559 76.0396 10.2505 77.0917 10.9003C78.1425 11.55 78.9711 12.4101 79.5762 13.4792C80.1814 14.5483 80.4839 15.7333 80.4839 17.0328C80.4839 18.3047 80.1814 19.4808 79.5762 20.5651Z" fill="white"/>
<path d="M102.668 7.37055C101.098 6.38833 99.1467 5.89722 96.814 5.89722C94.5378 5.89722 92.6232 6.38833 91.0677 7.37055C89.5122 8.35277 88.3308 9.67499 87.5247 11.336C86.7187 12.9982 86.3145 14.8682 86.3145 16.9472V27.6509H90.5919V17.3804C90.5919 16.0519 90.8216 14.838 91.2836 13.7399C91.7444 12.6431 92.4349 11.7465 93.3577 11.0526C94.2792 10.3588 95.4317 10.0125 96.814 10.0125C98.254 10.0125 99.4417 10.3588 100.378 11.0526C101.314 11.7465 102.02 12.6494 102.495 13.7613C102.971 14.8732 103.208 16.0947 103.208 17.4232V27.6497H107.486V16.9031C107.486 14.8518 107.075 12.9969 106.254 11.3347C105.433 9.67374 104.238 8.35403 102.668 7.37055Z" fill="white"/>
<path d="M126.063 7.34792C124.363 6.38081 122.449 5.896 120.317 5.896C118.185 5.896 116.269 6.39466 114.57 7.39074C112.87 8.38681 111.525 9.73044 110.53 11.4204C109.536 13.1103 109.04 14.9664 109.04 16.9888C109.04 19.0401 109.501 20.9101 110.422 22.6001C111.344 24.29 112.604 25.6412 114.203 26.6524C115.801 27.6636 117.622 28.1685 119.668 28.1685C121.511 28.1685 123.13 27.7416 124.528 26.8904C125.767 26.1348 126.766 25.1438 127.531 23.921V27.6484H131.592V16.9888C131.592 14.8808 131.095 12.9881 130.102 11.3121C129.109 9.63726 127.762 8.31503 126.062 7.34666L126.063 7.34792ZM126.408 20.5651C125.803 21.6481 124.968 22.5081 123.902 23.1441C122.836 23.78 121.641 24.0973 120.317 24.0973C118.992 24.0973 117.803 23.78 116.752 23.1441C115.7 22.5094 114.865 21.6493 114.246 20.5651C113.626 19.4821 113.317 18.3047 113.317 17.0329C113.317 15.7333 113.626 14.5484 114.246 13.4793C114.865 12.4114 115.7 11.5513 116.752 10.9003C117.803 10.2505 118.992 9.92563 120.317 9.92563C121.641 9.92563 122.836 10.2505 123.902 10.9003C124.967 11.5501 125.803 12.4101 126.408 13.4793C127.013 14.5484 127.316 15.7333 127.316 17.0329C127.316 18.3047 127.013 19.4809 126.408 20.5651Z" fill="white"/>
<path d="M140.32 0.913086H136.043V6.41605H131.852V10.1422H136.043V20.0223C136.043 21.6405 136.352 23.0635 136.972 24.2912C137.591 25.519 138.506 26.4798 139.715 27.1724C140.925 27.8663 142.394 28.2126 144.122 28.2126C144.899 28.2126 145.677 28.0967 146.454 27.8663C147.232 27.6358 147.894 27.3462 148.442 26.9999V23.0559C147.923 23.4324 147.311 23.7346 146.605 23.9663C145.9 24.198 145.202 24.3126 144.51 24.3126C143.242 24.3126 142.227 23.9223 141.464 23.1428C140.701 22.3633 140.319 21.2791 140.319 19.8926V10.1422H148.442V6.41605H140.319V0.913086H140.32Z" fill="white"/>
<path d="M169.981 11.3133C168.986 9.63851 167.64 8.31629 165.94 7.34792C164.241 6.38081 162.326 5.896 160.194 5.896C158.062 5.896 156.147 6.39466 154.448 7.39074C152.748 8.38681 151.402 9.73044 150.408 11.4204C149.413 13.1103 148.917 14.9664 148.917 16.9888C148.917 19.0401 149.378 20.9101 150.3 22.6001C151.221 24.29 152.482 25.6412 154.08 26.6524C155.678 27.6636 157.5 28.1685 159.545 28.1685C161.388 28.1685 163.008 27.7416 164.405 26.8904C165.644 26.1348 166.644 25.1438 167.408 23.921V27.6484H171.47V16.9888C171.47 14.8808 170.972 12.9881 169.979 11.3121L169.981 11.3133ZM166.287 20.5651C165.682 21.6481 164.847 22.5081 163.781 23.1441C162.715 23.78 161.52 24.0973 160.195 24.0973C158.871 24.0973 157.682 23.78 156.631 23.1441C155.579 22.5094 154.744 21.6493 154.125 20.5651C153.505 19.4821 153.196 18.3047 153.196 17.0329C153.196 15.7333 153.505 14.5484 154.125 13.4793C154.744 12.4114 155.579 11.5513 156.631 10.9003C157.682 10.2505 158.871 9.92563 160.195 9.92563C161.52 9.92563 162.715 10.2505 163.781 10.9003C164.846 11.5501 165.682 12.4101 166.287 13.4793C166.892 14.5484 167.195 15.7333 167.195 17.0329C167.195 18.3047 166.892 19.4809 166.287 20.5651Z" fill="white"/>
<path d="M32.0146 20.1481H23.854V13.0963C24.7956 13.5811 25.8628 13.8519 26.9927 13.8519C30.8031 13.8519 33.8978 10.7478 33.8978 6.92593C33.8978 3.10407 30.8031 0 26.9927 0C23.1823 0 20.0876 3.10407 20.0876 6.92593V10.0741H13.8102V1.88889C13.8102 0.843704 12.969 0 11.927 0C10.885 0 10.0438 0.843704 10.0438 1.88889V10.0741H1.88321C0.841168 10.0741 0 10.9178 0 11.963C0 13.0081 0.841168 13.8519 1.88321 13.8519H10.0438V20.9037C9.10219 20.4189 8.03504 20.1481 6.90511 20.1481C3.09474 20.1481 0 23.2522 0 27.0741C0 30.8959 3.09474 34 6.90511 34C10.7155 34 13.8102 30.8959 13.8102 27.0741V23.9259H20.0876V32.1111C20.0876 33.1563 20.9288 34 21.9708 34C23.0128 34 23.854 33.1563 23.854 32.1111V23.9259H32.0146C33.0566 23.9259 33.8978 23.0822 33.8978 22.037C33.8978 20.9919 33.0566 20.1481 32.0146 20.1481ZM26.9927 3.77778C28.7253 3.77778 30.1314 5.18815 30.1314 6.92593C30.1314 8.6637 28.7253 10.0741 26.9927 10.0741C25.2601 10.0741 23.854 8.6637 23.854 6.92593C23.854 5.18815 25.2601 3.77778 26.9927 3.77778ZM6.90511 30.2222C5.17255 30.2222 3.76642 28.8119 3.76642 27.0741C3.76642 25.3363 5.17255 23.9259 6.90511 23.9259C8.63766 23.9259 10.0438 25.3363 10.0438 27.0741C10.0438 28.8119 8.63766 30.2222 6.90511 30.2222ZM13.8102 20.1481V13.8519H20.0876V20.1481H13.8102Z" fill="#FD5201"/>
</g>
<defs>
<clipPath id="clip0_87_3452">
<rect width="172" height="34" fill="white"/>
</clipPath>
</defs>
</svg>
