<svg width="25" height="25" viewBox="0 0 25 25" fill="none" xmlns="http://www.w3.org/2000/svg">
<path d="M9.50016 2.75C9.50016 2.55109 9.57918 2.36032 9.71983 2.21967C9.86048 2.07902 10.0512 2 10.2502 2C10.4491 2 10.6398 2.07902 10.7805 2.21967C10.9211 2.36032 11.0002 2.55109 11.0002 2.75V21.1895C11.0001 21.3377 10.9562 21.4826 10.8739 21.6059C10.7915 21.7291 10.6745 21.8252 10.5376 21.8821C10.4007 21.9389 10.2501 21.9538 10.1047 21.9251C9.95926 21.8963 9.82563 21.8251 9.72066 21.7205L2.74866 14.75C2.67882 14.6803 2.6234 14.5976 2.58559 14.5065C2.54778 14.4153 2.52832 14.3177 2.52832 14.219C2.52832 14.1203 2.54778 14.0227 2.58559 13.9316C2.6234 13.8404 2.67882 13.7577 2.74866 13.688H2.75166C2.89225 13.5479 3.08266 13.4692 3.28116 13.4692C3.47967 13.4692 3.67008 13.5479 3.81066 13.688L9.50016 19.382V2.75ZM14.0002 3.8105C14.0005 3.66241 14.0447 3.51772 14.1271 3.39469C14.2095 3.27166 14.3265 3.17578 14.4634 3.11915C14.6002 3.06253 14.7508 3.04768 14.896 3.07648C15.0413 3.10528 15.1748 3.17644 15.2797 3.281L22.2517 10.25C22.3215 10.3197 22.3769 10.4024 22.4147 10.4935C22.4525 10.5847 22.472 10.6823 22.472 10.781C22.472 10.8797 22.4525 10.9773 22.4147 11.0685C22.3769 11.1596 22.3215 11.2423 22.2517 11.312H22.2487C22.1081 11.4521 21.9177 11.5308 21.7192 11.5308C21.5207 11.5308 21.3302 11.4521 21.1897 11.312L15.5002 5.621V22.25C15.5002 22.4489 15.4211 22.6397 15.2805 22.7803C15.1398 22.921 14.9491 23 14.7502 23C14.5512 23 14.3605 22.921 14.2198 22.7803C14.0792 22.6397 14.0002 22.4489 14.0002 22.25V3.8105Z" fill="#444444" stroke="#444444" stroke-width="0.5"/>
</svg>
