<svg width="80" height="36" viewBox="0 0 80 36" fill="none" xmlns="http://www.w3.org/2000/svg">
<rect width="80" height="36" rx="6" fill="#3C0061"/>
<rect width="36" height="36" rx="6" fill="#3C0061"/>
<path d="M9.98351 17.1551L16.9362 10.375C17.0415 10.2722 17.1556 10.1993 17.2785 10.1562C17.4014 10.1137 17.5331 10.0925 17.6736 10.0925C17.814 10.0925 17.9457 10.1137 18.0686 10.1562C18.1915 10.1993 18.3056 10.2722 18.411 10.375L25.3636 17.1551C25.5567 17.3434 25.6579 17.5787 25.667 17.8608C25.6754 18.1437 25.5743 18.3878 25.3636 18.5933C25.1705 18.7987 24.9292 18.9059 24.6399 18.9148C24.3499 18.923 24.0995 18.8244 23.8888 18.619L18.727 13.5852L18.727 25.0652C18.727 25.3562 18.6262 25.6004 18.4247 25.7976C18.2224 25.9942 17.972 26.0925 17.6736 26.0925C17.3751 26.0925 17.1251 25.9942 16.9235 25.7976C16.7213 25.6004 16.6201 25.3562 16.6201 25.0652L16.6201 13.5852L11.4583 18.619C11.2652 18.8073 11.0194 18.9059 10.7209 18.9148C10.4224 18.923 10.1766 18.8244 9.98351 18.619C9.77282 18.4306 9.66748 18.1909 9.66748 17.8999C9.66748 17.6088 9.77282 17.3605 9.98351 17.1551Z" fill="white"/>
<path d="M45.486 11.44H36.252V13.132H39.942V23.5H41.778V13.132H45.486V11.44ZM50.3657 23.716C53.0117 23.716 55.0457 21.628 55.0457 19.072C55.0457 16.552 53.0297 14.464 50.3657 14.464C47.7197 14.464 45.6497 16.534 45.6497 19.072C45.6497 21.628 47.7017 23.716 50.3657 23.716ZM50.3657 22.024C48.7097 22.024 47.4317 20.692 47.4317 19.09C47.4317 17.47 48.7097 16.138 50.3657 16.138C52.0037 16.138 53.2637 17.47 53.2637 19.09C53.2637 20.692 52.0037 22.024 50.3657 22.024ZM58.8178 27.55V22.402C59.5378 23.194 60.6178 23.716 61.8058 23.716C64.4878 23.716 66.4138 21.736 66.4138 19.072C66.4138 16.552 64.3978 14.464 61.7338 14.464C59.0698 14.464 57.0358 16.444 57.0358 19.072V27.55H58.8178ZM61.7338 22.042C60.0778 22.042 58.8178 20.692 58.8178 19.09C58.8178 17.47 60.0778 16.156 61.7338 16.156C63.3718 16.156 64.6318 17.47 64.6318 19.09C64.6318 20.692 63.3718 22.042 61.7338 22.042Z" fill="white"/>
</svg>
