<svg width="28" height="28" viewBox="0 0 28 28" fill="none" xmlns="http://www.w3.org/2000/svg">
<path d="M16.3337 16.6273V19.0656C15.2777 18.6923 14.1476 18.5778 13.0383 18.7317C11.9289 18.8856 10.8727 19.3035 9.95833 19.9502C9.04393 20.5969 8.29806 21.4536 7.78335 22.4483C7.26864 23.443 7.00011 24.5466 7.00033 25.6666L4.66699 25.6655C4.66663 24.2408 4.9924 22.835 5.61934 21.5558C6.24628 20.2765 7.15775 19.1577 8.28391 18.2852C9.41007 17.4126 10.721 16.8095 12.1163 16.5219C13.5116 16.2343 14.9543 16.27 16.3337 16.6261V16.6273ZM14.0003 15.1666C10.1328 15.1666 7.00033 12.0341 7.00033 8.16663C7.00033 4.29913 10.1328 1.16663 14.0003 1.16663C17.8678 1.16663 21.0003 4.29913 21.0003 8.16663C21.0003 12.0341 17.8678 15.1666 14.0003 15.1666ZM14.0003 12.8333C16.5787 12.8333 18.667 10.745 18.667 8.16663C18.667 5.58829 16.5787 3.49996 14.0003 3.49996C11.422 3.49996 9.33366 5.58829 9.33366 8.16663C9.33366 10.745 11.422 12.8333 14.0003 12.8333ZM22.167 20.517L24.6415 18.0413L26.2923 19.6921L23.8167 22.1666L26.2923 24.6411L24.6415 26.292L22.167 23.8163L19.6925 26.292L18.0417 24.6411L20.5173 22.1666L18.0417 19.6921L19.6925 18.0413L22.167 20.517Z" fill="#444444"/>
</svg>
