<svg width="42" height="42" viewBox="0 0 42 42" fill="none" xmlns="http://www.w3.org/2000/svg">
<path d="M8.75 36.75C7.7875 36.75 6.96325 36.4076 6.27725 35.7227C5.59242 35.0368 5.25 34.2125 5.25 33.25V8.75C5.25 7.7875 5.59242 6.96325 6.27725 6.27725C6.96325 5.59242 7.7875 5.25 8.75 5.25H33.25C34.2125 5.25 35.0368 5.59242 35.7227 6.27725C36.4076 6.96325 36.75 7.7875 36.75 8.75V33.25C36.75 34.2125 36.4076 35.0368 35.7227 35.7227C35.0368 36.4076 34.2125 36.75 33.25 36.75H8.75ZM8.75 33.25H33.25V8.75H8.75V33.25ZM10.5 29.75H31.5L24.9375 21L19.6875 28L15.75 22.75L10.5 29.75Z" fill="#3C0061"/>
</svg>
