<svg width="21" height="20" viewBox="0 0 21 20" fill="none" xmlns="http://www.w3.org/2000/svg">
<path d="M3.83366 17.5001C3.37533 17.5001 2.9831 17.337 2.65699 17.0109C2.33033 16.6842 2.16699 16.2917 2.16699 15.8334V6.66675C2.16699 6.20841 2.33033 5.81619 2.65699 5.49008C2.9831 5.16341 3.37533 5.00008 3.83366 5.00008H7.16699V3.33341C7.16699 2.87508 7.33033 2.48258 7.65699 2.15591C7.9831 1.8298 8.37533 1.66675 8.83366 1.66675H12.167C12.6253 1.66675 13.0178 1.8298 13.3445 2.15591C13.6706 2.48258 13.8337 2.87508 13.8337 3.33341V5.00008H17.167C17.6253 5.00008 18.0178 5.16341 18.3445 5.49008C18.6706 5.81619 18.8337 6.20841 18.8337 6.66675V15.8334C18.8337 16.2917 18.6706 16.6842 18.3445 17.0109C18.0178 17.337 17.6253 17.5001 17.167 17.5001H3.83366ZM3.83366 15.8334H17.167V6.66675H3.83366V15.8334ZM8.83366 5.00008H12.167V3.33341H8.83366V5.00008ZM3.83366 15.8334V6.66675V15.8334Z" fill="#444444"/>
</svg>
